<svg xmlns="http://www.w3.org/2000/svg" width="140" height="140" viewBox="0 0 140 140">
  <g id="Group_1912" data-name="Group 1912" transform="translate(-923 -661)">
    <path id="Path_1939" data-name="Path 1939" d="M2146.123,8406.738a11.829,11.829,0,0,1-8.978-3.576q-11.915-12.041-23.842-24.072c-.51-.516-.741-.51-1.245,0q-12.422,12.58-24.881,25.121a10.971,10.971,0,0,1-8.741,3.619,10.6,10.6,0,0,1-9.71-6.83,10.845,10.845,0,0,1,1.8-11.654,16.021,16.021,0,0,1,1.134-1.2q12.325-12.431,24.666-24.846c.525-.529.559-.775.011-1.326q-11.626-11.654-23.2-23.361a11.269,11.269,0,0,1-1.327-14.9,11.059,11.059,0,0,1,16.074-1.869c.438.379.853.783,1.261,1.193q11.473,11.566,22.928,23.145c.508.516.736.5,1.238,0q11.014-11.162,22.073-22.273c3.931-3.957,9.344-4.7,13.91-1.928a11.243,11.243,0,0,1,2.541,16.982c-.326.367-.665.727-1.012,1.076q-10.858,10.948-21.737,21.877c-.62.619-.527.891.033,1.453q11.864,11.909,23.689,23.857a11.453,11.453,0,0,1,3.608,8.207C2156.478,8401.639,2151.472,8406.721,2146.123,8406.738Z" transform="translate(-1118.772 -7632.211)" fill="#e15858"/>
    <g id="Ellipse_130" data-name="Ellipse 130" transform="translate(923 661)" fill="none" stroke="#e15858" stroke-width="5">
      <circle cx="70" cy="70" r="70" stroke="none"/>
      <circle cx="70" cy="70" r="67.5" fill="none"/>
    </g>
  </g>
</svg>
