<svg xmlns="http://www.w3.org/2000/svg" width="992" height="455.463" viewBox="0 0 992 455.463">
  <g id="Group_2604" data-name="Group 2604" transform="translate(1730.645 -196.705)">
    <line id="Line_686" data-name="Line 686" x1="86.67" y2="0.38" transform="translate(-1443.182 265.344)" fill="none" stroke="#bebabd" stroke-miterlimit="10" stroke-width="0"/>
    <path id="Path_4000" data-name="Path 4000" d="M-1405.5,303.94l-2.53.045a.374.374,0,0,0-.418.386l-23.968,283.1" transform="translate(-37.679 -38.216)" fill="none" stroke="#d0c8ce" stroke-miterlimit="10" stroke-width="0"/>
    <path id="Path_4001" data-name="Path 4001" d="M-1470.1,744.449l-67.844-.039a.206.206,0,0,0-.084.393q37.661,18.082,75.374,36.274a7.939,7.939,0,0,0,3.257.753" transform="translate(0 -195.192)" fill="none" stroke="#f0f0f0" stroke-miterlimit="10" stroke-width="0"/>
    <line id="Line_687" data-name="Line 687" x2="30.347" y2="17.062" transform="translate(-1459.394 586.638)" fill="none" stroke="#d0c8ce" stroke-miterlimit="10" stroke-width="0"/>
    <line id="Line_688" data-name="Line 688" x2="4.499" y2="0.167" transform="translate(-1429.048 603.7)" fill="none" stroke="#e3d9e0" stroke-miterlimit="10" stroke-width="0"/>
    <path id="Path_4002" data-name="Path 4002" d="M-1361.649,829.32a101.953,101.953,0,0,0,14.037,6.758" transform="translate(-62.9 -225.452)" fill="none" stroke="#f0f0f0" stroke-miterlimit="10" stroke-width="0"/>
    <path id="Path_4003" data-name="Path 4003" d="M-1339.839,839.82l.277,1.706a.6.6,0,0,0,.38.483l84.629,35.907" transform="translate(-70.673 -229.194)" fill="none" stroke="#f4dbc1" stroke-miterlimit="10" stroke-width="0"/>
    <line id="Line_689" data-name="Line 689" y1="3.308" x2="329.996" transform="translate(-1325.226 645.413)" fill="none" stroke="#fae2c3" stroke-miterlimit="10" stroke-width="0"/>
    <path id="Path_4004" data-name="Path 4004" d="M-694.609,848.182l2.574-.187a.343.343,0,0,0,.354-.393q-.637-39.766-.7-79.506a14.636,14.636,0,0,0-.541-2.426" transform="translate(-300.621 -202.769)" fill="none" stroke="#f4dbc1" stroke-miterlimit="10" stroke-width="0"/>
    <path id="Path_4005" data-name="Path 4005" d="M-692.752,743.179c.908.36,1.364.193,1.371-.5q.106-19.4-.2-38.8a.471.471,0,0,0-.322-.463l-2.227-.856" transform="translate(-300.792 -180.277)" fill="none" stroke="#e7cdbc" stroke-miterlimit="10" stroke-width="0"/>
    <line id="Line_690" data-name="Line 690" x1="67.554" y1="27.643" transform="translate(-1062.475 494.639)" fill="none" stroke="#e6d4c8" stroke-miterlimit="10" stroke-width="0"/>
    <path id="Path_4006" data-name="Path 4006" d="M-843.394,585.448q-1.1-4.373-2.375-9.191c-.972-3.675-.656-7.814-.5-11.92q.724-19.608.077-39.216a26.347,26.347,0,0,1,.412-5.394c3.2-18.453.953-37.51-8.953-53.562-5.155-8.361-12.3-14.417-22.617-14.642-14.443-.322-20.8,6.037-26.234,18.581-5.143,11.855-7.228,22.926-8.18,35.862q-1.767,23.894-3.437,41.018a98.976,98.976,0,0,1-8.206,30.707" transform="translate(-219.081 -90.808)" fill="none" stroke="#fbad92" stroke-miterlimit="10" stroke-width="0"/>
    <line id="Line_691" data-name="Line 691" x1="20.017" y2="0.155" transform="translate(-1162.506 486.884)" fill="none" stroke="#e6d4c8" stroke-miterlimit="10" stroke-width="0"/>
    <path id="Path_4007" data-name="Path 4007" d="M-955.115,636a169.485,169.485,0,0,0-1.094-21.31" transform="translate(-207.391 -148.962)" fill="none" stroke="#e3d9e0" stroke-miterlimit="10" stroke-width="0"/>
    <line id="Line_692" data-name="Line 692" y1="48.902" x2="9.114" transform="translate(-1163.6 416.826)" fill="none" stroke="#beadb2" stroke-miterlimit="10" stroke-width="0"/>
    <path id="Path_4008" data-name="Path 4008" d="M-949.031,505.492c5.883-13.342,4.737-34.543-1.519-47.962A26.481,26.481,0,0,0-961.639,445.5" transform="translate(-205.456 -88.666)" fill="none" stroke="#fbad92" stroke-miterlimit="10" stroke-width="0"/>
    <path id="Path_4009" data-name="Path 4009" d="M-964.03,399.864q-1.284-40.249-2.871-79.912c0-.026,0-.322-.006-.888q-.019-2.163-1.442-1.435" transform="translate(-203.065 -43.03)" fill="none" stroke="#e3d9e0" stroke-miterlimit="10" stroke-width="0"/>
    <path id="Path_4010" data-name="Path 4010" d="M-1011.539,312.206-1028,306.928a.743.743,0,0,1-.463-.406l-1.841-3.965a.514.514,0,0,0-.515-.328l-58.724.251" transform="translate(-159.875 -37.607)" fill="none" stroke="#bebabd" stroke-miterlimit="10" stroke-width="0"/>
    <path id="Path_4011" data-name="Path 4011" d="M-1104.664,270.581c-.682-18.15-6.565-37.124-18.987-50.061q-3.205-3.34-8.328-7.8" transform="translate(-144.75 -5.707)" fill="none" stroke="#e7cdbc" stroke-miterlimit="10" stroke-width="0"/>
    <path id="Path_4012" data-name="Path 4012" d="M-1176.156,207.013c-11.534-11.154-27.888-13.233-42.118-6.346-23.589,11.411-34.4,40.258-37.665,64.677" transform="translate(-100.573)" fill="none" stroke="#dbc3b5" stroke-miterlimit="10" stroke-width="0"/>
    <path id="Path_4013" data-name="Path 4013" d="M-1157.891,209.566a45.916,45.916,0,0,1-5.574-2.04c-14.655-6.513-29.149-4.293-41.224,6.417" transform="translate(-118.838 -2.553)" fill="none" stroke="#c29172" stroke-miterlimit="10" stroke-width="0"/>
    <path id="Path_4014" data-name="Path 4014" d="M-1219.226,219.52c-15.923,11.772-23.634,35.206-26.253,53.858" transform="translate(-104.301 -8.131)" fill="none" stroke="#dbc3b5" stroke-miterlimit="10" stroke-width="0"/>
    <line id="Line_693" data-name="Line 693" x1="6.732" y2="0.097" transform="translate(-1356.512 265.247)" fill="none" stroke="#997e73" stroke-miterlimit="10" stroke-width="0"/>
    <line id="Line_694" data-name="Line 694" x2="0.09" y2="9.558" transform="translate(-1249.414 264.874)" fill="none" stroke="#a58879" stroke-miterlimit="10" stroke-width="0"/>
    <line id="Line_695" data-name="Line 695" x1="6.687" y2="0.367" transform="translate(-1256.011 274.432)" fill="none" stroke="#cea285" stroke-miterlimit="10" stroke-width="0"/>
    <path id="Path_4015" data-name="Path 4015" d="M-1099.789,317.994v-.084" transform="translate(-156.222 -43.195)" fill="none" stroke="#cba79d" stroke-miterlimit="10" stroke-width="0"/>
    <line id="Line_696" data-name="Line 696" x1="0.039" y1="9.822" transform="translate(-1256.05 264.893)" fill="none" stroke="#a58879" stroke-miterlimit="10" stroke-width="0"/>
    <path id="Path_4016" data-name="Path 4016" d="M-1103.9,285.423a83.621,83.621,0,0,0-7.318-31.113" transform="translate(-152.149 -20.529)" fill="none" stroke="#e7cdbc" stroke-miterlimit="10" stroke-width="0"/>
    <path id="Path_4017" data-name="Path 4017" d="M-1118.56,244.916c-.277-.618-.6-1.313-.978-2.085a40.964,40.964,0,0,0-12.28-14.88" transform="translate(-144.807 -11.135)" fill="none" stroke="#c29172" stroke-miterlimit="10" stroke-width="0"/>
    <path id="Path_4018" data-name="Path 4018" d="M-1164.2,223.022a30.519,30.519,0,0,0-4.042-3.572q-16.808-10.011-32.38-1.21c-17.88,10.111-22.211,34.562-22.044,53.2" transform="translate(-112.431 -6.207)" fill="none" stroke="#e7cdbc" stroke-miterlimit="10" stroke-width="0"/>
    <line id="Line_697" data-name="Line 697" x2="0.483" y2="9.332" transform="translate(-1335.092 265.234)" fill="none" stroke="#a58879" stroke-miterlimit="10" stroke-width="0"/>
    <path id="Path_4019" data-name="Path 4019" d="M-1225.565,317.68c-.122.367-.5.438-1.12.225-1.345-.457-4.016.045-5.484.219" transform="translate(-109.044 -43.113)" fill="none" stroke="#cea285" stroke-miterlimit="10" stroke-width="0"/>
    <path id="Path_4020" data-name="Path 4020" d="M-1232.243,318.2q-.183-.029-.116-.309" transform="translate(-108.97 -43.188)" fill="none" stroke="#cba79d" stroke-miterlimit="10" stroke-width="0"/>
    <line id="Line_698" data-name="Line 698" x1="0.309" y1="9.442" transform="translate(-1341.638 265.26)" fill="none" stroke="#a58879" stroke-miterlimit="10" stroke-width="0"/>
    <path id="Path_4021" data-name="Path 4021" d="M-1232.846,273.391a98.776,98.776,0,0,1,3.334-28.055c2.143-8.019,6.887-18.459,13.156-24.065a13.4,13.4,0,0,0,1.622-1.751" transform="translate(-108.793 -8.131)" fill="none" stroke="#e7cdbc" stroke-miterlimit="10" stroke-width="0"/>
    <line id="Line_699" data-name="Line 699" x1="82.982" y2="0.006" transform="translate(-1424.311 274.702)" fill="none" stroke="#a2939e" stroke-miterlimit="10" stroke-width="0"/>
    <path id="Path_4022" data-name="Path 4022" d="M-1371.735,312.925a22.168,22.168,0,0,0-9.905-5.889q-4.316-1.216-8.657-2.317a.385.385,0,0,1-.322-.425l.013-.354" transform="translate(-52.576 -38.216)" fill="none" stroke="#8e828b" stroke-miterlimit="10" stroke-width="0"/>
    <line id="Line_700" data-name="Line 700" x1="8.142" y1="0.013" transform="translate(-1349.78 265.247)" fill="none" stroke="#bebabd" stroke-miterlimit="10" stroke-width="0"/>
    <line id="Line_701" data-name="Line 701" x1="77.916" y2="0.064" transform="translate(-1249.33 274.599)" fill="none" stroke="#a2939e" stroke-miterlimit="10" stroke-width="0"/>
    <path id="Path_4023" data-name="Path 4023" d="M-1089.409,317.7c0-.077,0-.154.006-.232" transform="translate(-159.921 -43.038)" fill="none" stroke="#a58f86" stroke-miterlimit="10" stroke-width="0"/>
    <path id="Path_4024" data-name="Path 4024" d="M-1095.815,346.325a2.322,2.322,0,0,0-.5,1.255,1.126,1.126,0,0,1-1.281,1.056l-4.447-.624a.441.441,0,0,1-.373-.322l-.656-2.349" transform="translate(-155.053 -52.971)" fill="none" stroke="#c2987e" stroke-miterlimit="10" stroke-width="0"/>
    <path id="Path_4025" data-name="Path 4025" d="M-1057.969,443.974a26.727,26.727,0,0,0-20.731-1.216c-11.032,3.875-20.635,11.141-29.014,19.3a183.749,183.749,0,0,0-14.4,15.363c-13.967,17.268-27.669,34.7-43.013,50.788-8.328,8.734-16.637,13.909-25.983,20.016-7.5,4.9-14.874,6.629-22.739,9.416-8.946,3.173-16.419,8.116-18.092,18.2" transform="translate(-109.126 -87.139)" fill="none" stroke="#df8773" stroke-miterlimit="10" stroke-width="0"/>
    <path id="Path_4026" data-name="Path 4026" d="M-1271.832,650.38q-32.805,1.12-65.675.624c-2.458-.039-4.068-1.6-6.372.476" transform="translate(-69.233 -161.681)" fill="none" stroke="#caaea9" stroke-miterlimit="10" stroke-width="0"/>
    <path id="Path_4027" data-name="Path 4027" d="M-1343.879,652.09l.521,39.467a.5.5,0,0,0,.315.476l.946.418" transform="translate(-69.233 -162.291)" fill="none" stroke="#bf9d96" stroke-miterlimit="10" stroke-width="0"/>
    <line id="Line_702" data-name="Line 702" x2="0.702" y2="73.604" transform="translate(-1411.329 530.161)" fill="none" stroke="#d8b5a2" stroke-miterlimit="10" stroke-width="0"/>
    <line id="Line_703" data-name="Line 703" x1="13.921" y2="0.103" transform="translate(-1424.549 603.765)" fill="none" stroke="#d4c9d1" stroke-miterlimit="10" stroke-width="0"/>
    <line id="Line_704" data-name="Line 704" x2="2.072" y2="18.961" transform="translate(-1341.213 275.011)" fill="none" stroke="#caaea9" stroke-miterlimit="10" stroke-width="0"/>
    <path id="Path_4028" data-name="Path 4028" d="M-1229.056,346.882q-.792,3.659,1.661,4.994c4.621,2.523,9.139-2.825,5.464-6.707" transform="translate(-110.085 -52.91)" fill="none" stroke="#bf9d96" stroke-miterlimit="10" stroke-width="0"/>
    <path id="Path_4029" data-name="Path 4029" d="M-1219.3,335.451a138.55,138.55,0,0,1-2.568-17.069.605.605,0,0,1,.193-.483" transform="translate(-112.713 -43.192)" fill="none" stroke="#caaea9" stroke-miterlimit="10" stroke-width="0"/>
    <line id="Line_705" data-name="Line 705" x1="9.545" y2="0.18" transform="translate(-1306.599 316.318)" fill="none" stroke="#debca4" stroke-miterlimit="10" stroke-width="0"/>
    <path id="Path_4030" data-name="Path 4030" d="M-1187.657,382.794a5.333,5.333,0,0,0-5.014,1.937q-5.4,6.131-10.626,12.222a3.587,3.587,0,0,0-.837,1.924,43.093,43.093,0,0,0-.225,4.557q-.116,32.931.129,65.881c.058,7.009,2.774,12.029,10.884,11.4" transform="translate(-118.942 -66.295)" fill="none" stroke="#b4a1af" stroke-miterlimit="10" stroke-width="0"/>
    <path id="Path_4031" data-name="Path 4031" d="M-1187.229,480.607a32.913,32.913,0,0,1,4.4.109q14.665.01,29.336-.013c8.753-.013,10.748-4.241,10.748-12.589q0-34.234.007-68.475c0-2.761-1.57-3.669-3.141-5.542-2.755-3.3-5.728-6.449-8.425-9.777-2.195-2.71-8.515-1.718-11.752-1.8" transform="translate(-125.06 -66.182)" fill="none" stroke="#debca4" stroke-miterlimit="10" stroke-width="0"/>
    <path id="Path_4032" data-name="Path 4032" d="M-1100.958,318.04a67.292,67.292,0,0,1-2.111,17.571" transform="translate(-155.053 -43.241)" fill="none" stroke="#caaea9" stroke-miterlimit="10" stroke-width="0"/>
    <path id="Path_4033" data-name="Path 4033" d="M-1103.633,345.34q-2.945,6.3,2.626,7.035c3.868.508,5.773-2.439,4.628-6.05" transform="translate(-154.489 -52.971)" fill="none" stroke="#bf9d96" stroke-miterlimit="10" stroke-width="0"/>
    <line id="Line_706" data-name="Line 706" y1="18.691" x2="1.538" transform="translate(-1250.868 274.663)" fill="none" stroke="#caaea9" stroke-miterlimit="10" stroke-width="0"/>
    <path id="Path_4034" data-name="Path 4034" d="M-1112.374,254.31a86.452,86.452,0,0,1-2.085,31.048" transform="translate(-150.994 -20.529)" fill="none" stroke="#dbc3b5" stroke-miterlimit="10" stroke-width="0"/>
    <line id="Line_707" data-name="Line 707" x1="6.848" y2="0.045" transform="translate(-1272.301 264.829)" fill="none" stroke="#997e73" stroke-miterlimit="10" stroke-width="0"/>
    <path id="Path_4035" data-name="Path 4035" d="M-1131.819,227.95a49.33,49.33,0,0,1,6.732,19.276,76.309,76.309,0,0,1-2.407,28.783" transform="translate(-144.807 -11.135)" fill="none" stroke="#dbc3b5" stroke-miterlimit="10" stroke-width="0"/>
    <line id="Line_708" data-name="Line 708" x1="62.791" y2="0.36" transform="translate(-1335.092 264.874)" fill="none" stroke="#bebabd" stroke-miterlimit="10" stroke-width="0"/>
    <line id="Line_709" data-name="Line 709" x1="38.553" y2="0.013" transform="translate(-1294.564 274.715)" fill="none" stroke="#a2939e" stroke-miterlimit="10" stroke-width="0"/>
    <path id="Path_4036" data-name="Path 4036" d="M-1161.027,317.288l-.953-.94a.755.755,0,0,0-.579-.219q-1.062.048-.85.946" transform="translate(-133.537 -42.56)" fill="none" stroke="#725d65" stroke-miterlimit="10" stroke-width="0"/>
    <line id="Line_710" data-name="Line 710" x1="37.446" y2="0.193" transform="translate(-1334.391 274.515)" fill="none" stroke="#a2939e" stroke-miterlimit="10" stroke-width="0"/>
    <path id="Path_4037" data-name="Path 4037" d="M-1221.69,317.79c-.1-.2-.174-.251-.219-.142" transform="translate(-112.701 -43.082)" fill="none" stroke="#a58f86" stroke-miterlimit="10" stroke-width="0"/>
    <path id="Path_4038" data-name="Path 4038" d="M-1221.824,345.17q.348,2.954-.972,3.1-2.414.261-4.891.412a.328.328,0,0,1-.393-.322c-.109-.946-.4-1.435-.869-1.474" transform="translate(-110.192 -52.91)" fill="none" stroke="#c2987e" stroke-miterlimit="10" stroke-width="0"/>
    <line id="Line_711" data-name="Line 711" x1="9.403" y1="0.064" transform="translate(-1265.453 264.829)" fill="none" stroke="#bebabd" stroke-miterlimit="10" stroke-width="0"/>
    <path id="Path_4039" data-name="Path 4039" d="M-1363.9,317.837c.27-.212.29-.129.064.257a.953.953,0,0,0-.122.457l-4.679,328.277" transform="translate(-60.409 -43.128)" fill="none" stroke="#b4a1af" stroke-miterlimit="10" stroke-width="0"/>
    <path id="Path_4040" data-name="Path 4040" d="M-1423.073,781.851l-12.319-6.951a1.641,1.641,0,0,1-.83-1.57l2.446-28.86" transform="translate(-36.321 -195.213)" fill="none" stroke="#c0b8be" stroke-miterlimit="10" stroke-width="0"/>
    <path id="Path_4041" data-name="Path 4041" d="M-1191.332,480.757c-7.723-2.259-7.543-8.586-7.35-15.267.592-20.943.193-42.028.18-62.985,0-1.609-.592-3.662.676-5.284q3.06-3.91,12.184-14.391" transform="translate(-120.957 -66.331)" fill="none" stroke="#cbab92" stroke-miterlimit="10" stroke-width="0"/>
    <path id="Path_4042" data-name="Path 4042" d="M-1159.689,317.93a24.689,24.689,0,0,1,1.661,5.13,147.514,147.514,0,0,1,1.789,36.487" transform="translate(-134.875 -43.202)" fill="none" stroke="#987c88" stroke-miterlimit="10" stroke-width="0"/>
    <path id="Path_4043" data-name="Path 4043" d="M-1157.715,382.59l-.753,4.492a.464.464,0,0,0,.206.489,3.29,3.29,0,0,1,1.036,4.615c-1.841,3.688-7.4,1.712-6.507-2.491q.579-2.732,3.932-2.748a.342.342,0,0,0,.38-.328l.5-3.887" transform="translate(-133.399 -66.246)" fill="none" stroke="#af866b" stroke-miterlimit="10" stroke-width="0"/>
    <path id="Path_4044" data-name="Path 4044" d="M-1158.148,368.571a102.675,102.675,0,0,0,.238-15.3c-.161-2.858-.579-6.745-.258-9.583a.775.775,0,0,0-.219-.682c-.245-.245-.367-.193-.373.154-.142,8.631-2.04,16.67-2.909,25.191" transform="translate(-134.169 -52.085)" fill="none" stroke="#987c88" stroke-miterlimit="10" stroke-width="0"/>
    <path id="Path_4045" data-name="Path 4045" d="M-1162.343,382.47a2.03,2.03,0,0,1-1.216.052" transform="translate(-133.496 -66.203)" fill="none" stroke="#af866b" stroke-miterlimit="10" stroke-width="0"/>
    <path id="Path_4046" data-name="Path 4046" d="M-1163.559,359.4c1.764-14.584,5.213-27.206.94-40.966a1.281,1.281,0,0,0-.83-.837" transform="translate(-133.496 -43.085)" fill="none" stroke="#987c88" stroke-miterlimit="10" stroke-width="0"/>
    <path id="Path_4047" data-name="Path 4047" d="M-1147.057,770.32c-.5.734-.624,1.262-.367,1.59a.447.447,0,0,1-.354.727c-14.121-.045-28.635-.592-42.749.47q-4.808.357-9.628.431c-2.092.032-4.673-.476-7.022-.212a.8.8,0,0,0-.792.888l.412,78.933" transform="translate(-117.669 -204.426)" fill="none" stroke="#efbe85" stroke-miterlimit="10" stroke-width="0"/>
    <path id="Path_4048" data-name="Path 4048" d="M-1339.9,836.021a22.953,22.953,0,0,0-.116-6.861" transform="translate(-70.609 -225.395)" fill="none" stroke="#e4ccb1" stroke-miterlimit="10" stroke-width="0"/>
    <line id="Line_712" data-name="Line 712" x2="0.373" y2="39.537" transform="translate(-1326.461 526.595)" fill="none" stroke="#c29172" stroke-miterlimit="10" stroke-width="0"/>
    <path id="Path_4049" data-name="Path 4049" d="M-1255.868,750.772q-65.4-27.814-82.544-35.077c-.515-.219-1.416-.515-2.7-.895" transform="translate(-70.22 -184.639)" fill="none" stroke="#cf9f77" stroke-miterlimit="10" stroke-width="0"/>
    <path id="Path_4050" data-name="Path 4050" d="M-955.385,538.71a39.207,39.207,0,0,1-5.87,6.359q-9.674,7.984-18.214,15.64" transform="translate(-199.102 -121.884)" fill="none" stroke="#b95b44" stroke-miterlimit="10" stroke-width="0"/>
    <path id="Path_4051" data-name="Path 4051" d="M-992.089,572.89c-9.583,8.412-16.908,16.181-22.791,28.036" transform="translate(-186.482 -134.065)" fill="none" stroke="#af513a" stroke-miterlimit="10" stroke-width="0"/>
    <path id="Path_4052" data-name="Path 4052" d="M-1020.193,616.45a157.142,157.142,0,0,0-9.6,20.074" transform="translate(-181.169 -149.589)" fill="none" stroke="#df8773" stroke-miterlimit="10" stroke-width="0"/>
    <path id="Path_4053" data-name="Path 4053" d="M-1033.214,647.64a68,68,0,0,1-6.185,12.332" transform="translate(-177.744 -160.705)" fill="none" stroke="#e2825b" stroke-miterlimit="10" stroke-width="0"/>
    <line id="Line_713" data-name="Line 713" x1="2.587" y2="3.353" transform="translate(-1219.73 499.267)" fill="none" stroke="#d67148" stroke-miterlimit="10" stroke-width="0"/>
    <path id="Path_4054" data-name="Path 4054" d="M-1110.615,667.031c-8.064,9.616-17.905,11.521-30.25,11.141a261.457,261.457,0,0,1-49.887-6.179q-20.689-4.7-26.665-6.481c-5.265-1.57-10.6-3.36-14.552-7.472" transform="translate(-109.116 -164.411)" fill="none" stroke="#af513a" stroke-miterlimit="10" stroke-width="0"/>
    <line id="Line_714" data-name="Line 714" y1="4.93" x2="0.019" transform="translate(-1341.084 488.699)" fill="none" stroke="#e2825b" stroke-miterlimit="10" stroke-width="0"/>
    <path id="Path_4055" data-name="Path 4055" d="M-926.745,670.32c-3.244,1.957-1.538,5.857,1.3,7.17,9.886,4.583,22.494,5.432,32.792,5.645m26.781-.3c5.715-.393,13.065-1.056,17.963-4.158,1.422-.895,1.7-2.117,1.847-3.675" transform="translate(-217.263 -168.788)" fill="none" stroke="#c2987e" stroke-miterlimit="10" stroke-width="0"/>
    <path id="Path_4056" data-name="Path 4056" d="M-877.708,702.56l-.682.811a.7.7,0,0,1-.554.264c-8.316,0-16.985.463-24.882.412q-13.564-.087-27.135.142c-91.42,1.519-182.871,1.673-274.3,2.941-1.216.019-2.613-.3-3.99-.257" transform="translate(-117.213 -180.277)" fill="none" stroke="#cea285" stroke-miterlimit="10" stroke-width="0"/>
    <line id="Line_715" data-name="Line 715" x1="86.65" y1="36.796" transform="translate(-1413.112 489.799)" fill="none" stroke="#c2987e" stroke-miterlimit="10" stroke-width="0"/>
    <path id="Path_4057" data-name="Path 4057" d="M-1232.046,658.04c-1.384,7.678,7.936,12.673,13.87,14.971" transform="translate(-109.039 -164.411)" fill="none" stroke="#9b7870" stroke-miterlimit="10" stroke-width="0"/>
    <path id="Path_4058" data-name="Path 4058" d="M-1219.1,681.3a49.673,49.673,0,0,0-12.718,4.171c-1.468.721-4.756,3.99-1.7,5.078a61.959,61.959,0,0,0,13.658,3.006,307.47,307.47,0,0,0,58.054,1.152.441.441,0,0,0,.431-.36.939.939,0,0,1,1.056-.785" transform="translate(-108.116 -172.701)" fill="none" stroke="#c2987e" stroke-miterlimit="10" stroke-width="0"/>
    <path id="Path_4059" data-name="Path 4059" d="M-1119.089,698.875q12.676.685,25.41.5a27.468,27.468,0,0,0,12.744-3.167" transform="translate(-149.344 -178.014)" fill="none" stroke="#9b7870" stroke-miterlimit="10" stroke-width="0"/>
    <path id="Path_4060" data-name="Path 4060" d="M-1059.809,691.338a279.95,279.95,0,0,0,49.275-8.8" transform="translate(-170.47 -173.143)" fill="none" stroke="#c2987e" stroke-miterlimit="10" stroke-width="0"/>
    <line id="Line_716" data-name="Line 716" x1="3.521" y1="0.219" transform="translate(-1295.838 316.267)" fill="none" stroke="#debca4" stroke-miterlimit="10" stroke-width="0"/>
    <line id="Line_717" data-name="Line 717" x1="259.114" y2="2.793" transform="translate(-1252.658 562.901)" fill="none" stroke="#dba97d" stroke-miterlimit="10" stroke-width="0"/>
    <line id="Line_718" data-name="Line 718" x1="12.068" y2="0.2" transform="translate(-1264.726 565.695)" fill="none" stroke="#e2b080" stroke-miterlimit="10" stroke-width="0"/>
    <line id="Line_719" data-name="Line 719" x1="61.363" y2="0.238" transform="translate(-1326.088 565.894)" fill="none" stroke="#dba97d" stroke-miterlimit="10" stroke-width="0"/>
    <line id="Line_720" data-name="Line 720" x1="4.821" y2="22.939" transform="translate(-1168.421 465.728)" fill="none" stroke="#a28793" stroke-miterlimit="10" stroke-width="0"/>
    <path id="Path_4061" data-name="Path 4061" d="M-970.666,650.33q-1.052,5.194-2.175,10.349c-1.01,4.615-1.429,7.569-5.664,9.114a32.543,32.543,0,0,1-4.744,1.268" transform="translate(-197.755 -161.663)" fill="none" stroke="#a5827b" stroke-miterlimit="10" stroke-width="0"/>
    <path id="Path_4062" data-name="Path 4062" d="M-983.3,682.344c-.032-.122-.064-.238-.1-.354" transform="translate(-197.701 -172.947)" fill="none" stroke="#997168" stroke-miterlimit="10" stroke-width="0"/>
    <path id="Path_4063" data-name="Path 4063" d="M-983.4,643.109l.689-.058a.34.34,0,0,0,.348-.367l1.493-69.794" transform="translate(-197.701 -134.065)" fill="none" stroke="#72515a" stroke-miterlimit="10" stroke-width="0"/>
    <path id="Path_4064" data-name="Path 4064" d="M-1023.032,668.351A130.562,130.562,0,0,0-1039.4,666.8" transform="translate(-177.744 -167.533)" fill="none" stroke="#c2987e" stroke-miterlimit="10" stroke-width="0"/>
    <line id="Line_721" data-name="Line 721" x1="9.912" y1="0.901" transform="translate(-1210.958 486.935)" fill="none" stroke="#caaea9" stroke-miterlimit="10" stroke-width="0"/>
    <path id="Path_4065" data-name="Path 4065" d="M-1102.935,671.012a31.973,31.973,0,0,1-10.549,15.576m-38.154,2.665q-13.526-1.438-20.287-2.7a375.831,375.831,0,0,1-38.495-9.558m146.114.444q-9.432-3.572-18.955-6.964a.983.983,0,0,1-.586-.463,1.6,1.6,0,0,1-.135-.8" transform="translate(-116.796 -168.392)" fill="none" stroke="#8f675d" stroke-miterlimit="10" stroke-width="0"/>
    <line id="Line_722" data-name="Line 722" x1="0.27" y1="12.982" transform="translate(-1201.046 487.836)" fill="none" stroke="#9b7870" stroke-miterlimit="10" stroke-width="0"/>
    <line id="Line_723" data-name="Line 723" x1="0.315" y1="20.976" transform="translate(-1201.361 466.861)" fill="none" stroke="#987c88" stroke-miterlimit="10" stroke-width="0"/>
    <path id="Path_4066" data-name="Path 4066" d="M-799.559,659.61a19.471,19.471,0,0,1-.849,11.572" transform="translate(-262.916 -164.971)" fill="none" stroke="#e2825b" stroke-miterlimit="10" stroke-width="0"/>
    <path id="Path_4067" data-name="Path 4067" d="M-800.783,677.59a2.023,2.023,0,0,1-.676.476" transform="translate(-262.541 -171.378)" fill="none" stroke="#d67148" stroke-miterlimit="10" stroke-width="0"/>
    <path id="Path_4068" data-name="Path 4068" d="M-802.1,677.15a5.611,5.611,0,0,0-1.165-2.13" transform="translate(-261.896 -170.463)" fill="none" stroke="#af513a" stroke-miterlimit="10" stroke-width="0"/>
    <path id="Path_4069" data-name="Path 4069" d="M-807.9,650.633a69.367,69.367,0,0,1-7.736-42.55c.1-.753-.039-1.255-.393-1.493" transform="translate(-257.268 -146.075)" fill="none" stroke="#e2825b" stroke-miterlimit="10" stroke-width="0"/>
    <path id="Path_4070" data-name="Path 4070" d="M-844.223,578.2q1.969-10.514,3.8-21.066,1.2-6.864.714-9.989c-1.371-8.927-10-15.717-18.118-18.523a28.8,28.8,0,0,0-20.267.3c-8.586,3.27-16.49,10.285-17.249,19.881-.251,3.205.856,7.234,1.319,10.742" transform="translate(-229.071 -117.686)" fill="none" stroke="#b95b44" stroke-miterlimit="10" stroke-width="0"/>
    <path id="Path_4071" data-name="Path 4071" d="M-897.824,577.61a35.161,35.161,0,0,0,.669,7.151q1.805,10.668,2.813,24.258a62.871,62.871,0,0,1-.013,12.847,27.032,27.032,0,0,1-11.695,19.09" transform="translate(-225.268 -135.747)" fill="none" stroke="#e2825b" stroke-miterlimit="10" stroke-width="0"/>
    <line id="Line_724" data-name="Line 724" x1="10.459" y2="1.493" transform="translate(-1141.775 505.207)" fill="none" stroke="#af513a" stroke-miterlimit="10" stroke-width="0"/>
    <path id="Path_4072" data-name="Path 4072" d="M-923.536,675.488a15.932,15.932,0,0,1-2.233-5.168" transform="translate(-218.24 -168.788)" fill="none" stroke="#d67148" stroke-miterlimit="10" stroke-width="0"/>
    <path id="Path_4073" data-name="Path 4073" d="M-925.883,662.209a35.683,35.683,0,0,1,1.519-14.649" transform="translate(-218.125 -160.676)" fill="none" stroke="#e2825b" stroke-miterlimit="10" stroke-width="0"/>
    <line id="Line_725" data-name="Line 725" x1="8.277" y2="45.362" transform="translate(-1081.571 460.515)" fill="none" stroke="#a5827b" stroke-miterlimit="10" stroke-width="0"/>
    <line id="Line_726" data-name="Line 726" x1="0.624" y2="4.177" transform="translate(-1082.195 505.877)" fill="none" stroke="#72515a" stroke-miterlimit="10" stroke-width="0"/>
    <line id="Line_727" data-name="Line 727" x1="0.94" y2="3.99" transform="translate(-1083.135 510.054)" fill="none" stroke="#997168" stroke-miterlimit="10" stroke-width="0"/>
    <path id="Path_4074" data-name="Path 4074" d="M-846.018,689.76a6.337,6.337,0,0,1-.856,3.16.6.6,0,0,1-.528.309h-24.155a.477.477,0,0,1-.457-.341l-.785-2.825" transform="translate(-237.117 -175.716)" fill="none" stroke="#a5827b" stroke-miterlimit="10" stroke-width="0"/>
    <line id="Line_728" data-name="Line 728" x1="0.708" y1="4.274" transform="translate(-1110.624 510.073)" fill="none" stroke="#997168" stroke-miterlimit="10" stroke-width="0"/>
    <line id="Line_729" data-name="Line 729" x1="0.669" y1="3.978" transform="translate(-1111.293 506.096)" fill="none" stroke="#72515a" stroke-miterlimit="10" stroke-width="0"/>
    <line id="Line_730" data-name="Line 730" x1="11.797" y1="64.233" transform="translate(-1123.091 441.863)" fill="none" stroke="#a5827b" stroke-miterlimit="10" stroke-width="0"/>
    <path id="Path_4075" data-name="Path 4075" d="M-957.784,647.742c-1.622-.187-3.939-.341-4.576,1.564a.424.424,0,0,1-.5.27l-.837-.206" transform="translate(-204.722 -160.704)" fill="none" stroke="#caaea9" stroke-miterlimit="10" stroke-width="0"/>
    <path id="Path_4076" data-name="Path 4076" d="M-922.3,678.35c2.774,3.289,26.1,3.321,31.151,3.373" transform="translate(-219.476 -171.649)" fill="none" stroke="#8f675d" stroke-miterlimit="10" stroke-width="0"/>
    <path id="Path_4077" data-name="Path 4077" d="M-837.189,849.729c-.521-.483-.553-1.12-.109-1.924a1.019,1.019,0,0,0,.122-.6q-.657-6.468-.663-12.1-.029-24.165-2.33-47.261-.3-3.08-.85-6.14c-.566-3.192-.792-5.451-4.184-5.889q-7.443-.946-14.958-1.184c-18.066-.566-36.152-1.281-54.225-1.442q-44.989-.4-89.978-.367c-4.879,0-11.933-.3-18.51-.309-19.489-.019-39.01-.219-58.492.238a110.386,110.386,0,0,1-11.489-.348q-2.192-.183-1.764-2.394" transform="translate(-158.041 -204.315)" fill="none" stroke="#efbe85" stroke-miterlimit="10" stroke-width="0"/>
    <path id="Path_4078" data-name="Path 4078" d="M-811.534,678.33c-2.021,3.1-14.153,3.3-18.2,3.366" transform="translate(-252.467 -171.642)" fill="none" stroke="#8f675d" stroke-miterlimit="10" stroke-width="0"/>
    <path id="Path_4079" data-name="Path 4079" d="M-886.026,676.558l-20.023-.888m66.151-.65-16.406,1.319" transform="translate(-225.268 -170.463)" fill="none" stroke="#9b7870" stroke-miterlimit="10" stroke-width="0"/>
    <path id="Path_4080" data-name="Path 4080" d="M-1160.441,392.585q-1.535-1.776-2.027.663a2.665,2.665,0,0,0,1.937,3.225" transform="translate(-133.859 -69.541)" fill="none" stroke="#987c88" stroke-miterlimit="10" stroke-width="0"/>
    <path id="Path_4081" data-name="Path 4081" d="M-1159.419,396.323c3.064.438,4.969-3.044,2.368-4.834a.283.283,0,0,0-.444.084c-.56.856-1.172,1.139-1.834.862" transform="translate(-134.971 -69.391)" fill="none" stroke="#8f675d" stroke-miterlimit="10" stroke-width="0"/>
    <line id="Line_731" data-name="Line 731" y1="3.887" x2="0.09" transform="translate(-1294.39 323.044)" fill="none" stroke="#bf9d96" stroke-miterlimit="10" stroke-width="0"/>
    <path id="Path_4082" data-name="Path 4082" d="M-1168.333,434.693c-.367,1.294-1.3,4.029.36,4.756a.574.574,0,0,0,.566-.045,12.868,12.868,0,0,0,3.759-3.746.277.277,0,0,1,.509.154,6.05,6.05,0,0,0,.933,3.36,1.45,1.45,0,0,0,2.1.393,9.854,9.854,0,0,0,2.928-3.488.221.221,0,0,1,.412.051c.367,1.6.56,3.939,2.529,4.286,2.581.451,5.194-3.707,5.921-5.7a.282.282,0,0,0-.135-.348.282.282,0,0,0-.36.084,9.589,9.589,0,0,1-3.739,3.083.617.617,0,0,1-.605-.045,2.634,2.634,0,0,1-1.171-2.851.559.559,0,0,1,.3-.393c2-.991,8.412-6.719,4.479-8.85a.634.634,0,0,0-.579-.013c-5.941,2.858-5.065,7.974-9.332,11.437a.485.485,0,0,1-.65-.039c-1.789-1.783-1.242-3.675.129-5.715,2.433-3.6,5.387-9.867,4.666-14.308-.045-.257-.167-.309-.38-.161-3.772,2.671-6.539,11.669-7.369,16.045a3.737,3.737,0,0,1-2.974,3.2.4.4,0,0,1-.489-.245c-1.178-2.671,1.963-4,1.249-7.189a.756.756,0,0,1,.129-.631,1.417,1.417,0,0,0-.437-2.3.609.609,0,0,0-.547-.052c-4.473,1.821-11.109,6.919-7.273,12.46q.956,1.381,2,.058l2.71-3.437a.213.213,0,0,1,.373.187m-8.869-11.772a.3.3,0,0,1,.193.515l-1.757,1.6a.229.229,0,0,0-.032.309.234.234,0,0,0,.3.071c2.414-1.319,5.3-2.459,4.975-5.715a.5.5,0,0,0-.348-.457,4.633,4.633,0,0,0-1.648-.36c-5.413-.019-13.773,2.233-12.956,9.184a.882.882,0,0,0,.245.508c2.607,2.594,7.37,1.345,9.6,4.6a.437.437,0,0,1-.084.579c-2.87,2.414-7.537,1.95-10.787,1.635q-.386-.039-.27-.405l.077-.251a.355.355,0,0,0-.405-.457,2.833,2.833,0,0,0-2.394,2.375,1.394,1.394,0,0,0,.92,1.6c4.035,1.371,12.628,2.253,14.571-2.864,1.886-4.956-5.69-7.073-8.856-7.768a.825.825,0,0,1-.476-1.307c1.834-2.381,6.327-3.443,9.133-3.392m6.829,47.892c4.2.772,9.468-12.428,5.432-15.8a.593.593,0,0,0-.56-.122c-4.441,1.229-7.26,7.788-7.588,11.733-.129,1.551.927,3.855,2.716,4.19m10.3-7.953c1.1.4,2.614-.987,3.382-3.1s.487-4.147-.613-4.548-2.614.987-3.382,3.1-.487,4.147.613,4.548m8.484-6.966a124.1,124.1,0,0,0-8.432,11.3c-1.435,2.195-2.253,2.961-1.808,5.2a.374.374,0,0,0,.689.116q4.412-7.54,9.532-14.868a2.923,2.923,0,0,0,.38-.727,3.567,3.567,0,0,0,.2-.785q.087-1.014-.56-.232m-29.092,11.791.29-.508a.276.276,0,0,0-.315-.405,2.51,2.51,0,0,0-2.1,2.323,1.263,1.263,0,0,0,1.165,1.377c4.833.747,11.244-5.336,6.443-9.313a.442.442,0,0,0-.348-.09l-3.063.534c-.148.026-.206-.032-.167-.18.772-2.806,3.031-2.491,5.323-2.523a.531.531,0,0,0,.515-.328l1.03-2.085a.322.322,0,0,0-.315-.463l-4.447.373a.7.7,0,0,0-.444.219c-1.442,1.525-3.688,4.435-2.916,6.629a.852.852,0,0,0,.972.56l3.263-.644a.981.981,0,0,1,1.03,1.467,7.069,7.069,0,0,1-5.587,3.559.333.333,0,0,1-.322-.5m-3.535-3.594c-.057-.416-1.383-.577-2.954-.357s-2.8.733-2.745,1.148,1.382.577,2.954.357,2.8-.733,2.745-1.148m28.714,8.215c1.062.3,2.413-1.165,3.018-3.286s.238-4.083-.818-4.386-2.413,1.165-3.018,3.286-.238,4.084.818,4.386" transform="translate(-123.173 -78.335)" fill="none" stroke="#af866b" stroke-miterlimit="10" stroke-width="0"/>
    <path id="Path_4083" data-name="Path 4083" d="M-1146.5,422.767l-3.74,8.9a.092.092,0,0,0,.052.122l.032.019c.573.238,1.866-1.558,2.9-4.01l.084-.2c1.03-2.452,1.4-4.634.837-4.872l-.032-.013a.1.1,0,0,0-.129.051m3.412,12.211c.34.236,1.382-.684,2.32-2.054s1.419-2.672,1.077-2.905-1.383.684-2.32,2.054-1.419,2.672-1.077,2.905m-13.073-3.838c-1.609.785-7.228,4.222-5.477,6.816a.491.491,0,0,0,.734.09,21.361,21.361,0,0,0,4.982-6.668c.148-.3.064-.386-.238-.238" transform="translate(-134.063 -80.543)" fill="none" stroke="#a87f69" stroke-miterlimit="10" stroke-width="0"/>
    <path id="Path_4084" data-name="Path 4084" d="M-1145.365,552.668c25.507,21.484,60.313-16.605,74.383-34.067a236.775,236.775,0,0,1,16.142-18.658q9.76-9.847,19.56-19.656c4.859-4.859,12.048-13.651,13.156-20.782,1.036-6.687-6.436-12.126-11.952-13.992-26.318-8.9-59.754,36.12-73.315,53.253q-12.155,15.37-27.785,31.75a117.088,117.088,0,0,1-16.721,14.494.547.547,0,0,0-.116.785,47.816,47.816,0,0,0,6.649,6.874" transform="translate(-137.569 -88.259)" fill="none" stroke="#e27b4e" stroke-miterlimit="10" stroke-width="0"/>
    <path id="Path_4085" data-name="Path 4085" d="M-956.808,469.011c.431,17.017.476,33.983-10.079,48.889q-3.524,4.982-7.286,9.815a.293.293,0,0,0,.341.451c4.113-1.622,7.524-4.743,10.89-7.923,7.807-7.369,10.723-15.769,10.761-26.646.032-7.794-1.036-17.474-4.184-24.683a.231.231,0,0,0-.444.1m75.355,29.761c.837,8.978,10.993,5.645,11.45-.908a18.549,18.549,0,0,0-1.075-5.818,130.279,130.279,0,0,0-7.46-19.1,12.965,12.965,0,0,0-2.5-3.727q-1.516-1.438-1.828.631a37.907,37.907,0,0,0-.328,8.489q.792,10.224,1.738,20.428m13.87,46.244a115.635,115.635,0,0,0-1.912,12.969,74.408,74.408,0,0,0,1.448,24.792c.335,1.461.547,2.3.631,2.51q1.448,3.6.669-.206c-2.819-13.728-1.86-25.944-.193-41a.07.07,0,0,0-.045-.084l-.193-.058c-.174-.051-.264.013-.277.193a5.108,5.108,0,0,1-.129.882" transform="translate(-200.967 -96.911)" fill="none" stroke="#f86e3d" stroke-miterlimit="10" stroke-width="0"/>
    <path id="Path_4086" data-name="Path 4086" d="M-1159.551,491.317c1.046.594,3.292-1.388,5.011-4.427s2.265-5.979,1.213-6.575-3.293,1.388-5.011,4.427-2.266,5.979-1.213,6.575" transform="translate(-134.733 -101.036)" fill="none" stroke="#af866b" stroke-miterlimit="10" stroke-width="0"/>
    <path id="Path_4087" data-name="Path 4087" d="M-1141.659,483.254c.534.254,1.474-.6,2.1-1.911s.689-2.578.155-2.833-1.474.6-2.1,1.912-.69,2.578-.156,2.833m4.214,9.606c.445.18,1.256-.76,1.809-2.109s.645-2.59.2-2.771-1.257.76-1.809,2.109-.645,2.59-.2,2.771" transform="translate(-141.172 -100.414)" fill="none" stroke="#a87f69" stroke-miterlimit="10" stroke-width="0"/>
    <path id="Path_4088" data-name="Path 4088" d="M-847.558,534.814c-.161,35.187.077,65.4.348,98.345a1.113,1.113,0,0,0,.972,1.2c1.178.257,4.557.772,5.213-.946a75.279,75.279,0,0,0,3.334-11.849c4.776-23.473,8.084-45.7,13.452-70.6,1.287-5.966-6.578-12.467-11.173-15.749-2.188-1.564-8.3-5.361-11.244-3.784a.907.907,0,0,0-.431.5,8.432,8.432,0,0,0-.47,2.9" transform="translate(-246.094 -119.153)" fill="none" stroke="#82636b" stroke-miterlimit="10" stroke-width="0"/>
    <path id="Path_4089" data-name="Path 4089" d="M-1176.156,207.013a45.916,45.916,0,0,1-5.574-2.04c-14.655-6.513-29.149-4.293-41.224,6.417-15.923,11.772-23.634,35.206-26.253,53.858l-6.732.1c3.27-24.419,14.076-53.266,37.665-64.677,14.23-6.887,30.585-4.808,42.118,6.346Z" transform="translate(-100.573)" fill="#b6876b"/>
    <path id="Path_4090" data-name="Path 4090" d="M-1167.937,209.566q5.127,4.46,8.328,7.8c12.422,12.937,18.3,31.911,18.987,50.061l.09,9.558-6.687.367v-.084l-.039-9.822a83.623,83.623,0,0,0-7.318-31.113c-.277-.618-.6-1.313-.978-2.085a40.964,40.964,0,0,0-12.28-14.88,30.508,30.508,0,0,0-4.042-3.572q-16.808-10.011-32.38-1.21c-17.88,10.111-22.211,34.562-22.044,53.2l.483,9.332c-.122.367-.5.438-1.12.225-1.345-.457-4.016.045-5.484.219q-.184-.029-.116-.309l-.309-9.442a98.776,98.776,0,0,1,3.334-28.055c2.143-8.02,6.887-18.459,13.156-24.065a13.4,13.4,0,0,0,1.622-1.751c12.074-10.71,26.568-12.93,41.224-6.417a45.914,45.914,0,0,0,5.574,2.04Z" transform="translate(-108.793 -2.553)" fill="#ce9b78"/>
    <path id="Path_4091" data-name="Path 4091" d="M-1118.56,244.916a86.452,86.452,0,0,1-2.085,31.048l-6.848.045a76.309,76.309,0,0,0,2.407-28.783,49.33,49.33,0,0,0-6.732-19.276,40.964,40.964,0,0,1,12.28,14.88c.38.772.7,1.467.978,2.085Z" transform="translate(-144.807 -11.135)" fill="#b6876b"/>
    <path id="Path_4092" data-name="Path 4092" d="M-1011.539,312.206l-77.917.064c0-.077,0-.154.006-.232l-.09-9.558,58.724-.251a.514.514,0,0,1,.515.328l1.841,3.965a.743.743,0,0,0,.463.406l16.457,5.278Z" transform="translate(-159.875 -37.607)" fill="#7c747a"/>
    <path id="Path_4093" data-name="Path 4093" d="M-1153.02,302.55l9.4.064.039,9.822-38.553.013-.953-.94a.755.755,0,0,0-.579-.219q-1.062.048-.85.946l-37.446.193c-.1-.2-.174-.251-.219-.142l-.483-9.332,62.792-.36,6.848-.045Z" transform="translate(-112.433 -37.721)" fill="#7c747a"/>
    <path id="Path_4094" data-name="Path 4094" d="M-1303.937,303.3l6.732-.1,8.142.013.309,9.442-82.982.006a22.167,22.167,0,0,0-9.905-5.889q-4.316-1.216-8.657-2.317a.385.385,0,0,1-.322-.425l.013-.354,86.67-.38Z" transform="translate(-52.576 -37.953)" fill="#7c747a"/>
    <path id="Path_4095" data-name="Path 4095" d="M-1406.861,303.94l-.013.354a.385.385,0,0,0,.322.425q4.335,1.1,8.657,2.317a22.166,22.166,0,0,1,9.905,5.889c.27-.212.29-.129.064.257a.953.953,0,0,0-.122.457l-4.679,328.278-30.347-17.062-12.319-6.951a1.641,1.641,0,0,1-.83-1.57l2.446-28.86,23.968-283.1a.374.374,0,0,1,.418-.386l2.53-.045Z" transform="translate(-36.321 -38.216)" fill="#a0909c"/>
    <path id="Path_4096" data-name="Path 4096" d="M-1161.164,317.288a24.7,24.7,0,0,1,1.661,5.13,147.508,147.508,0,0,1,1.789,36.487l-.753,4.492a.464.464,0,0,0,.206.489,3.29,3.29,0,0,1,1.036,4.615c-1.841,3.688-7.4,1.712-6.507-2.491q.579-2.732,3.932-2.748a.342.342,0,0,0,.38-.328l.5-3.887a102.675,102.675,0,0,0,.238-15.3c-.161-2.858-.579-6.745-.258-9.583a.775.775,0,0,0-.219-.682c-.245-.245-.367-.193-.373.154-.142,8.631-2.04,16.67-2.909,25.191a2.03,2.03,0,0,1-1.216.052c1.764-14.584,5.213-27.206.94-40.966a1.281,1.281,0,0,0-.83-.837q-.212-.9.85-.946a.756.756,0,0,1,.579.219l.953.94m.264,48.316q-1.535-1.776-2.027.663a2.665,2.665,0,0,0,1.937,3.225c3.064.438,4.969-3.044,2.369-4.834a.283.283,0,0,0-.444.084c-.56.856-1.171,1.139-1.834.862Z" transform="translate(-133.399 -42.56)" fill="#68464f"/>
    <path id="Path_4097" data-name="Path 4097" d="M-1111.005,317.629q1.419-.724,1.442,1.435c.006.566.006.862.006.888q1.583,39.66,2.871,79.912a26.727,26.727,0,0,0-20.731-1.216c-11.032,3.875-20.635,11.141-29.014,19.3a183.749,183.749,0,0,0-14.4,15.363c-13.967,17.268-27.669,34.7-43.013,50.788-8.328,8.734-16.638,13.909-25.983,20.017-7.5,4.9-14.874,6.629-22.739,9.416-8.946,3.173-16.419,8.116-18.092,18.2q-32.805,1.12-65.675.624c-2.459-.039-4.068-1.6-6.372.476l.521,39.467a.5.5,0,0,0,.315.476l.946.418.7,73.6-13.922.1-4.5-.167,4.679-328.277a.953.953,0,0,1,.122-.457c.225-.386.206-.47-.064-.257l82.982-.006q-.068.28.116.309l2.072,18.961q-.792,3.659,1.661,4.994c4.621,2.523,9.139-2.825,5.464-6.706a138.527,138.527,0,0,1-2.568-17.069.6.6,0,0,1,.193-.483l37.446-.193a1.281,1.281,0,0,1,.83.837c4.274,13.761.824,26.382-.94,40.966l-9.545.18a5.333,5.333,0,0,0-5.014,1.937q-5.4,6.131-10.626,12.222a3.587,3.587,0,0,0-.837,1.924,43.128,43.128,0,0,0-.225,4.557q-.116,32.931.129,65.881c.058,7.009,2.774,12.029,10.884,11.4a32.909,32.909,0,0,1,4.4.109q14.665.01,29.336-.013c8.753-.013,10.748-4.241,10.748-12.589q0-34.234.006-68.475c0-2.761-1.57-3.669-3.141-5.542-2.755-3.3-5.728-6.449-8.425-9.777-2.195-2.71-8.515-1.718-11.752-1.8a147.514,147.514,0,0,0-1.789-36.487,24.689,24.689,0,0,0-1.661-5.13l38.553-.013v.084a67.292,67.292,0,0,1-2.111,17.571q-2.945,6.3,2.626,7.035c3.868.508,5.773-2.439,4.628-6.05l1.538-18.691,77.916-.064Z" transform="translate(-60.409 -43.03)" fill="#c7b2c1"/>
    <path id="Path_4098" data-name="Path 4098" d="M-1094.271,317.47c-.006.077-.006.154-.006.232l-1.538,18.691a2.322,2.322,0,0,0-.5,1.255,1.126,1.126,0,0,1-1.281,1.056l-4.447-.624a.441.441,0,0,1-.373-.322l-.656-2.349a67.292,67.292,0,0,0,2.111-17.571l6.687-.367Z" transform="translate(-155.053 -43.038)" fill="#cda991"/>
    <path id="Path_4099" data-name="Path 4099" d="M-1225.565,317.649c.045-.109.122-.058.219.142a.6.6,0,0,0-.193.483,138.55,138.55,0,0,0,2.568,17.069q.348,2.954-.972,3.1-2.413.261-4.891.412a.328.328,0,0,1-.393-.322c-.109-.946-.4-1.435-.869-1.474l-2.073-18.961c1.467-.174,4.138-.676,5.484-.219.624.212,1,.142,1.12-.225Z" transform="translate(-109.044 -43.082)" fill="#cda991"/>
    <path id="Path_4100" data-name="Path 4100" d="M-1158.148,368.571l-3.521-.219c.869-8.522,2.768-16.56,2.909-25.191.006-.348.129-.4.373-.154a.775.775,0,0,1,.219.682c-.322,2.838.1,6.726.258,9.583a102.675,102.675,0,0,1-.238,15.3Z" transform="translate(-134.169 -52.085)" fill="#c7b2c1"/>
    <path id="Path_4101" data-name="Path 4101" d="M-1221.931,345.17c3.675,3.881-.843,9.229-5.464,6.707q-2.452-1.342-1.661-4.994c.47.039.759.528.869,1.474a.328.328,0,0,0,.393.322q2.481-.154,4.891-.412,1.323-.145.972-3.1Z" transform="translate(-110.085 -52.91)" fill="#b6876b"/>
    <path id="Path_4102" data-name="Path 4102" d="M-1103.633,345.34l.656,2.349a.442.442,0,0,0,.373.322l4.448.624a1.126,1.126,0,0,0,1.281-1.056,2.32,2.32,0,0,1,.5-1.255c1.146,3.611-.76,6.558-4.628,6.05q-5.57-.724-2.626-7.035Z" transform="translate(-154.489 -52.971)" fill="#b6876b"/>
    <path id="Path_4103" data-name="Path 4103" d="M-1171.36,382.668l-.5,3.887a.343.343,0,0,1-.38.328q-3.35.019-3.932,2.748c-.895,4.2,4.666,6.179,6.507,2.491a3.29,3.29,0,0,0-1.036-4.615.464.464,0,0,1-.206-.489l.753-4.492c3.237.077,9.558-.914,11.752,1.8,2.7,3.328,5.67,6.481,8.425,9.777,1.571,1.873,3.141,2.78,3.141,5.542q-.01,34.244-.006,68.475c0,8.348-2,12.576-10.748,12.589q-14.665.029-29.336.013a32.914,32.914,0,0,0-4.4-.109c-7.723-2.259-7.543-8.586-7.35-15.267.592-20.943.193-42.028.18-62.984,0-1.609-.592-3.662.676-5.284q3.06-3.91,12.184-14.391l9.545-.18a2.03,2.03,0,0,0,1.216-.051l3.521.219m.811,39.872c-.367,1.294-1.3,4.029.36,4.756a.575.575,0,0,0,.566-.045,12.869,12.869,0,0,0,3.759-3.746.277.277,0,0,1,.509.154,6.051,6.051,0,0,0,.933,3.36,1.45,1.45,0,0,0,2.1.393,9.854,9.854,0,0,0,2.928-3.488.221.221,0,0,1,.412.052c.367,1.6.56,3.939,2.529,4.286,2.581.451,5.194-3.707,5.921-5.7a.282.282,0,0,0-.135-.348.282.282,0,0,0-.36.084,9.589,9.589,0,0,1-3.739,3.083.616.616,0,0,1-.6-.045,2.633,2.633,0,0,1-1.171-2.851.559.559,0,0,1,.3-.393c2-.991,8.412-6.719,4.48-8.85a.634.634,0,0,0-.579-.013c-5.941,2.858-5.065,7.974-9.332,11.437a.484.484,0,0,1-.65-.039c-1.789-1.783-1.242-3.675.129-5.715,2.433-3.6,5.387-9.867,4.666-14.308-.045-.257-.167-.309-.38-.161-3.772,2.671-6.539,11.669-7.369,16.045a3.737,3.737,0,0,1-2.974,3.2.4.4,0,0,1-.489-.245c-1.178-2.671,1.963-4,1.249-7.189a.756.756,0,0,1,.129-.631,1.417,1.417,0,0,0-.438-2.3.608.608,0,0,0-.547-.052c-4.473,1.821-11.109,6.919-7.273,12.46q.956,1.381,2,.058l2.71-3.437a.213.213,0,0,1,.373.187m-8.869-11.772a.3.3,0,0,1,.193.515l-1.757,1.6a.229.229,0,0,0-.032.309.234.234,0,0,0,.3.071c2.414-1.319,5.3-2.459,4.975-5.715a.5.5,0,0,0-.348-.457,4.633,4.633,0,0,0-1.648-.36c-5.413-.019-13.773,2.233-12.956,9.184a.881.881,0,0,0,.245.508c2.607,2.594,7.369,1.345,9.6,4.6a.437.437,0,0,1-.084.579c-2.871,2.414-7.537,1.95-10.787,1.635q-.386-.039-.27-.405l.077-.251a.355.355,0,0,0-.405-.457,2.833,2.833,0,0,0-2.394,2.375,1.394,1.394,0,0,0,.92,1.6c4.035,1.371,12.628,2.253,14.571-2.864,1.886-4.956-5.69-7.073-8.856-7.768a.825.825,0,0,1-.476-1.307c1.834-2.381,6.327-3.443,9.133-3.392m6.829,47.892c4.2.772,9.468-12.428,5.432-15.8a.593.593,0,0,0-.56-.122c-4.441,1.229-7.26,7.788-7.588,11.733-.129,1.551.927,3.855,2.716,4.19m10.3-7.953c1.1.4,2.614-.987,3.382-3.1s.487-4.147-.613-4.548-2.614.987-3.382,3.1-.487,4.147.613,4.548m8.484-6.966a124.071,124.071,0,0,0-8.431,11.3c-1.435,2.195-2.253,2.961-1.809,5.2a.374.374,0,0,0,.689.116q4.412-7.54,9.532-14.868a2.927,2.927,0,0,0,.38-.727,3.559,3.559,0,0,0,.2-.785q.087-1.014-.56-.232m-29.092,11.791.29-.508a.276.276,0,0,0-.315-.405,2.51,2.51,0,0,0-2.1,2.323,1.263,1.263,0,0,0,1.165,1.377c4.834.747,11.244-5.336,6.443-9.313a.442.442,0,0,0-.348-.09l-3.064.534c-.148.026-.206-.032-.167-.18.772-2.806,3.031-2.491,5.323-2.523a.532.532,0,0,0,.515-.328l1.03-2.085a.322.322,0,0,0-.315-.463l-4.447.373a.7.7,0,0,0-.444.219c-1.442,1.525-3.688,4.435-2.916,6.629a.852.852,0,0,0,.972.56l3.263-.644a.981.981,0,0,1,1.03,1.467,7.069,7.069,0,0,1-5.587,3.559.333.333,0,0,1-.322-.5m-3.535-3.594c-.057-.416-1.382-.577-2.954-.357s-2.8.733-2.745,1.148,1.382.577,2.954.357,2.8-.733,2.745-1.148m28.714,8.215c1.061.3,2.413-1.165,3.018-3.286s.238-4.083-.818-4.386-2.413,1.165-3.018,3.286-.238,4.084.818,4.386Z" transform="translate(-120.957 -66.182)" fill="#f5c587"/>
    <path id="Path_4104" data-name="Path 4104" d="M-1187.657,382.794q-9.123,10.475-12.184,14.391c-1.268,1.622-.676,3.675-.676,5.284.013,20.956.412,42.041-.18,62.984-.193,6.681-.373,13.008,7.35,15.267-8.109.624-10.826-4.4-10.884-11.4q-.241-32.95-.129-65.881a43.093,43.093,0,0,1,.225-4.557,3.587,3.587,0,0,1,.837-1.924q5.223-6.092,10.626-12.222a5.333,5.333,0,0,1,5.014-1.937Z" transform="translate(-118.942 -66.295)" fill="#a0909c"/>
    <path id="Path_4105" data-name="Path 4105" d="M-1159.419,396.323l.09-3.887c.663.277,1.274-.006,1.834-.862a.283.283,0,0,1,.444-.084c2.6,1.789.7,5.271-2.368,4.834Z" transform="translate(-134.971 -69.391)" fill="#b6876b"/>
    <path id="Path_4106" data-name="Path 4106" d="M-1160.441,392.585l-.09,3.887a2.665,2.665,0,0,1-1.937-3.225q.492-2.443,2.027-.663Z" transform="translate(-133.859 -69.541)" fill="#c7b2c1"/>
    <path id="Path_4107" data-name="Path 4107" d="M-1158.387,434.693a.213.213,0,0,0-.373-.187l-2.709,3.437q-1.043,1.323-2-.058c-3.836-5.542,2.8-10.639,7.273-12.46a.609.609,0,0,1,.547.052,1.417,1.417,0,0,1,.438,2.3.756.756,0,0,0-.129.631c.714,3.192-2.426,4.518-1.249,7.189a.4.4,0,0,0,.489.245,3.737,3.737,0,0,0,2.974-3.2c.83-4.377,3.6-13.374,7.369-16.045.212-.148.335-.1.38.161.721,4.441-2.233,10.71-4.666,14.308-1.371,2.04-1.918,3.933-.129,5.715a.484.484,0,0,0,.65.039c4.267-3.463,3.392-8.579,9.333-11.437a.634.634,0,0,1,.579.013c3.932,2.13-2.478,7.859-4.48,8.85a.559.559,0,0,0-.3.393,2.633,2.633,0,0,0,1.171,2.851.617.617,0,0,0,.605.045,9.589,9.589,0,0,0,3.739-3.083.282.282,0,0,1,.361-.084.282.282,0,0,1,.135.348c-.727,2-3.34,6.153-5.921,5.7-1.97-.348-2.163-2.684-2.53-4.286a.22.22,0,0,0-.412-.051,9.856,9.856,0,0,1-2.928,3.488,1.45,1.45,0,0,1-2.1-.393,6.051,6.051,0,0,1-.933-3.36.277.277,0,0,0-.509-.154,12.868,12.868,0,0,1-3.759,3.746.574.574,0,0,1-.566.045c-1.661-.727-.727-3.463-.36-4.756m10.948-14.134-3.739,8.9a.092.092,0,0,0,.051.122l.032.019c.573.238,1.867-1.558,2.9-4.01l.084-.2c1.03-2.452,1.4-4.634.837-4.872l-.032-.013a.1.1,0,0,0-.129.051m3.413,12.211c.34.236,1.382-.684,2.32-2.054s1.418-2.672,1.077-2.905-1.383.684-2.32,2.054-1.419,2.672-1.077,2.905m-13.073-3.838c-1.609.785-7.228,4.222-5.477,6.816a.491.491,0,0,0,.734.09,21.361,21.361,0,0,0,4.982-6.668c.148-.3.064-.386-.238-.238Z" transform="translate(-133.12 -78.335)" fill="#68464f"/>
    <path id="Path_4108" data-name="Path 4108" d="M-1177.2,424.235c-2.806-.051-7.3,1.01-9.133,3.392a.825.825,0,0,0,.476,1.307c3.167.7,10.742,2.813,8.856,7.768-1.944,5.117-10.536,4.235-14.571,2.864a1.394,1.394,0,0,1-.92-1.6,2.833,2.833,0,0,1,2.394-2.375.355.355,0,0,1,.405.457l-.077.251q-.116.367.27.406c3.25.315,7.917.779,10.787-1.635a.437.437,0,0,0,.084-.579c-2.227-3.25-6.99-2-9.6-4.6a.882.882,0,0,1-.245-.508c-.817-6.951,7.543-9.2,12.956-9.184a4.634,4.634,0,0,1,1.648.36.5.5,0,0,1,.348.457c.322,3.257-2.562,4.4-4.975,5.715a.234.234,0,0,1-.3-.071.229.229,0,0,1,.032-.309l1.757-1.6a.3.3,0,0,0-.193-.515Z" transform="translate(-123.173 -79.649)" fill="#68464f"/>
    <path id="Path_4109" data-name="Path 4109" d="M-1140,422.767a.1.1,0,0,1,.129-.051l.032.013c.566.238.193,2.42-.837,4.872l-.084.2c-1.03,2.452-2.323,4.248-2.9,4.01l-.032-.019a.092.092,0,0,1-.051-.122l3.739-8.9Z" transform="translate(-140.555 -80.543)" fill="#e8b782"/>
    <path id="Path_4110" data-name="Path 4110" d="M-1132.688,439.006c-.342-.234.14-1.534,1.077-2.905s1.979-2.291,2.32-2.054-.141,1.534-1.077,2.905-1.98,2.291-2.32,2.054Z" transform="translate(-144.458 -84.571)" fill="#e8b782"/>
    <path id="Path_4111" data-name="Path 4111" d="M-1161.634,442.586c-1.751-2.594,3.868-6.031,5.477-6.816.3-.148.386-.064.238.238a21.361,21.361,0,0,1-4.982,6.668.491.491,0,0,1-.734-.09Z" transform="translate(-134.063 -85.173)" fill="#e8b782"/>
    <path id="Path_4112" data-name="Path 4112" d="M-1057.98,443.974A26.481,26.481,0,0,1-1046.89,456c6.256,13.419,7.4,34.62,1.519,47.962a39.21,39.21,0,0,1-5.87,6.359q-9.674,7.984-18.214,15.64c-9.583,8.412-16.908,16.181-22.791,28.036a157.13,157.13,0,0,0-9.6,20.074,68.006,68.006,0,0,1-6.185,12.332l-2.587,3.353c-8.064,9.616-17.905,11.521-30.25,11.141a261.448,261.448,0,0,1-49.887-6.179q-20.689-4.7-26.665-6.481c-5.265-1.57-10.6-3.36-14.552-7.472l.019-4.93c1.673-10.085,9.146-15.028,18.092-18.2,7.865-2.787,15.241-4.512,22.739-9.416,9.345-6.108,17.655-11.283,25.983-20.016,15.344-16.09,29.047-33.52,43.013-50.788a183.724,183.724,0,0,1,14.4-15.363c8.38-8.155,17.983-15.421,29.014-19.3a26.727,26.727,0,0,1,20.731,1.216m-115.839,107.574c25.507,21.484,60.313-16.605,74.383-34.067a236.8,236.8,0,0,1,16.142-18.659q9.76-9.847,19.56-19.656c4.859-4.859,12.048-13.651,13.156-20.782,1.036-6.687-6.436-12.126-11.952-13.992-26.318-8.9-59.753,36.12-73.315,53.253q-12.155,15.37-27.785,31.75a117.084,117.084,0,0,1-16.721,14.494.547.547,0,0,0-.116.785,47.825,47.825,0,0,0,6.648,6.874m125.158-92.308c.431,17.017.476,33.983-10.079,48.889q-3.524,4.982-7.286,9.815a.293.293,0,0,0,.341.451c4.113-1.622,7.524-4.744,10.89-7.923,7.807-7.369,10.723-15.769,10.761-26.646.032-7.794-1.036-17.474-4.184-24.683a.231.231,0,0,0-.444.1Z" transform="translate(-109.116 -87.139)" fill="#f65b24"/>
    <path id="Path_4113" data-name="Path 4113" d="M-1145.365,552.668a47.816,47.816,0,0,1-6.649-6.874.547.547,0,0,1,.116-.785,117.088,117.088,0,0,0,16.721-14.494q15.63-16.383,27.785-31.75c13.561-17.133,47-62.154,73.315-53.253,5.516,1.866,12.988,7.305,11.952,13.992-1.107,7.131-8.3,15.923-13.156,20.782q-9.8,9.809-19.56,19.656a236.775,236.775,0,0,0-16.142,18.658c-14.07,17.461-48.876,55.551-74.383,34.067Z" transform="translate(-137.569 -88.259)" fill="#ce9b78"/>
    <path id="Path_4114" data-name="Path 4114" d="M-844.35,585.448a19.471,19.471,0,0,1-.85,11.572,2.024,2.024,0,0,1-.676.476,5.611,5.611,0,0,0-1.165-2.13,69.367,69.367,0,0,1-7.736-42.55c.1-.753-.039-1.255-.393-1.493q1.969-10.514,3.8-21.066,1.2-6.864.714-9.989c-1.371-8.927-10-15.717-18.118-18.523a28.8,28.8,0,0,0-20.268.3c-8.586,3.27-16.49,10.285-17.249,19.881-.251,3.205.856,7.234,1.319,10.742a35.161,35.161,0,0,0,.669,7.151q1.805,10.668,2.813,24.258a62.871,62.871,0,0,1-.013,12.847,27.032,27.032,0,0,1-11.695,19.09l-10.459,1.493a15.932,15.932,0,0,1-2.233-5.168,35.683,35.683,0,0,1,1.519-14.649,98.976,98.976,0,0,0,8.206-30.707q1.67-17.127,3.437-41.018c.953-12.937,3.038-24.007,8.18-35.862,5.439-12.544,11.791-18.9,26.234-18.581,10.317.225,17.461,6.282,22.617,14.642,9.905,16.052,12.151,35.109,8.953,53.562a26.347,26.347,0,0,0-.412,5.394q.647,19.608-.077,39.216c-.154,4.106-.47,8.245.5,11.92q1.274,4.817,2.375,9.191M-864.3,492.67c.837,8.978,10.993,5.644,11.45-.908a18.549,18.549,0,0,0-1.075-5.818,130.282,130.282,0,0,0-7.46-19.1,12.964,12.964,0,0,0-2.5-3.727q-1.516-1.438-1.828.631a37.907,37.907,0,0,0-.328,8.489q.792,10.224,1.738,20.428m13.87,46.244a115.635,115.635,0,0,0-1.912,12.969,74.408,74.408,0,0,0,1.448,24.792c.335,1.461.547,2.3.631,2.51q1.448,3.6.669-.206c-2.819-13.728-1.86-25.944-.193-41a.07.07,0,0,0-.045-.084l-.193-.058c-.174-.052-.264.013-.277.193a5.109,5.109,0,0,1-.129.882Z" transform="translate(-218.125 -90.808)" fill="#f65b24"/>
    <path id="Path_4115" data-name="Path 4115" d="M-819.649,497.865c-.457,6.552-10.613,9.886-11.45.908q-.946-10.2-1.738-20.428a37.907,37.907,0,0,1,.328-8.489q.309-2.066,1.828-.631a12.965,12.965,0,0,1,2.5,3.727,130.293,130.293,0,0,1,7.46,19.1,18.55,18.55,0,0,1,1.075,5.818Z" transform="translate(-251.321 -96.911)" fill="#f98055"/>
    <path id="Path_4116" data-name="Path 4116" d="M-966.887,517.978c10.555-14.906,10.51-31.872,10.079-48.889a.231.231,0,0,1,.444-.1c3.147,7.208,4.216,16.888,4.184,24.683-.039,10.877-2.954,19.276-10.761,26.646-3.366,3.179-6.777,6.3-10.89,7.923a.293.293,0,0,1-.341-.451q3.755-4.837,7.286-9.815Z" transform="translate(-200.967 -96.988)" fill="#f98055"/>
    <path id="Path_4117" data-name="Path 4117" d="M-1159.619,492.049c-1.789-.335-2.845-2.639-2.716-4.19.328-3.945,3.147-10.5,7.588-11.733a.593.593,0,0,1,.56.122c4.035,3.373-1.236,16.573-5.432,15.8m-.737-2.2c1.046.594,3.292-1.388,5.011-4.427s2.265-5.979,1.213-6.575-3.293,1.388-5.011,4.427-2.266,5.979-1.213,6.575Z" transform="translate(-133.928 -99.572)" fill="#68464f"/>
    <path id="Path_4118" data-name="Path 4118" d="M-1142.688,484.249c-1.1-.4-1.377-2.435-.613-4.548s2.28-3.5,3.382-3.1,1.377,2.435.613,4.548-2.28,3.5-3.382,3.1m.419-1.684c.534.254,1.474-.6,2.1-1.912s.689-2.578.155-2.833-1.474.6-2.1,1.912-.69,2.578-.156,2.833Z" transform="translate(-140.561 -99.725)" fill="#68464f"/>
    <path id="Path_4119" data-name="Path 4119" d="M-1134.666,477.511q.647-.782.56.232a3.559,3.559,0,0,1-.2.785,2.927,2.927,0,0,1-.38.727q-5.127,7.328-9.532,14.868a.374.374,0,0,1-.689-.116c-.444-2.24.373-3.006,1.809-5.2a124.071,124.071,0,0,1,8.431-11.3Z" transform="translate(-140.1 -99.953)" fill="#68464f"/>
    <path id="Path_4120" data-name="Path 4120" d="M-1174.987,490.064a7.069,7.069,0,0,0,5.587-3.559.981.981,0,0,0-1.03-1.467l-3.263.644a.852.852,0,0,1-.972-.56c-.772-2.195,1.474-5.1,2.916-6.629a.7.7,0,0,1,.444-.219l4.447-.373a.322.322,0,0,1,.315.463l-1.03,2.085a.532.532,0,0,1-.515.328c-2.291.032-4.55-.283-5.323,2.523-.039.148.019.206.167.18l3.064-.534a.442.442,0,0,1,.348.09c4.8,3.978-1.609,10.06-6.443,9.313a1.263,1.263,0,0,1-1.165-1.377,2.51,2.51,0,0,1,2.1-2.323.276.276,0,0,1,.315.405l-.29.508a.333.333,0,0,0,.322.5Z" transform="translate(-128.549 -100.212)" fill="#68464f"/>
    <path id="Path_4121" data-name="Path 4121" d="M-1141.659,483.254c-.534-.255-.47-1.523.156-2.833s1.563-2.165,2.1-1.912.47,1.523-.155,2.833-1.563,2.165-2.1,1.911Z" transform="translate(-141.172 -100.414)" fill="#e8b782"/>
    <path id="Path_4122" data-name="Path 4122" d="M-1159.551,491.317c-1.052-.6-.505-3.538,1.213-6.575s3.965-5.021,5.011-4.427.5,3.538-1.213,6.575-3.965,5.021-5.011,4.427Z" transform="translate(-134.733 -101.036)" fill="#f5c587"/>
    <path id="Path_4123" data-name="Path 4123" d="M-1182.778,490.184c.059.414-1.17.929-2.745,1.148s-2.9.059-2.954-.357,1.169-.929,2.745-1.148,2.9-.059,2.954.357Z" transform="translate(-124.615 -104.428)" fill="#68464f"/>
    <path id="Path_4124" data-name="Path 4124" d="M-1135.623,498.93c-1.056-.3-1.423-2.266-.818-4.386s1.957-3.588,3.018-3.286,1.423,2.266.818,4.386-1.957,3.589-3.018,3.286m.063-1.525c.445.18,1.256-.76,1.809-2.109s.645-2.59.2-2.771-1.257.76-1.809,2.109-.645,2.59-.2,2.771Z" transform="translate(-143.056 -104.959)" fill="#68464f"/>
    <path id="Path_4125" data-name="Path 4125" d="M-1135.067,498.117c-.443-.181-.353-1.423.2-2.771s1.363-2.289,1.809-2.109.352,1.423-.2,2.771-1.363,2.289-1.809,2.109Z" transform="translate(-143.55 -105.671)" fill="#e8b782"/>
    <path id="Path_4126" data-name="Path 4126" d="M-844.223,578.2l-8.277,45.362-.624,4.177-.94,3.99a6.337,6.337,0,0,1-.856,3.16.6.6,0,0,1-.528.309H-879.6a.477.477,0,0,1-.457-.341l-.785-2.825-.708-4.274-.669-3.978-11.8-64.233c-.464-3.508-1.57-7.537-1.319-10.742.76-9.6,8.663-16.612,17.249-19.881a28.8,28.8,0,0,1,20.267-.3c8.123,2.806,16.747,9.6,18.118,18.523q.483,3.118-.714,9.989-1.834,10.552-3.8,21.066m-20.358-44.854c-.161,35.187.077,65.4.348,98.345a1.113,1.113,0,0,0,.972,1.2c1.178.257,4.557.772,5.213-.946a75.279,75.279,0,0,0,3.334-11.849c4.776-23.473,8.084-45.7,13.452-70.6,1.287-5.966-6.578-12.467-11.173-15.749-2.188-1.564-8.3-5.361-11.244-3.784a.907.907,0,0,0-.431.5,8.432,8.432,0,0,0-.47,2.9Z" transform="translate(-229.071 -117.686)" fill="#7c5b64"/>
    <path id="Path_4127" data-name="Path 4127" d="M-847.21,633.159c-.27-32.94-.508-63.158-.348-98.345a8.432,8.432,0,0,1,.47-2.9.907.907,0,0,1,.431-.5c2.948-1.577,9.056,2.221,11.244,3.784,4.6,3.282,12.46,9.783,11.173,15.749-5.368,24.9-8.676,47.132-13.452,70.6a75.279,75.279,0,0,1-3.334,11.849c-.656,1.718-4.036,1.2-5.213.946a1.113,1.113,0,0,1-.972-1.2Z" transform="translate(-246.094 -119.153)" fill="#886a72"/>
    <path id="Path_4128" data-name="Path 4128" d="M-956.785,538.71l-9.114,48.9-4.821,22.939q-1.052,5.194-2.175,10.349c-1.01,4.615-1.429,7.569-5.664,9.114a32.541,32.541,0,0,1-4.743,1.268c-.032-.122-.064-.238-.1-.354l.689-.058a.34.34,0,0,0,.348-.367l1.493-69.794q8.544-7.656,18.214-15.64a39.207,39.207,0,0,0,5.87-6.359Z" transform="translate(-197.701 -121.884)" fill="#7c5b64"/>
    <path id="Path_4129" data-name="Path 4129" d="M-992.089,572.89l-1.493,69.794a.34.34,0,0,1-.348.367l-.689.058q-9.432-3.572-18.954-6.964a.983.983,0,0,1-.586-.463,1.6,1.6,0,0,1-.135-.8l-.27-12.982-.315-20.975c5.883-11.855,13.207-19.624,22.791-28.036Z" transform="translate(-186.482 -134.065)" fill="#68464f"/>
    <path id="Path_4130" data-name="Path 4130" d="M-897.824,577.61l11.8,64.233-20.023-.888a27.032,27.032,0,0,0,11.695-19.09,62.871,62.871,0,0,0,.013-12.847q-1-13.583-2.813-24.258a35.161,35.161,0,0,1-.669-7.151Z" transform="translate(-225.268 -135.747)" fill="#cda991"/>
    <path id="Path_4131" data-name="Path 4131" d="M-809.833,586.705a5.109,5.109,0,0,0,.129-.882c.013-.18.1-.245.277-.193l.193.058a.07.07,0,0,1,.045.084c-1.667,15.054-2.626,27.27.193,41q.782,3.813-.669.206c-.084-.212-.3-1.049-.631-2.51a74.408,74.408,0,0,1-1.448-24.792,115.621,115.621,0,0,1,1.911-12.969Z" transform="translate(-258.717 -138.6)" fill="#f98055"/>
    <path id="Path_4132" data-name="Path 4132" d="M-820.482,606.59c.354.238.489.74.393,1.493a69.367,69.367,0,0,0,7.736,42.55l-16.406,1.319,8.277-45.362Z" transform="translate(-252.812 -146.075)" fill="#cda991"/>
    <path id="Path_4133" data-name="Path 4133" d="M-958.878,614.69c.811,7.073,1.094,21.31,1.094,21.31s-3.939-.341-4.576,1.564a.424.424,0,0,1-.5.27l-.837-.206,4.821-22.939Z" transform="translate(-204.722 -148.962)" fill="#c7b2c1"/>
    <path id="Path_4134" data-name="Path 4134" d="M-1020.193,616.45l.315,20.976-9.912-.9a157.142,157.142,0,0,1,9.6-20.074Z" transform="translate(-181.169 -149.589)" fill="#c7b2c1"/>
    <path id="Path_4135" data-name="Path 4135" d="M-1033.214,647.64l9.912.9.27,12.982a130.585,130.585,0,0,0-16.367-1.551,68,68,0,0,0,6.185-12.332Z" transform="translate(-177.744 -160.705)" fill="#cda991"/>
    <path id="Path_4136" data-name="Path 4136" d="M-1073.257,647.56a35.684,35.684,0,0,0-1.519,14.649c-3.244,1.957-1.538,5.857,1.3,7.17,9.886,4.583,22.494,5.432,32.792,5.645l.785,2.825a.477.477,0,0,0,.457.341h24.155a.6.6,0,0,0,.528-.309,6.337,6.337,0,0,0,.856-3.16c5.715-.393,13.066-1.056,17.964-4.158,1.422-.895,1.7-2.117,1.847-3.675a19.472,19.472,0,0,0,.849-11.572l67.554,27.643-.682.811a.7.7,0,0,1-.553.264c-8.316,0-16.985.463-24.882.412q-13.564-.087-27.135.142c-91.42,1.519-182.871,1.673-274.3,2.941-1.216.019-2.613-.3-3.99-.257l-86.65-36.8c2.3-2.079,3.913-.515,6.372-.476q32.873.492,65.675-.624l-.019,4.93c-1.384,7.678,7.936,12.673,13.87,14.971a49.676,49.676,0,0,0-12.718,4.171c-1.467.721-4.756,3.99-1.7,5.078a61.956,61.956,0,0,0,13.657,3.006,307.476,307.476,0,0,0,58.054,1.152.441.441,0,0,0,.431-.36.939.939,0,0,1,1.056-.785q12.676.686,25.41.5a27.468,27.468,0,0,0,12.744-3.167,279.946,279.946,0,0,0,49.275-8.8,32.541,32.541,0,0,0,4.743-1.268c4.235-1.545,4.653-4.5,5.664-9.114.753-3.437,2.175-10.349,2.175-10.349s.185-1.342.681-1.628.755-.154.755-.154h24.5Z" transform="translate(-69.233 -160.676)" fill="#cda991"/>
    <path id="Path_4137" data-name="Path 4137" d="M-1343.879,652.09l86.65,36.8.373,39.537q-65.4-27.814-82.544-35.077c-.515-.219-1.416-.515-2.7-.895l-.946-.418a.5.5,0,0,1-.315-.476l-.521-39.467Z" transform="translate(-69.233 -162.291)" fill="#b6876b"/>
    <path id="Path_4138" data-name="Path 4138" d="M-1232.046,658.04c3.952,4.113,9.287,5.9,14.552,7.472q5.976,1.776,26.665,6.481a261.457,261.457,0,0,0,49.887,6.179c12.345.38,22.186-1.525,30.25-11.141a31.974,31.974,0,0,1-10.549,15.576,27.468,27.468,0,0,1-12.744,3.167q-12.734.183-25.41-.5-13.526-1.438-20.287-2.7a375.816,375.816,0,0,1-38.495-9.558c-5.934-2.3-15.254-7.292-13.87-14.971Z" transform="translate(-109.039 -164.411)" fill="#68464f"/>
    <path id="Path_4139" data-name="Path 4139" d="M-1046.673,666.8a130.56,130.56,0,0,1,16.367,1.551,1.6,1.6,0,0,0,.135.8.983.983,0,0,0,.586.463q9.529,3.389,18.954,6.964c.032.116.064.232.1.354a279.95,279.95,0,0,1-49.275,8.8,31.975,31.975,0,0,0,10.549-15.576l2.587-3.353Z" transform="translate(-170.47 -167.533)" fill="#b6876b"/>
    <path id="Path_4140" data-name="Path 4140" d="M-926.745,670.32a15.932,15.932,0,0,0,2.233,5.168c2.774,3.289,26.1,3.321,31.151,3.373l.708,4.274c-10.3-.212-22.906-1.062-32.792-5.645-2.838-1.313-4.544-5.213-1.3-7.17Z" transform="translate(-217.263 -168.788)" fill="#b6876b"/>
    <path id="Path_4141" data-name="Path 4141" d="M-812.7,675.02a5.611,5.611,0,0,1,1.165,2.13c-2.021,3.1-14.153,3.3-18.2,3.366l.624-4.177,16.406-1.319Z" transform="translate(-252.467 -170.463)" fill="#68464f"/>
    <path id="Path_4142" data-name="Path 4142" d="M-911.84,676.03l20.023.888.669,3.978c-5.052-.052-28.377-.084-31.151-3.373l10.459-1.493Z" transform="translate(-219.476 -170.823)" fill="#68464f"/>
    <path id="Path_4143" data-name="Path 4143" d="M-811.378,677.59c-.148,1.558-.425,2.78-1.847,3.675-4.9,3.1-12.248,3.765-17.963,4.158l.94-3.99c4.042-.064,16.174-.264,18.2-3.366a2.024,2.024,0,0,0,.676-.476Z" transform="translate(-251.946 -171.378)" fill="#b6876b"/>
    <path id="Path_4144" data-name="Path 4144" d="M-1219.1,681.3a375.829,375.829,0,0,0,38.495,9.558q6.758,1.265,20.287,2.7a.939.939,0,0,0-1.056.785.441.441,0,0,1-.431.36,307.47,307.47,0,0,1-58.054-1.152,61.959,61.959,0,0,1-13.658-3.006c-3.057-1.088.232-4.357,1.7-5.078A49.673,49.673,0,0,1-1219.1,681.3Z" transform="translate(-108.116 -172.701)" fill="#b6876b"/>
    <path id="Path_4145" data-name="Path 4145" d="M-877.708,702.56l2.227.856a.471.471,0,0,1,.322.463q.309,19.405.2,38.8c-.006.689-.463.856-1.371.5l-259.114,2.793-12.068.2-61.363.238-.373-39.537c1.377-.045,2.774.277,3.99.257,91.426-1.268,182.878-1.422,274.3-2.941q13.564-.222,27.135-.142c7.9.052,16.567-.412,24.882-.412a.7.7,0,0,0,.554-.264l.682-.811Z" transform="translate(-117.213 -180.277)" fill="#ce9b78"/>
    <path id="Path_4146" data-name="Path 4146" d="M-1341.109,714.8c1.281.38,2.182.676,2.7.895q17.146,7.26,82.544,35.077l61.363-.238c-.5.734-.624,1.261-.367,1.59a.447.447,0,0,1-.354.727c-14.121-.045-28.635-.592-42.749.47q-4.808.357-9.629.431c-2.092.032-4.673-.476-7.022-.212a.8.8,0,0,0-.792.888l.412,78.933-84.629-35.907a.6.6,0,0,1-.38-.483l-.277-1.706a22.957,22.957,0,0,0-.116-6.861l-.7-73.6Z" transform="translate(-70.22 -184.639)" fill="#e8b782"/>
    <path id="Path_4147" data-name="Path 4147" d="M-1470.1,744.449l-2.446,28.86a1.641,1.641,0,0,0,.83,1.57l12.319,6.951a7.939,7.939,0,0,1-3.257-.753q-37.719-18.189-75.374-36.274a.206.206,0,0,1,.084-.393l67.844.039Z" transform="translate(0 -195.192)" fill="#e0e0e0"/>
    <path id="Path_4148" data-name="Path 4148" d="M-835.5,765.67a14.63,14.63,0,0,1,.541,2.426q.068,39.747.7,79.506a.343.343,0,0,1-.354.393l-2.575.187c-.521-.483-.553-1.12-.109-1.924a1.019,1.019,0,0,0,.122-.6q-.657-6.468-.663-12.1-.029-24.165-2.33-47.261-.3-3.08-.85-6.14c-.566-3.192-.792-5.451-4.184-5.889q-7.443-.946-14.958-1.184c-18.066-.566-36.152-1.281-54.225-1.442q-44.989-.4-89.978-.367c-4.879,0-11.933-.3-18.51-.309-19.489-.019-39.01-.219-58.492.238a110.352,110.352,0,0,1-11.489-.348q-2.192-.183-1.764-2.394L-835.5,765.67Z" transform="translate(-158.041 -202.769)" fill="#e8b782"/>
    <path id="Path_4149" data-name="Path 4149" d="M-1134.989,770.01q-.425,2.211,1.763,2.394a110.389,110.389,0,0,0,11.489.348c19.482-.457,39-.257,58.492-.238,6.578.013,13.632.309,18.51.309q44.989-.029,89.978.367c18.073.161,36.158.875,54.225,1.442q7.511.241,14.958,1.184c3.392.438,3.617,2.7,4.183,5.889q.55,3.06.85,6.14,2.3,23.093,2.33,47.261.01,5.628.663,12.1a1.019,1.019,0,0,1-.122.6c-.444.8-.412,1.442.109,1.924l-330,3.308-.412-78.933a.8.8,0,0,1,.792-.888c2.349-.264,4.93.245,7.022.212q4.818-.068,9.628-.431c14.115-1.062,28.628-.515,42.749-.47a.447.447,0,0,0,.354-.727c-.257-.328-.135-.856.367-1.59l12.068-.2Z" transform="translate(-117.669 -204.315)" fill="#f5c587"/>
    <path id="Path_4150" data-name="Path 4150" d="M-1347.728,829.16a22.957,22.957,0,0,1,.116,6.861,101.959,101.959,0,0,1-14.037-6.758l13.922-.1Z" transform="translate(-62.9 -225.395)" fill="#e0e0e0"/>
    <path id="Path_4164" data-name="Path 4164" d="M-1245.079,568.414l-24.537-.18,1.6-2.4,25.389-.205Z" fill="#e8b782"/>
    <line id="Line_732" data-name="Line 732" x1="992" transform="translate(-1730.645 649.168)" fill="none" stroke="#ce9b78" stroke-width="6" opacity="0.72"/>
  </g>
</svg>
