<svg xmlns="http://www.w3.org/2000/svg" width="422.245" height="284.915" viewBox="0 0 422.245 284.915">
  <g id="Group_2663" data-name="Group 2663" transform="translate(1044.074 -371.164)">
    <g id="Group_2661" data-name="Group 2661" transform="translate(-817.567 393.513)">
      <path id="Path_4235" data-name="Path 4235" d="M-719.933,458.63V560.019l-28.078-18.054-28.078,18.054V454.459l21.173-20.826,5.669-34.985a1.24,1.24,0,0,1,2.449,0l5.693,35.827,18.139,17.118A9.671,9.671,0,0,1-719.933,458.63Z" transform="translate(776.09 -397.606)" fill="#f1f1f1"/>
    </g>
    <path id="Path_4236" data-name="Path 4236" d="M-696.483,530v84.785a.736.736,0,0,1-.735.735h-21.62a.735.735,0,0,0-.735.735v59.6a.735.735,0,0,0,.735.735h85.451a.735.735,0,0,0,.735-.735V607.875a.735.735,0,0,0-.735-.735h-38.73a.736.736,0,0,1-.735-.735V547.51a.734.734,0,0,0-.28-.576l-22.159-17.509A.735.735,0,0,0-696.483,530Z" transform="translate(-50.225 -24.47)" fill="#f1f1f1"/>
    <g id="Group_2662" data-name="Group 2662" transform="translate(-1044.074 371.164)">
      <path id="Path_4237" data-name="Path 4237" d="M-815.276,385.064c1.953-6.238-1.5-13.574-8.926-13.887-5.705-.237-12.442,2.544-13.253,8.8-.287,2.2,1.285,3.846,3.457,3.06,2.324-.845,3.119-4.623,5.486-5.95,4.091-2.282,7.708,1.124,7.844,5.164.177,5.486-7.387,9.652-5.688,15.738.693,2.493,4.733,2.248,5.19.059,1.133-5.367,4.556-8.731,5.891-12.983m15.755.558c1.369,1.488,3.93.228,5.274-.583a1.482,1.482,0,0,1,.778-.22c3.989.051,5.984,3.364,3.753,6.813-1.75,2.7-6.026,3.271-8.461,5.325-1.5,1.268-2.73,3.533-.71,4.852a1.657,1.657,0,0,0,2.037-.177,27.357,27.357,0,0,1,7.075-4.716c13.972-6.483-.8-22.475-9.6-13.988a1.772,1.772,0,0,0-.144,2.7" transform="translate(1012.099 -371.164)" fill="none" stroke="#f7aba2" stroke-miterlimit="10" stroke-width="0"/>
      <path id="Path_4238" data-name="Path 4238" d="M-865.125,534.95c-1.31,1.006-2.637,2.029-3.964,3.068-5.6,4.361-10.616,12.535-14.25,18.612q-7.265,12.133-14.783,24.1a9.209,9.209,0,0,1-2.206,2.172.529.529,0,0,1-.7,0,11.031,11.031,0,0,1-2.181-2.122q-9.09-11.537-17.826-23.438a.463.463,0,0,0-.634-.1l-2.688,1.851" transform="translate(1025.545 -396.514)" fill="none" stroke="#f7aba2" stroke-miterlimit="10" stroke-width="0"/>
      <path id="Path_4239" data-name="Path 4239" d="M-935.187,560.662q-3.106-7.518-8.833-9.813-8.127-3.258-22.01-5.671c-3.017-.524-2.933,2.1-1.919,4.006.439.82.194,1.259-.727,1.319a60.441,60.441,0,0,1-21.6-2.409c-1.488-.456-3.651.33-4.015,2.037-1.242,5.79,27.039,8.309,30.783,8.528,9.635.558,12.29,5.24,19.339,10.1" transform="translate(1036.374 -398.086)" fill="none" stroke="#f7e5ca" stroke-miterlimit="10" stroke-width="0"/>
      <path id="Path_4240" data-name="Path 4240" d="M-935.739,573.09q-.025.2-.051.38a1.324,1.324,0,0,1-.338.719l-3.5,3.8a1,1,0,0,0-.186,1.073,318.99,318.99,0,0,0,18.088,36.193,73.316,73.316,0,0,0,9.061,12.585c3.212,3.525,5.959,5.207,10.3,2.392a75.9,75.9,0,0,0,13.245-10.819" transform="translate(1027.949 -402.417)" fill="none" stroke="#f7aba2" stroke-miterlimit="10" stroke-width="0"/>
      <path id="Path_4241" data-name="Path 4241" d="M-879.833,627.9a58.528,58.528,0,0,1-.085,18.037" transform="translate(1018.666 -410.9)" fill="none" stroke="#f8f8f8" stroke-miterlimit="10" stroke-width="0"/>
      <path id="Path_4242" data-name="Path 4242" d="M-884.1,649.113a60.269,60.269,0,0,0-22.863.854" transform="translate(1022.853 -414.076)" fill="none" stroke="#9e9e9e" stroke-miterlimit="10" stroke-width="0"/>
      <path id="Path_4243" data-name="Path 4243" d="M-910.289,650.174l-16.355-.414a1.405,1.405,0,0,0-1.42,1.192,20.745,20.745,0,0,0-.355,3.66q.583,17.813.372,35.668c-.042,3.381.566,5.781,4.049,6.525" transform="translate(1026.174 -414.283)" fill="none" stroke="#f8f8f8" stroke-miterlimit="10" stroke-width="0"/>
      <path id="Path_4244" data-name="Path 4244" d="M-941.9,696.378c-.347.456-.659.685-.938.693q-50.435.254-100.717.1a.512.512,0,0,0-.516.583c.008.11.017.2.017.3a.6.6,0,0,0,.6.617q83.221.013,166.45.025c2.493,0,5.655-.406,7.759-.4,24.638.169,52.21.583,75.377.118q9.547-.19,16.9-.076c53.105.786,107.267.237,154.321.355a.645.645,0,0,0,.625-.4l.135-.3a.561.561,0,0,0-.507-.794h-132.6a.492.492,0,0,1-.49-.423.491.491,0,0,1,.347-.541c14.031-4.2,22.272-16.871,18.392-31.062-2.958-10.819-12.112-16.617-23.176-18.181" transform="translate(1044.074 -413.856)" fill="none" stroke="#9e9e9e" stroke-miterlimit="10" stroke-width="0"/>
      <path id="Path_4245" data-name="Path 4245" d="M-708.16,646.248a10.323,10.323,0,0,0-1.538-4.108" transform="translate(992.32 -413.104)" fill="none" stroke="#f8f8f8" stroke-miterlimit="10" stroke-width="0"/>
      <path id="Path_4246" data-name="Path 4246" d="M-709.7,638.93c3.778,1.141,8.106,3.077,11.495,1.437,5.959-2.882,11.613-10.591,18.1-18.967" transform="translate(992.32 -409.894)" fill="none" stroke="#f7aba2" stroke-miterlimit="10" stroke-width="0"/>
      <path id="Path_4247" data-name="Path 4247" d="M-656.008,589.186l6.4-11.419a.665.665,0,0,0-.068-.752q-1.762-2.092-3.55-3.88a1.478,1.478,0,0,1-.49-1.175" transform="translate(984.01 -402.242)" fill="none" stroke="#f7aba2" stroke-miterlimit="10" stroke-width="0"/>
      <path id="Path_4248" data-name="Path 4248" d="M-655,567.8c6.28-4.04,9.247-9.01,17.876-9.221a97.017,97.017,0,0,0,27.58-4.716c6.119-1.986,4.057-7.455-1.217-5.646-6.982,2.392-13.676,2.172-20.9,2.468a.67.67,0,0,1-.625-.981l1.124-2.138a1.085,1.085,0,0,0,.008-1.006c-.676-1.327-2.029-1.75-4.049-1.285-10.574,2.451-23.6,3.643-28.323,12.264a.506.506,0,0,1-.473.279c-.093,0-.186,0-.3-.008" transform="translate(985.294 -398.084)" fill="none" stroke="#f7e5ca" stroke-miterlimit="10" stroke-width="0"/>
      <path id="Path_4249" data-name="Path 4249" d="M-689.581,582.759a51.829,51.829,0,0,1-8.19,8.875,1.045,1.045,0,0,1-.794.245c-1.6-.177-1.809-1.361-2.434-2.536q-3.537-6.643-6.348-13.414" transform="translate(991.957 -402.856)" fill="none" stroke="#f7aba2" stroke-miterlimit="10" stroke-width="0"/>
      <path id="Path_4250" data-name="Path 4250" d="M-717.139,568.036q-5.388-11.689-11.343-22.88c-3.694-6.939-6.694-11.072-13.177-13.464a123.611,123.611,0,0,0-28.949-6.762" transform="translate(1001.748 -394.963)" fill="none" stroke="#f1a49c" stroke-miterlimit="10" stroke-width="0"/>
      <path id="Path_4251" data-name="Path 4251" d="M-773.778,499.588a10.564,10.564,0,0,0,6.026-9.458.719.719,0,0,1,.406-.651c6.9-3.753,11.089-12.839,3.626-18.688-.262-.2-.262-.406,0-.617,7.675-6.212,4.818-18.071-6-17.488" transform="translate(1002.238 -383.778)" fill="none" stroke="#979797" stroke-miterlimit="10" stroke-width="0"/>
      <line id="Line_746" data-name="Line 746" x1="5.063" y2="0.693" transform="translate(223.398 115.81)" fill="none" stroke="#9e9e9e" stroke-miterlimit="10" stroke-width="0"/>
      <path id="Path_4252" data-name="Path 4252" d="M-779.768,505.134l.828-6.145a.825.825,0,0,1,.423-.625c5.638-3.119,10.751-14.944-.651-14.318" transform="translate(1003.166 -388.631)" fill="none" stroke="#96846a" stroke-miterlimit="10" stroke-width="0"/>
      <path id="Path_4253" data-name="Path 4253" d="M-780.884,482.849l-3.161-3.186a1,1,0,0,0-.719-.313,7.538,7.538,0,0,1-6.094-3.06" transform="translate(1004.882 -387.435)" fill="none" stroke="#979797" stroke-miterlimit="10" stroke-width="0"/>
      <path id="Path_4254" data-name="Path 4254" d="M-770.856,524.93a6.58,6.58,0,0,1-1.352,2.882" transform="translate(1001.995 -394.963)" fill="none" stroke="#f7aba2" stroke-miterlimit="10" stroke-width="0"/>
      <path id="Path_4255" data-name="Path 4255" d="M-686.328,580.252l15.687-20.057a.876.876,0,0,1,1.488-.093l.625.617" transform="translate(988.703 -400.349)" fill="none" stroke="#f1a49c" stroke-miterlimit="10" stroke-width="0"/>
      <path id="Path_4256" data-name="Path 4256" d="M-665.268,560.9c2.012,2,7.793,8.655,10.117,9.348" transform="translate(985.444 -400.53)" fill="none" stroke="#f0916e" stroke-miterlimit="10" stroke-width="0"/>
      <path id="Path_4257" data-name="Path 4257" d="M-694.4,590.956q-7.493,12.754-15.789,24.562m-29.591,17.53-.2-24.85a.252.252,0,0,1,.287-.287l20.522-.085c.5,0,.575-.186.245-.549L-740.1,583.84a1.327,1.327,0,0,0-.98-.44H-882.12a.846.846,0,0,0-.668.3L-903.969,607.6a.227.227,0,0,0,.169.38l18.586-.3a.969.969,0,0,1,1.116,1.175,45.982,45.982,0,0,0,.533,12.163" transform="translate(1022.398 -404.013)" fill="none" stroke="#f1a49c" stroke-miterlimit="10" stroke-width="0"/>
      <path id="Path_4258" data-name="Path 4258" d="M-934.978,571.607a.955.955,0,0,0,.947-.211A83.562,83.562,0,0,0-926,563.51" transform="translate(1027.188 -400.934)" fill="none" stroke="#f0916e" stroke-miterlimit="10" stroke-width="0"/>
      <path id="Path_4259" data-name="Path 4259" d="M-790.933,476.29q-1.395.913,1.944,3.127a.933.933,0,0,0,.473.161,7.453,7.453,0,0,1,5.815,3.144,1,1,0,0,0,.676.406q1.078.152,1.065-.279" transform="translate(1004.957 -387.435)" fill="none" stroke="#f0dec4" stroke-miterlimit="10" stroke-width="0"/>
      <path id="Path_4260" data-name="Path 4260" d="M-779.8,509c-.355,6.635-.9,14.208,6.39,16.347" transform="translate(1003.198 -392.497)" fill="none" stroke="#f7e5ca" stroke-miterlimit="10" stroke-width="0"/>
      <path id="Path_4261" data-name="Path 4261" d="M-780.069,528.291a.455.455,0,0,1,.211.076.282.282,0,0,1,.11.389c-9.374,19.7-33.64,16.744-43.25-.735" transform="translate(1009.856 -395.441)" fill="none" stroke="#f0916e" stroke-miterlimit="10" stroke-width="0"/>
      <path id="Path_4262" data-name="Path 4262" d="M-827.839,527.559l-.989-2.181a.507.507,0,0,0-.625-.321,107.743,107.743,0,0,0-24.824,8.359" transform="translate(1014.698 -394.98)" fill="none" stroke="#f1a49c" stroke-miterlimit="10" stroke-width="0"/>
      <path id="Path_4263" data-name="Path 4263" d="M-710.853,647c-.085.287-.541.4-1.369.338-.27-.017-.406.11-.406.372l-.211,47.7a1.414,1.414,0,0,1-1.589,1.589l-12.67.059" transform="translate(995.014 -413.856)" fill="none" stroke="#979797" stroke-miterlimit="10" stroke-width="0"/>
      <path id="Path_4264" data-name="Path 4264" d="M-729.214,690.812l.008-78.9a.353.353,0,0,0-.4-.4h-6.1a.572.572,0,0,1-.414-.186l-3.8-4.285c-.507-.575-.752-.482-.744.287.414,25.678-.287,46.9-.051,77.355.008,2.071.1,4.066.279,6" transform="translate(997.129 -407.615)" fill="none" stroke="#f1a49c" stroke-miterlimit="10" stroke-width="0"/>
      <line id="Line_747" data-name="Line 747" x1="58.042" y2="0.203" transform="translate(198.649 283.071)" fill="none" stroke="#979797" stroke-miterlimit="10" stroke-width="0"/>
      <path id="Path_4265" data-name="Path 4265" d="M-813.529,691.77l-.008-78.944a.364.364,0,0,0-.414-.414l-23.278-.042a.674.674,0,0,0-.769.769l.017,78.513" transform="translate(1012.178 -408.496)" fill="none" stroke="#f1a49c" stroke-miterlimit="10" stroke-width="0"/>
      <path id="Path_4266" data-name="Path 4266" d="M-844.572,697.359l-33.708-.017a2.3,2.3,0,0,1-2.3-2.324l.558-45.777" transform="translate(1018.768 -414.203)" fill="none" stroke="#979797" stroke-miterlimit="10" stroke-width="0"/>
      <path id="Path_4267" data-name="Path 4267" d="M-664.448,560.14a1.879,1.879,0,0,1,.008.3.326.326,0,0,1-.355.33l-.473.008" transform="translate(985.444 -400.413)" fill="none" stroke="#f0dec4" stroke-miterlimit="10" stroke-width="0"/>
      <path id="Path_4268" data-name="Path 4268" d="M-923.188,696.881a1.473,1.473,0,0,0,1.15.575q6.187.076,12.129.034a.386.386,0,0,0,.44-.44l-.009-46.8" transform="translate(1025.363 -414.359)" fill="none" stroke="#979797" stroke-miterlimit="10" stroke-width="0"/>
      <path id="Path_4269" data-name="Path 4269" d="M-813.526,706.273l-24.452-.118m93.718.042-11.225-.127" transform="translate(1012.175 -422.999)" fill="none" stroke="#974a42" stroke-miterlimit="10" stroke-width="0"/>
      <path id="Path_4270" data-name="Path 4270" d="M-849.307,396.86c-6.17-4.547-16.854,3.711-13.253,10.126a.88.88,0,0,0,.617.456c2.595.6,2.984-1.141,3.237-3.322q.444-3.816,4.564-4.514a1.217,1.217,0,0,1,.769.127c6.711,3.474.634,10.464,3.685,15.882a1.552,1.552,0,0,0,1.868.693c3.491-1.234.769-4.742,1.454-7.387,1.149-4.429,1.065-9.1-2.941-12.061m27.216,15.282a3.4,3.4,0,0,0-3.406-3.406,3.4,3.4,0,0,0-3.406,3.406,3.4,3.4,0,0,0,3.406,3.406,3.4,3.4,0,0,0,3.406-3.406m19.609-.237a2.626,2.626,0,0,0-2.629-2.629,2.626,2.626,0,0,0-2.629,2.629,2.626,2.626,0,0,0,2.629,2.629,2.626,2.626,0,0,0,2.629-2.629m-38.01,9.644a2.586,2.586,0,0,0-2.586-2.586,2.586,2.586,0,0,0-2.586,2.586,2.586,2.586,0,0,0,2.586,2.586,2.586,2.586,0,0,0,2.586-2.586" transform="translate(1016.092 -374.938)" fill="none" stroke="#f7aba2" stroke-miterlimit="10" stroke-width="0"/>
      <path id="Path_4271" data-name="Path 4271" d="M-918.9,454.316c-5.291,3.389-12.687-4.759-17.209,2.384-3.432,5.435,4.023,6.432,7.193,6.6q11.474.621,22.973.237c5.147-.177,10.794-1.158,16.507-1.707a4.323,4.323,0,0,0,3.339-2.012,1.115,1.115,0,0,0,.194-.744,3.377,3.377,0,0,0-1.741-3.009,56.6,56.6,0,0,1-13.076-9.128c-1.5-1.437-3.44-2.8-5.266-2.324a18.989,18.989,0,0,0-9.991,6.669,16.465,16.465,0,0,1-2.924,3.034" transform="translate(1027.5 -382.517)" fill="none" stroke="#f8f8f8" stroke-miterlimit="10" stroke-width="0"/>
      <path id="Path_4272" data-name="Path 4272" d="M-824.2,371.177c7.421.313,10.878,7.649,8.926,13.887-1.335,4.251-4.759,7.615-5.891,12.983-.456,2.189-4.5,2.434-5.19-.059-1.7-6.086,5.866-10.253,5.688-15.738-.135-4.04-3.753-7.446-7.844-5.164-2.367,1.327-3.161,5.105-5.486,5.95-2.172.786-3.744-.862-3.457-3.06.811-6.255,7.548-9.035,13.253-8.8Z" transform="translate(1012.099 -371.164)" fill="#f05746"/>
      <path id="Path_4273" data-name="Path 4273" d="M-792.67,387.332a1.772,1.772,0,0,1,.144-2.7c8.8-8.486,23.573,7.506,9.6,13.988A27.357,27.357,0,0,0-790,403.341a1.657,1.657,0,0,1-2.037.177c-2.02-1.319-.794-3.584.71-4.852,2.434-2.054,6.711-2.62,8.461-5.325,2.231-3.449.237-6.762-3.753-6.813a1.482,1.482,0,0,0-.778.22c-1.344.811-3.9,2.071-5.274.583Z" transform="translate(1005.248 -372.873)" fill="#f05746"/>
      <path id="Path_4274" data-name="Path 4274" d="M-849.307,396.86c4.006,2.958,4.091,7.632,2.941,12.061-.685,2.646,2.037,6.153-1.454,7.387a1.552,1.552,0,0,1-1.868-.693c-3.051-5.418,3.026-12.408-3.685-15.882a1.217,1.217,0,0,0-.769-.127q-4.12.7-4.564,4.514c-.254,2.181-.642,3.922-3.237,3.322a.88.88,0,0,1-.617-.456c-3.6-6.415,7.083-14.673,13.253-10.126Z" transform="translate(1016.092 -374.938)" fill="#f05746"/>
      <path id="Path_4275" data-name="Path 4275" d="M-815.8,414.556a3.4,3.4,0,0,1-3.406,3.406,3.4,3.4,0,0,1-3.406-3.406,3.4,3.4,0,0,1,3.406-3.406,3.4,3.4,0,0,1,3.406,3.406Z" transform="translate(1009.796 -377.352)" fill="#f05746"/>
      <path id="Path_4276" data-name="Path 4276" d="M-792.311,414.419a2.626,2.626,0,0,1-2.629,2.629,2.626,2.626,0,0,1-2.629-2.629,2.626,2.626,0,0,1,2.629-2.629,2.626,2.626,0,0,1,2.629,2.629Z" transform="translate(1005.921 -377.452)" fill="#f05746"/>
      <path id="Path_4277" data-name="Path 4277" d="M-837.265,425.836a2.586,2.586,0,0,1-2.586,2.586,2.586,2.586,0,0,1-2.586-2.586,2.586,2.586,0,0,1,2.586-2.586,2.586,2.586,0,0,1,2.586,2.586Z" transform="translate(1012.865 -379.225)" fill="#f05746"/>
      <path id="Path_4278" data-name="Path 4278" d="M-777.249,486.743a.718.718,0,0,0-.406.651,10.564,10.564,0,0,1-6.026,9.458l-5.063.693.828-6.145a.825.825,0,0,1,.423-.625c5.638-3.119,10.751-14.944-.651-14.318l-3.161-3.186a1,1,0,0,0-.718-.313,7.538,7.538,0,0,1-6.094-3.06l-1.183-5.283c-.059-.262-.194-.321-.414-.161-6.889,4.928-10.337,5.046-16.338-1.192a.524.524,0,0,0-.718-.034,12.825,12.825,0,0,0-4.53,8.123c-.583,4-1.251,6.272-4.945,7.607a.558.558,0,0,0-.254.169.549.549,0,0,0-.161.287.48.48,0,0,1-.228-.321.537.537,0,0,0-.321-.355c-5.874-2.384-10.684-7.607-10.54-14.149.1-4.328,2.409-9.145,6.542-11.089.727-.347,2.139-.414,3.051-.9a.609.609,0,0,0,.347-.685q-1.813-13.807,10.084-16.5c6.069-1.378,10.92.583,13.152,6.5a.656.656,0,0,0,1.09.211c5.409-5.773,12.932-8.917,19.17-1.936a11.9,11.9,0,0,1,3.271,9.433.421.421,0,0,0,.389.507,1.652,1.652,0,0,0,1.031-.177c10.819-.583,13.676,11.275,6,17.488-.262.211-.262.414,0,.617C-766.16,473.9-770.352,482.991-777.249,486.743Z" transform="translate(1012.14 -381.043)" fill="#3d3d3d"/>
      <path id="Path_4279" data-name="Path 4279" d="M-936.11,456.7c4.522-7.142,11.918,1.006,17.209-2.384a16.465,16.465,0,0,0,2.924-3.034,18.989,18.989,0,0,1,9.991-6.669c1.826-.473,3.77.887,5.266,2.324a56.6,56.6,0,0,0,13.076,9.128,3.377,3.377,0,0,1,1.741,3.009,1.115,1.115,0,0,1-.194.744,4.323,4.323,0,0,1-3.339,2.012c-5.714.549-11.36,1.53-16.507,1.707q-11.5.393-22.973-.237c-3.17-.169-10.625-1.166-7.193-6.6Z" transform="translate(1027.5 -382.517)" fill="#f1f1f1"/>
      <path id="Path_4280" data-name="Path 4280" d="M-780.112,519.116a.282.282,0,0,1,.11.389c-9.374,19.7-33.64,16.744-43.25-.735,6.677-.583,7.015-4.311,5.485-9.45-.921-3.06-3.5-5.629-4.649-8.892-.338-.955-.947-2.181-.989-2.392a62.086,62.086,0,0,1-.955-13.38.6.6,0,0,1-.271-.093.55.55,0,0,1,.161-.287.559.559,0,0,1,.254-.169c3.694-1.336,4.361-3.609,4.945-7.607a12.825,12.825,0,0,1,4.53-8.123.524.524,0,0,1,.718.034c6,6.238,9.45,6.119,16.338,1.192.22-.161.355-.1.414.161l1.183,5.283q-1.395.913,1.944,3.127a.933.933,0,0,0,.473.161,7.453,7.453,0,0,1,5.815,3.144,1,1,0,0,0,.676.406q1.078.152,1.065-.279c11.4-.625,6.288,11.2.651,14.318a.825.825,0,0,0-.423.625l-.828,6.145c-.355,6.635-.9,14.208,6.39,16.347A.455.455,0,0,1-780.112,519.116Z" transform="translate(1010.109 -386.19)" fill="#efcb96"/>
      <path id="Path_4281" data-name="Path 4281" d="M-790.933,476.29a7.538,7.538,0,0,0,6.094,3.06,1,1,0,0,1,.719.313l3.161,3.186q.013.431-1.065.279a1,1,0,0,1-.676-.406,7.453,7.453,0,0,0-5.815-3.144.933.933,0,0,1-.473-.161q-3.334-2.219-1.944-3.127Z" transform="translate(1004.957 -387.435)" fill="#efcb96"/>
      <path id="Path_4282" data-name="Path 4282" d="M-796.809,524.93a123.611,123.611,0,0,1,28.949,6.762c6.483,2.392,9.483,6.525,13.177,13.464q5.959,11.195,11.343,22.88,2.8,6.77,6.348,13.414c.625,1.175.837,2.358,2.434,2.536a1.045,1.045,0,0,0,.794-.245,51.829,51.829,0,0,0,8.19-8.875l15.687-20.057a.876.876,0,0,1,1.488-.093l.625.617c2.012,2,7.793,8.655,10.117,9.348a1.478,1.478,0,0,0,.49,1.175q1.788,1.788,3.55,3.88a.665.665,0,0,1,.068.752l-6.4,11.419q-7.493,12.754-15.789,24.562c-6.483,8.376-12.137,16.085-18.1,18.967-3.389,1.64-7.717-.3-11.495-1.437l-.2-24.85a.252.252,0,0,1,.287-.287l20.522-.085c.5,0,.575-.186.245-.549l-21.173-23.438a1.327,1.327,0,0,0-.98-.44H-887.671a.846.846,0,0,0-.668.3l-21.181,23.895a.227.227,0,0,0,.169.38l18.586-.3a.969.969,0,0,1,1.116,1.175c-.125,2.008,2.253,3.861,2.285,5.557.047,2.553-2.153,4.752-1.752,6.605a75.9,75.9,0,0,1-13.245,10.819c-4.344,2.815-7.091,1.133-10.3-2.392a73.316,73.316,0,0,1-9.061-12.585,319,319,0,0,1-18.088-36.193,1,1,0,0,1,.186-1.073l3.5-3.8a1.324,1.324,0,0,0,.338-.718q.025-.177.051-.38a.955.955,0,0,0,.947-.211,83.562,83.562,0,0,0,8.03-7.886l2.688-1.851a.463.463,0,0,1,.634.1q8.735,11.9,17.826,23.438a11.031,11.031,0,0,0,2.181,2.122.529.529,0,0,0,.7,0,9.207,9.207,0,0,0,2.206-2.172q7.518-11.956,14.783-24.1c3.634-6.077,8.647-14.25,14.25-18.612,1.327-1.04,2.654-2.062,3.964-3.068A107.742,107.742,0,0,1-842.7,525.04a.507.507,0,0,1,.625.321l.989,2.181c9.61,17.479,33.877,20.438,43.25.735a.282.282,0,0,0-.11-.389.455.455,0,0,0-.211-.076,6.58,6.58,0,0,0,1.352-2.882Z" transform="translate(1027.949 -394.963)" fill="#f05746"/>
      <path id="Path_4283" data-name="Path 4283" d="M-935.187,560.662a83.562,83.562,0,0,1-8.03,7.886.955.955,0,0,1-.947.211c-7.049-4.86-9.7-9.543-19.339-10.1-3.744-.22-32.026-2.739-30.783-8.528.363-1.707,2.527-2.493,4.015-2.037a60.441,60.441,0,0,0,21.6,2.409c.921-.059,1.166-.5.727-1.319-1.014-1.9-1.1-4.53,1.919-4.006q13.883,2.422,22.01,5.671,5.731,2.295,8.833,9.813Z" transform="translate(1036.374 -398.086)" fill="#efcb96"/>
      <path id="Path_4284" data-name="Path 4284" d="M-655.151,567.8c-2.324-.693-8.106-7.345-10.117-9.348l.473-.008a.326.326,0,0,0,.355-.33,1.879,1.879,0,0,0-.008-.3c.11.008.2.008.3.008a.506.506,0,0,0,.473-.279c4.725-8.621,17.75-9.813,28.323-12.264,2.02-.465,3.372-.042,4.049,1.285a1.085,1.085,0,0,1-.008,1.006l-1.124,2.138a.67.67,0,0,0,.625.981c7.227-.3,13.921-.076,20.9-2.468,5.274-1.809,7.336,3.66,1.217,5.646a97.017,97.017,0,0,1-27.58,4.716c-8.63.211-11.6,5.181-17.876,9.221Z" transform="translate(985.444 -398.084)" fill="#efcb96"/>
      <path id="Path_4285" data-name="Path 4285" d="M-740.012,637.866l-.211,47.7a1.414,1.414,0,0,1-1.589,1.589l-12.67.059.008-78.9a.353.353,0,0,0-.4-.4h-6.1a.572.572,0,0,1-.414-.186l-3.8-4.285c-.507-.575-.752-.482-.744.287.414,25.678-.287,46.9-.051,77.355.008,2.071.1,4.066.279,6l-58.042.2-.008-78.944a.364.364,0,0,0-.414-.414l-23.278-.042a.674.674,0,0,0-.769.769l.017,78.513-33.708-.017a2.3,2.3,0,0,1-2.3-2.324l.558-45.777c0-5.328-.448-24.022-.448-30.2,0-.8-.321-1.183-1.116-1.175l-18.586.3a.227.227,0,0,1-.169-.38l21.181-23.895a.846.846,0,0,1,.668-.3h141.043a1.327,1.327,0,0,1,.98.44l21.173,23.438c.33.363.254.549-.245.549l-20.522.085a.252.252,0,0,0-.287.287l.2,24.85h0a10.323,10.323,0,0,1,1.538,4.108c-.085.287-.541.4-1.369.338" transform="translate(1022.398 -404.013)" fill="#f1f1f1"/>
      <path id="Path_4286" data-name="Path 4286" d="M-729.214,690.812l-11.225-.127c-.177-1.936-.27-3.93-.279-6-.237-30.453.465-51.677.051-77.355-.008-.769.237-.862.744-.287l3.8,4.285a.572.572,0,0,0,.414.186h6.1a.353.353,0,0,1,.4.4l-.008,78.9Z" transform="translate(997.129 -407.615)" fill="#f05746"/>
      <path id="Path_4287" data-name="Path 4287" d="M-813.529,691.77l-24.452-.118L-838,613.139a.674.674,0,0,1,.769-.769l23.278.042a.364.364,0,0,1,.414.414l.008,78.944Z" transform="translate(1012.178 -408.496)" fill="#f05746"/>
      <path id="Path_4288" data-name="Path 4288" d="M-759.913,647c11.064,1.564,20.218,7.362,23.176,18.181,3.88,14.191-4.361,26.861-18.392,31.062a.491.491,0,0,0-.347.541.492.492,0,0,0,.49.423h132.6a.561.561,0,0,1,.507.794l-.135.3a.645.645,0,0,1-.625.4c-47.054-.118-101.216.431-154.321-.355q-7.354-.114-16.9.076c-23.168.465-50.739.051-75.377-.118-2.1-.008-5.266.4-7.759.4q-83.221-.14-166.45-.025a.6.6,0,0,1-.6-.617c0-.093-.008-.186-.017-.3a.512.512,0,0,1,.516-.583q50.282.152,100.717-.1c.279-.008.592-.237.938-.693a1.473,1.473,0,0,0,1.15.575q6.187.076,12.129.034a.386.386,0,0,0,.44-.44l-.008-46.8a60.269,60.269,0,0,1,22.863-.854l-.558,45.777a2.3,2.3,0,0,0,2.3,2.324l33.708.017,24.452.118,58.042-.2,11.225.127,12.67-.059a1.414,1.414,0,0,0,1.589-1.589l.211-47.7c0-.262,1.69-.423,1.775-.71Z" transform="translate(1044.074 -413.856)" fill="#3d3d3d"/>
      <path id="Path_4289" data-name="Path 4289" d="M-910.289,650.174l.009,46.8a.386.386,0,0,1-.44.44q-5.946.038-12.129-.034a1.473,1.473,0,0,1-1.15-.575c-3.482-.744-4.091-3.144-4.049-6.525q.216-17.851-.372-35.668a20.745,20.745,0,0,1,.355-3.66,1.405,1.405,0,0,1,1.42-1.192l16.355.414Z" transform="translate(1026.174 -414.283)" fill="#f1f1f1"/>
    </g>
    <path id="Path_4290" data-name="Path 4290" d="M-882.7,583.223l-21.443,24.5a.092.092,0,0,0,.069.152h97.589a.1.1,0,0,0,.067-.029l22.056-23.243a.091.091,0,0,1,.136,0L-764,608.476a.093.093,0,0,0,.071.032l45.9-.45a.092.092,0,0,0,.067-.153l-22.335-24.684a.09.09,0,0,0-.068-.03H-882.628A.09.09,0,0,0-882.7,583.223Z" transform="translate(-21.655 -32.817)" fill="#e4e4e3"/>
  </g>
</svg>
