<svg xmlns="http://www.w3.org/2000/svg" width="45.694" height="45.68" viewBox="0 0 45.694 45.68">
  <g id="Group_1430" data-name="Group 1430" transform="translate(534.302 -1178.075)">
    <g id="Group_1429" data-name="Group 1429" transform="translate(-534.302 1178.075)">
      <path id="Path_1705" data-name="Path 1705" d="M-499.457,1178.139a9.418,9.418,0,0,0-.961.415,3.856,3.856,0,0,0-2.085,3.542c-.014,3.755,0,7.511,0,11.266v.591h-1.434q-2.118,0-4.237,0a4.01,4.01,0,0,0-4.27,4.291q0,10.452,0,20.9v.62h-21.815c-.008-.179-.023-.344-.023-.508q0-18.483-.015-36.966a4.058,4.058,0,0,1,3.216-4.146,5.564,5.564,0,0,1,1.019-.071q15.084-.005,30.169,0h.438Zm-19.907,8.877q4.772,0,9.544,0a2.582,2.582,0,0,0,.644-.064.952.952,0,0,0,.7-.93.949.949,0,0,0-.7-.936,2.767,2.767,0,0,0-.69-.066q-9.544,0-19.087,0c-.9,0-1.39.364-1.376,1.019.014.64.488.983,1.367.983Zm.013,2.98h-9.589a4.352,4.352,0,0,0-.511.015.966.966,0,0,0-.817,1.258c.145.479.515.705,1.17.705h19.411a2.324,2.324,0,0,0,.372-.014,1,1,0,0,0,.846-.968.981.981,0,0,0-.78-.969,3.265,3.265,0,0,0-.557-.026Q-514.58,1189.994-519.351,1190Zm-2.992,11.92c2.265,0,4.531.006,6.8,0a1.006,1.006,0,0,0,1.115-.994,1.018,1.018,0,0,0-1.108-1c-.077,0-.155,0-.233,0q-6.61,0-13.22,0a2.7,2.7,0,0,0-.509.034.982.982,0,0,0-.819.985.984.984,0,0,0,.813.944,2.952,2.952,0,0,0,.555.036Q-525.648,1201.917-522.343,1201.915Zm-.039-4.982h5.26c.589,0,1.18.013,1.768-.013a.959.959,0,0,0,.922-.932,1,1,0,0,0-.885-1.023,3.857,3.857,0,0,0-.465-.01h-9.961q-1.745,0-3.491,0a.984.984,0,0,0-1.019.656.979.979,0,0,0,1.03,1.319C-526.944,1196.938-524.663,1196.932-522.382,1196.933Zm.039,7.963q-3.118,0-6.237,0c-.295,0-.591-.01-.883.018a.94.94,0,0,0-.839.809.948.948,0,0,0,.537,1.035,1.664,1.664,0,0,0,.632.112q6.749.009,13.5,0a2.446,2.446,0,0,0,.325-.01,1,1,0,0,0,.878-1.031.977.977,0,0,0-.929-.929c-.154-.013-.31-.008-.465-.009Zm-.042,6.938h5.074c.652,0,1.3.013,1.954-.013a.957.957,0,0,0,.924-.929,1,1,0,0,0-.882-1.026,3.758,3.758,0,0,0-.465-.01h-9.5q-1.978,0-3.956,0a.986.986,0,0,0-1.022.654.979.979,0,0,0,1.026,1.322C-526.947,1211.839-524.666,1211.833-522.385,1211.834Z" transform="translate(534.302 -1178.075)" fill="#959ca7"/>
      <path id="Path_1706" data-name="Path 1706" d="M-320.728,1335.692q0,5.8,0,11.593a2.016,2.016,0,0,1-2.306,2.307h-17.227a2.015,2.015,0,0,1-2.305-2.306q0-11.593,0-23.187a2.013,2.013,0,0,1,2.305-2.306h17.227a2.014,2.014,0,0,1,2.306,2.305Q-320.727,1329.9-320.728,1335.692Zm-10.943-1q3.352,0,6.7,0c.942,0,1.257-.315,1.258-1.256q0-3.7,0-7.4c0-.943-.314-1.257-1.256-1.257q-6.681,0-13.363,0c-.944,0-1.257.314-1.258,1.256q0,3.7,0,7.4c0,.943.315,1.257,1.256,1.258Q-335,1334.694-331.671,1334.691Zm-5.94,7.959v0c.341,0,.683.022,1.022-.005a.968.968,0,0,0,.953-1,.957.957,0,0,0-.97-.98c-.665-.03-1.333-.029-2,0a.959.959,0,0,0-.976.975.978.978,0,0,0,.993,1.009C-338.263,1342.667-337.936,1342.65-337.611,1342.65Zm5.933,0v0c.356,0,.715.025,1.068-.006a.96.96,0,0,0,.935-.968.949.949,0,0,0-.943-1c-.68-.035-1.364-.034-2.044,0a.955.955,0,0,0-.958.991.972.972,0,0,0,.966.987C-332.33,1342.669-332,1342.648-331.678,1342.648Zm5.951,0v0c.341,0,.683.019,1.022,0a.976.976,0,0,0,.989-1.012.959.959,0,0,0-.98-.971c-.665-.028-1.333-.029-2,0a.958.958,0,0,0-.966.984.97.97,0,0,0,.957.995C-326.379,1342.669-326.052,1342.647-325.727,1342.647Zm-11.885,3.956c.356,0,.714.018,1.068,0a.936.936,0,0,0,.907-.934.941.941,0,0,0-.875-1.015c-.726-.035-1.457-.034-2.183,0a.945.945,0,0,0-.885,1.008.936.936,0,0,0,.9.942C-338.326,1346.622-337.968,1346.6-337.612,1346.6Zm5.938,0c.356,0,.714.016,1.069,0a.939.939,0,0,0,.929-.914.938.938,0,0,0-.852-1.034,21.452,21.452,0,0,0-2.229,0,.941.941,0,0,0-.86,1.029.939.939,0,0,0,.922.921C-332.357,1346.621-332.015,1346.6-331.674,1346.6Zm5.943,0c.372,0,.745.02,1.115,0a.934.934,0,0,0,.9-.941.94.94,0,0,0-.882-1.009c-.726-.034-1.457-.034-2.183,0a.944.944,0,0,0-.877,1.014.937.937,0,0,0,.906.936C-326.414,1346.621-326.072,1346.6-325.731,1346.6Zm-11.885-9.9v0c-.341,0-.682-.015-1.022,0a.943.943,0,0,0-.941.95.946.946,0,0,0,.889,1c.727.033,1.457.035,2.183,0a.944.944,0,0,0,.871-1.02.935.935,0,0,0-.911-.93C-336.9,1336.684-337.26,1336.7-337.616,1336.7Zm6,0c-.356,0-.713-.016-1.068,0a.942.942,0,0,0-.933.958.948.948,0,0,0,.9,1c.711.031,1.426.03,2.137,0a.948.948,0,0,0,.91-.987.94.94,0,0,0-.922-.968C-330.936,1336.684-331.278,1336.7-331.618,1336.7Zm5.9,1.97h0c.356,0,.714.018,1.069,0a.965.965,0,0,0,.934-1.012.933.933,0,0,0-.942-.948q-1.021-.033-2.044,0a.94.94,0,0,0-.959.98.971.971,0,0,0,.966.984C-326.369,1338.684-326.043,1338.67-325.718,1338.67Z" transform="translate(366.422 -1303.912)" fill="#959ca7"/>
      <path id="Path_1707" data-name="Path 1707" d="M-256.893,1199.924H-262.8a1.944,1.944,0,0,1-.042-.3c.014-1.036-.042-2.081.067-3.108a2.907,2.907,0,0,1,3.111-2.518,2.938,2.938,0,0,1,2.764,2.807C-256.866,1197.833-256.893,1198.867-256.893,1199.924Z" transform="translate(296.618 -1192.009)" fill="#959ca7"/>
      <path id="Path_1708" data-name="Path 1708" d="M-290.547,1361.912v5.9h-11.862v-5.9Z" transform="translate(331.26 -1339.04)" fill="#959ca7"/>
    </g>
  </g>
</svg>
