<svg xmlns="http://www.w3.org/2000/svg" width="26.435" height="24.439" viewBox="0 0 26.435 24.439">
  <g id="add" transform="translate(2735.73 -4493.95)">
    <g id="Group_275" data-name="Group 275" transform="translate(-2735.73 4493.95)">
      <path id="Path_144" data-name="Path 144" d="M-2715.779,4493.951h-13.467a6.483,6.483,0,0,0-6.484,6.484v11.471a6.484,6.484,0,0,0,6.484,6.484h13.467a6.484,6.484,0,0,0,6.484-6.484v-11.471A6.483,6.483,0,0,0-2715.779,4493.951Zm.5,14.653h-4.793v4.8a2.627,2.627,0,0,1-2.624,2.625,2.624,2.624,0,0,1-2.623-2.625v-4.8h-4.8a2.622,2.622,0,0,1-2.623-2.62,2.622,2.622,0,0,1,2.623-2.621h4.8v-4.8a2.623,2.623,0,0,1,2.623-2.623,2.626,2.626,0,0,1,2.624,2.623v4.8h4.793a2.622,2.622,0,0,1,2.624,2.621A2.622,2.622,0,0,1-2715.281,4508.6Z" transform="translate(2735.73 -4493.951)" fill="#1492e6"/>
    </g>
  </g>
</svg>
