<svg xmlns="http://www.w3.org/2000/svg" width="15.101" height="18.022" viewBox="0 0 15.101 18.022">
  <g id="Group_1024" data-name="Group 1024" transform="translate(2600.343 -2126.449)">
    <path id="Path_203" data-name="Path 203" d="M-2468.166,2254.47a3,3,0,0,0-3,3,3,3,0,0,0,3,3,3,3,0,0,0,3-3A3,3,0,0,0-2468.166,2254.47Zm0,4.505a1.5,1.5,0,0,1-1.5-1.5,1.5,1.5,0,0,1,1.5-1.5,1.5,1.5,0,0,1,1.5,1.5A1.5,1.5,0,0,1-2468.166,2258.975Z" transform="translate(-124.626 -123.515)" fill="#959ca7"/>
    <path id="Path_204" data-name="Path 204" d="M-2592.792,2144.471a3.958,3.958,0,0,1-3.237-1.652c-2.862-3.948-4.313-6.915-4.313-8.821a7.55,7.55,0,0,1,7.551-7.55,7.55,7.55,0,0,1,7.55,7.55c0,1.906-1.452,4.873-4.313,8.821A3.958,3.958,0,0,1-2592.792,2144.471Zm0-16.384a5.919,5.919,0,0,0-5.913,5.913c0,1.509,1.422,4.3,4,7.859a2.362,2.362,0,0,0,3.3.523,2.345,2.345,0,0,0,.523-.523c2.58-3.558,4-6.35,4-7.859A5.92,5.92,0,0,0-2592.792,2128.087Z" transform="translate(0)" fill="#959ca7"/>
  </g>
</svg>
