<svg xmlns="http://www.w3.org/2000/svg" width="49.63" height="49.595" viewBox="0 0 49.63 49.595">
  <g id="Group_1428" data-name="Group 1428" transform="translate(246.112 -1452.611)">
    <g id="Group_1427" data-name="Group 1427" transform="translate(-246.112 1452.611)">
      <path id="Path_1703" data-name="Path 1703" d="M-221.981,1598.526a4.6,4.6,0,0,1-3.151-2.333,4.287,4.287,0,0,1,1.951-5.907.651.651,0,0,0,.444-.724c-.028-.868-.009-1.737-.009-2.633h-14.53c0,.655.041,1.328-.011,1.994a1.436,1.436,0,0,0,.849,1.614,4.118,4.118,0,0,1,1.971,4.519,4.38,4.38,0,0,1-3.457,3.383c-.043.009-.083.025-.121.127a24.254,24.254,0,0,1,2.655.016,4.272,4.272,0,0,1,3.919,4.343c.031,1.937.015,3.874,0,5.811a1.429,1.429,0,0,1-1.489,1.5q-5.812.015-11.623,0a1.383,1.383,0,0,1-1.486-1.3c-.029-2.162-.109-4.333.046-6.485a4.22,4.22,0,0,1,4.369-3.933c.742-.013,1.484,0,2.234-.028a4.579,4.579,0,0,1-3.142-2.17,4.218,4.218,0,0,1,1.914-6.035.688.688,0,0,0,.472-.752c-.024-1.307-.013-2.615-.008-3.923a1.471,1.471,0,0,1,1.621-1.622c2.308,0,4.615,0,7,0v-.477c0-1.275,0-2.551,0-3.826a7.269,7.269,0,0,1,7.416-7.417c.449,0,.9,0,1.4,0,0,.213,0,.385,0,.557,0,2.228-.007,4.456.006,6.683a1.443,1.443,0,0,0,1.327,1.47,1.46,1.46,0,0,0,1.545-1.182,3.17,3.17,0,0,0,.028-.579q0-3.172,0-6.344v-.569a8.209,8.209,0,0,1,5.049.931,7.138,7.138,0,0,1,3.661,6.259c.036,1.323.007,2.647.007,3.971,0,.157,0,.315,0,.524h.753q3.124,0,6.247,0a1.5,1.5,0,0,1,1.717,1.721c0,1.307.011,2.615-.007,3.922a.557.557,0,0,0,.385.611,4.224,4.224,0,0,1,1.948,6.162,4.648,4.648,0,0,1-3.082,2.113h1.064c.371,0,.743-.007,1.114,0a4.233,4.233,0,0,1,4.033,2.506,5.079,5.079,0,0,1,.433,1.959c.056,1.887.025,3.777.018,5.666a1.462,1.462,0,0,1-1.606,1.588q-5.715.007-11.429,0a1.462,1.462,0,0,1-1.588-1.606c-.006-1.873-.014-3.745,0-5.618a4.374,4.374,0,0,1,4.5-4.494c.692-.008,1.385,0,2.084-.027a4.489,4.489,0,0,1-3.168-2.314,4.293,4.293,0,0,1,1.962-5.905.619.619,0,0,0,.439-.678c-.032-.883-.01-1.767-.01-2.675h-14.526c0,1-.008,2.014.013,3.023,0,.089.179.2.3.257a4.259,4.259,0,0,1,2.314,5.409,4.412,4.412,0,0,1-3.381,2.91h1.005c.355,0,.71-.007,1.065,0a4.223,4.223,0,0,1,4.036,2.5,5.223,5.223,0,0,1,.438,2.005c.058,1.871.025,3.745.018,5.617a1.461,1.461,0,0,1-1.6,1.6q-5.666.007-11.332,0a1.461,1.461,0,0,1-1.6-1.6c-.006-1.873-.013-3.745,0-5.618a4.375,4.375,0,0,1,4.493-4.5C-223.368,1598.52-222.674,1598.526-221.981,1598.526Z" transform="translate(246.112 -1560.653)" fill="#959ca7"/>
      <path id="Path_1704" data-name="Path 1704" d="M-45.343,1464.231a5.9,5.9,0,0,1-5.871-5.836,5.9,5.9,0,0,1,5.923-5.784,5.827,5.827,0,0,1,5.794,5.836A5.827,5.827,0,0,1-45.343,1464.231Z" transform="translate(70.127 -1452.611)" fill="#959ca7"/>
    </g>
  </g>
</svg>
