<svg xmlns="http://www.w3.org/2000/svg" width="13.169" height="13.171" viewBox="0 0 13.169 13.171">
  <g id="Group_2536" data-name="Group 2536" transform="translate(-1157.755 -10606.641)">
    <path id="Path_1720" data-name="Path 1720" d="M1185.668,10607.848v-.576a.549.549,0,1,0-1.1,0v.576a6.025,6.025,0,0,0-4.016,9.945,1.659,1.659,0,0,0-.922,1.549.549.549,0,1,0,1.1,0,.657.657,0,0,1,.609-.674.538.538,0,0,0,.11-.034,5.994,5.994,0,0,0,7.347,0,.593.593,0,0,0,.1.035.659.659,0,0,1,.613.673.549.549,0,1,0,1.1,0,1.658,1.658,0,0,0-.922-1.549,6.024,6.024,0,0,0-4.016-9.945Zm-5.487,6.008a4.938,4.938,0,1,1,4.938,4.938A4.938,4.938,0,0,1,1180.181,10613.855Z" transform="translate(-20.78 -0.08)" fill="#e6ad27"/>
    <path id="Path_1721" data-name="Path 1721" d="M1546.891,10606.645a.549.549,0,0,0,0,1.1,1.421,1.421,0,0,1,1.525,1.31c0,.021,0,.041,0,.062a.549.549,0,1,0,1.1,0,2.525,2.525,0,0,0-2.576-2.471Z" transform="translate(-378.593)" fill="#e6ad27"/>
    <path id="Path_1722" data-name="Path 1722" d="M1158.852,10609.111a1.421,1.421,0,0,1,1.466-1.375l.062,0a.549.549,0,0,0,0-1.1,2.524,2.524,0,0,0-2.624,2.42c0,.016,0,.033,0,.049a.549.549,0,1,0,1.1,0Z" transform="translate(0)" fill="#e6ad27"/>
    <path id="Path_1723" data-name="Path 1723" d="M1393.519,10737.787v-2.516a.549.549,0,1,0-1.1,0v2.743a.548.548,0,0,0,.161.388l1.646,1.646a.549.549,0,0,0,.776-.776Z" transform="translate(-228.631 -124.789)" fill="#e6ad27"/>
  </g>
</svg>
