<?xml version="1.0" encoding="utf-8"?>
<!-- Generator: Adobe Illustrator 26.0.0, SVG Export Plug-In . SVG Version: 6.00 Build 0)  -->
<svg version="1.1" id="Layer_1" xmlns="http://www.w3.org/2000/svg" xmlns:xlink="http://www.w3.org/1999/xlink" x="0px" y="0px"
	 viewBox="0 0 41.7 42.7" style="enable-background:new 0 0 41.7 42.7;" xml:space="preserve">
<style type="text/css">
	.st0{fill:#FFFFFF;}
	.st1{fill-rule:evenodd;clip-rule:evenodd;}
	.st2{fill:#616161;}
	.st3{fill:#F09E2C;}
	.st4{fill:#935CA4;}
	.st5{fill:#453ABB;}
	.st6{fill:#B35756;}
	.st7{fill:#67BD8C;}
	.st8{fill:#E8662D;}
	.st9{fill:#E82D32;}
	.st10{fill:#F0602C;}
	.st11{fill:#6D5CA4;}
	.st12{fill:#3A75BB;}
	.st13{fill:#B3569C;}
	.st14{fill:#7FBD67;}
	.st15{stroke:#000000;stroke-miterlimit:10;}
	.st16{fill:#4F5A5A;}
	.st17{fill:#7C8989;}
	.st18{fill:#959CA7;}
	.st19{fill:none;}
	.st20{fill:url(#SVGID_1_);}
	
		.st21{clip-path:url(#XMLID_00000000916664066289773610000014501724456191043770_);fill:url(#SVGID_00000003071939708106489900000006249821435893612193_);}
	
		.st22{clip-path:url(#XMLID_00000165951691926765472360000012625783992861057466_);fill:url(#SVGID_00000099640456375077300920000015098169546193779849_);}
	.st23{fill:url(#SVGID_00000147911560266738475390000012010587211286380735_);}
	.st24{fill:url(#SVGID_00000041977618557581485780000007840081024707586197_);}
	.st25{fill:url(#SVGID_00000116225599210735786190000009045269592533481150_);}
	.st26{fill:#FEFEFE;}
	.st27{display:none;fill:none;stroke:#9B3535;stroke-width:24;stroke-miterlimit:10;}
	.st28{fill:#DFEBF7;enable-background:new    ;}
	.st29{fill:url(#SVGID_00000181069387841240218880000010816771298226454950_);}
	.st30{fill:url(#SVGID_00000052824897965139349130000006153957497102052008_);}
	.st31{fill:url(#SVGID_00000120527160590200270510000010299519166120008835_);}
	.st32{fill:url(#SVGID_00000048475710116195238120000001286089437634081153_);}
	.st33{fill:url(#SVGID_00000062165308165494252170000013756980497545015718_);}
	.st34{fill:url(#SVGID_00000176729032066738458700000014902454821928226230_);}
	.st35{fill:#9B3535;}
	.st36{fill:url(#SVGID_00000058558489467587404120000007716052883323894423_);}
	.st37{fill:#E4252A;}
	.st38{fill:#EC676A;}
	.st39{fill:#00733B;}
	.st40{fill:#4D9C76;}
	.st41{fill:#4CBEA5;}
	.st42{fill:#454C55;}
	.st43{fill:#010101;}
	.st44{fill:none;stroke:#707070;}
</style>
<g>
	<path class="st2" d="M40.4,7.3c-1-1.2-2.5-1.9-4.1-1.9H7.5L7.5,4.7C7.2,2,4.9,0,2.2,0H1.8C0.8,0,0,0.8,0,1.8s0.8,1.8,1.8,1.8h0.4
		c0.9,0,1.7,0.7,1.8,1.6L6.4,26c0.5,4.5,4.3,7.9,8.8,7.9h18.6c1,0,1.8-0.8,1.8-1.8c0-1-0.8-1.8-1.8-1.8H15.2c-2.3,0-4.3-1.4-5-3.6
		h21.2c4.3,0,8-3.1,8.8-7.3l1.4-7.7C41.9,10.1,41.4,8.5,40.4,7.3z M38.1,11l-1.4,7.7c-0.5,2.5-2.7,4.4-5.3,4.4H9.6L8,8.9h28.4
		c1,0,1.8,0.8,1.8,1.8C38.1,10.8,38.1,10.9,38.1,11z"/>
	<circle class="st2" cx="12.5" cy="39.2" r="3.6"/>
	<circle class="st2" cx="30.3" cy="39.2" r="3.6"/>
</g>
</svg>
