<svg xmlns="http://www.w3.org/2000/svg" width="15.861" height="15.861" viewBox="0 0 15.861 15.861">
  <g id="Group_2132" data-name="Group 2132" transform="translate(-5526.515 -347.696)">
    <path id="Path_2021" data-name="Path 2021" d="M5534.446,347.7a7.93,7.93,0,1,0,7.931,7.931A7.93,7.93,0,0,0,5534.446,347.7Zm0,14.539a6.609,6.609,0,1,1,6.608-6.609A6.609,6.609,0,0,1,5534.446,362.235Zm3.3-6.609a.661.661,0,0,1-.661.661h-1.983v1.983a.661.661,0,0,1-1.322,0v-1.983H5531.8a.661.661,0,0,1,0-1.322h1.983v-1.983a.661.661,0,0,1,1.322,0v1.983h1.983A.661.661,0,0,1,5537.75,355.627Z" fill="#fff"/>
  </g>
</svg>
