<svg xmlns="http://www.w3.org/2000/svg" width="200.458" height="25.517" viewBox="0 0 200.458 25.517">
  <g id="Group_2539" data-name="Group 2539" transform="translate(-1335.743 -323.242)">
    <text id="Create_a_statement" data-name="Create a statement" transform="translate(1368.201 342)" fill="#707070" font-size="20" font-family="Bahnschrift"><tspan x="0" y="0">Create a statement</tspan></text>
    <g id="Group_2483" data-name="Group 2483" transform="translate(-4187.772 -24.454)">
      <path id="Path_2694" data-name="Path 2694" d="M5539.273,347.7a12.758,12.758,0,1,0,12.758,12.758A12.758,12.758,0,0,0,5539.273,347.7Zm0,23.39a10.632,10.632,0,1,1,10.632-10.632A10.632,10.632,0,0,1,5539.273,371.086Zm5.316-10.632a1.063,1.063,0,0,1-1.063,1.063h-3.189v3.19a1.063,1.063,0,0,1-2.126,0v-3.19h-3.19a1.063,1.063,0,0,1,0-2.126h3.19V356.2a1.063,1.063,0,1,1,2.126,0v3.19h3.189A1.063,1.063,0,0,1,5544.589,360.454Z" transform="translate(-3 0)" fill="#707070"/>
    </g>
  </g>
</svg>
