<svg xmlns="http://www.w3.org/2000/svg" width="18.574" height="16.988" viewBox="0 0 18.574 16.988">
  <g id="Group_1497" data-name="Group 1497" transform="translate(-6169.36 -10433.742)">
    <path id="Path_1756" data-name="Path 1756" d="M6187.833,10658.833a1.71,1.71,0,0,0-2.223-.3c-.837.584-1.646,1.207-2.462,1.82-.107.08-.155.069-.245-.022a2.081,2.081,0,0,0-1.852-.665c-.7.1-1.4.218-2.088.353a3.767,3.767,0,0,1-1.983-.046,3.676,3.676,0,0,0-1.143-.18,4.513,4.513,0,0,0-2.825.909.3.3,0,0,1-.164.092c-.028-.159-.057-.317-.084-.476-.05-.294-.184-.4-.476-.354q-1.3.221-2.6.458c-.268.048-.358.2-.311.471.152.869.3,1.736.455,2.605q.285,1.623.573,3.246a.344.344,0,0,0,.448.32q1.259-.217,2.515-.441c.4-.071.476-.185.4-.586a.182.182,0,0,1,.076-.214c.165-.122.322-.256.479-.388a1.33,1.33,0,0,1,.986-.328l3.364.244a6.912,6.912,0,0,0,2.022-.02,3.9,3.9,0,0,0,1.923-.911c1.711-1.649,3.4-3.32,5.1-4.983a1.814,1.814,0,0,0,.139-.143A.33.33,0,0,0,6187.833,10658.833Zm-14.859,7.181c-.618.108-1.237.215-1.854.326-.1.018-.119-.02-.135-.109q-.341-1.989-.691-3.977c-.063-.362-.122-.727-.2-1.086-.025-.124.006-.148.122-.168q.883-.146,1.764-.312c.137-.027.174.018.195.142q.36,2.086.728,4.173c.053.3.1.606.159.926C6173.082,10665.988,6173.033,10666,6172.973,10666.014Zm14.03-6.822c-1.61,1.579-3.216,3.164-4.839,4.732a3.269,3.269,0,0,1-1.6.753,5.529,5.529,0,0,1-1.679.021c-1.188-.086-2.375-.181-3.564-.262a1.974,1.974,0,0,0-1.424.479l-.288.235c-.2-1.172-.4-2.314-.606-3.455a.161.161,0,0,1,.064-.17,3.79,3.79,0,0,1,3.5-.963,5.632,5.632,0,0,0,1.55.244c.544-.036,1.074-.166,1.61-.248.507-.078,1.006-.209,1.52-.242a1.5,1.5,0,0,1,1.473.943l-1.044.187q-1.284.221-2.57.446a.394.394,0,0,0-.329.193.323.323,0,0,0,.019.342.341.341,0,0,0,.368.138c.428-.073.857-.149,1.285-.226.874-.152,1.749-.308,2.623-.457.375-.065.47-.205.373-.58a.7.7,0,0,0-.051-.174c-.046-.085-.008-.128.058-.177.8-.6,1.605-1.2,2.412-1.8a1.071,1.071,0,0,1,1.22-.083C6187.087,10659.14,6187.035,10659.16,6187,10659.191Z" transform="translate(0 -216.342)" fill="#24c2eb"/>
    <path id="Path_1757" data-name="Path 1757" d="M6434.092,10494.261a.314.314,0,0,1-.065.354.338.338,0,0,1-.261.1c-.6,0-1.209,0-1.813,0a.356.356,0,0,1-.382-.39c0-.4,0-.8,0-1.2s0-.8,0-1.2a.321.321,0,0,1,.266-.339.317.317,0,0,1,.361.178.506.506,0,0,1,.034.248c0,.623,0,1.245,0,1.867,0,.136.033.174.17.171.459-.009.918,0,1.378,0A.319.319,0,0,1,6434.092,10494.261Z" transform="translate(-252.672 -55.743)" fill="#24c2eb"/>
    <path id="Path_1758" data-name="Path 1758" d="M6327.422,10433.742a4.537,4.537,0,1,0,4.526,4.553A4.542,4.542,0,0,0,6327.422,10433.742Zm-.013,8.4a3.87,3.87,0,1,1,3.876-3.872A3.874,3.874,0,0,1,6327.409,10442.144Z" transform="translate(-147.932)" fill="#24c2eb"/>
    <path id="Path_1759" data-name="Path 1759" d="M6434.027,10494.614a.338.338,0,0,1-.261.1c-.6,0-1.209,0-1.813,0a.356.356,0,0,1-.382-.39c0-.4,0-.8,0-1.2s0-.8,0-1.2a.321.321,0,0,1,.266-.339.317.317,0,0,1,.361.178.506.506,0,0,1,.034.248c0,.623,0,1.245,0,1.867,0,.136.033.174.17.171.459-.009.918,0,1.378,0a.319.319,0,0,1,.314.2A.314.314,0,0,1,6434.027,10494.614Z" transform="translate(-252.672 -55.743)" fill="#24c2eb"/>
    <path id="Path_1760" data-name="Path 1760" d="M6434.027,10494.614a.338.338,0,0,1-.261.1c-.6,0-1.209,0-1.813,0a.356.356,0,0,1-.382-.39c0-.4,0-.8,0-1.2s0-.8,0-1.2a.321.321,0,0,1,.266-.339.317.317,0,0,1,.361.178.506.506,0,0,1,.034.248c0,.623,0,1.245,0,1.867,0,.136.033.174.17.171.459-.009.918,0,1.378,0a.319.319,0,0,1,.314.2A.314.314,0,0,1,6434.027,10494.614Z" transform="translate(-252.672 -55.743)" fill="#24c2eb"/>
  </g>
</svg>
