<svg xmlns="http://www.w3.org/2000/svg" width="20.781" height="20.78" viewBox="0 0 20.781 20.78">
  <g id="Group_2004" data-name="Group 2004" transform="translate(5702.948 3790.417)">
    <path id="Path_1960" data-name="Path 1960" d="M-5688.228-3781.725a6.069,6.069,0,0,0-6.061,6.061,6.052,6.052,0,0,0,6.061,6.027,6.068,6.068,0,0,0,6.061-6.061A6.052,6.052,0,0,0-5688.228-3781.725Zm0,10.357a4.318,4.318,0,0,1-4.329-4.3,4.334,4.334,0,0,1,4.329-4.329,4.317,4.317,0,0,1,4.329,4.295A4.335,4.335,0,0,1-5688.228-3771.368Zm1.478-4.076a.866.866,0,0,1,0,1.224.864.864,0,0,1-.612.254.861.861,0,0,1-.612-.254l-.866-.866a.862.862,0,0,1-.254-.612v-1.731a.866.866,0,0,1,.866-.866.866.866,0,0,1,.866.866v1.373Zm4.583-8.912v1.731a.866.866,0,0,1-.866.866.865.865,0,0,1-.866-.866v-1.731a2.6,2.6,0,0,0-2.6-2.6h-12.122a2.6,2.6,0,0,0-2.6,2.6v.866h7.793a.865.865,0,0,1,.866.865.866.866,0,0,1-.866.866h-7.793v7.793a2.6,2.6,0,0,0,2.6,2.6h3.463a.866.866,0,0,1,.866.865.866.866,0,0,1-.866.866h-3.463a4.335,4.335,0,0,1-4.33-4.329v-10.39a4.335,4.335,0,0,1,4.33-4.33h.865v-.865a.866.866,0,0,1,.866-.866.866.866,0,0,1,.866.866v.865h6.927v-.865a.866.866,0,0,1,.866-.866.866.866,0,0,1,.866.866v.865h.866a4.335,4.335,0,0,1,4.329,4.33Z" fill="#9ca0a3"/>
  </g>
</svg>
