<svg xmlns="http://www.w3.org/2000/svg" width="20.7" height="20.7" viewBox="0 0 20.7 20.7">
  <path id="Path_1959" data-name="Path 1959" d="M-5675.267-3781.725h-1.725a1.727,1.727,0,0,0-1.725,1.725v1.725a1.727,1.727,0,0,0,1.725,1.725h1.725a1.727,1.727,0,0,0,1.725-1.725V-3780A1.727,1.727,0,0,0-5675.267-3781.725Zm-1.725,3.45V-3780h1.725v1.725Zm11.212-12.075h-.862v-.862a.862.862,0,0,0-.863-.863.862.862,0,0,0-.862.863v.862h-6.9v-.862a.862.862,0,0,0-.863-.863.862.862,0,0,0-.862.863v.862h-.863a4.317,4.317,0,0,0-4.312,4.313v10.35a4.317,4.317,0,0,0,4.312,4.312h12.075a4.318,4.318,0,0,0,4.313-4.312v-10.35A4.318,4.318,0,0,0-5665.78-3790.35Zm-12.075,1.725h12.075a2.591,2.591,0,0,1,2.588,2.588v.862h-17.25v-.862A2.591,2.591,0,0,1-5677.855-3788.625Zm12.075,15.525h-12.075a2.591,2.591,0,0,1-2.587-2.587v-7.763h17.25v7.763A2.591,2.591,0,0,1-5665.78-3773.1Z" transform="translate(5682.167 3792.075)" fill="#9ca0a3"/>
</svg>
