<svg xmlns="http://www.w3.org/2000/svg" width="17.128" height="17.128" viewBox="0 0 17.128 17.128">
  <g id="Group_255" data-name="Group 255" transform="translate(3202.87 -4561.375)">
    <g id="Group_254" data-name="Group 254" transform="translate(-3202.87 4561.375)">
      <path id="Path_141" data-name="Path 141" d="M-3036.771,4721.675a1.071,1.071,0,0,0-1.514,0h0l-1.384,1.384-1.384-1.384a1.072,1.072,0,0,0-1.515,0,1.071,1.071,0,0,0,0,1.514l1.385,1.384-1.385,1.384a1.071,1.071,0,0,0,0,1.515,1.071,1.071,0,0,0,1.515,0h0l1.384-1.385,1.384,1.385a1.071,1.071,0,0,0,1.515,0,1.072,1.072,0,0,0,0-1.515l-1.385-1.384,1.385-1.384a1.07,1.07,0,0,0,0-1.513Z" transform="translate(3048.233 -4716.009)" fill="#e15757"/>
      <path id="Path_142" data-name="Path 142" d="M-3194.306,4561.375a8.564,8.564,0,0,0-8.564,8.564,8.564,8.564,0,0,0,8.564,8.564,8.564,8.564,0,0,0,8.564-8.564A8.574,8.574,0,0,0-3194.306,4561.375Zm0,14.987a6.423,6.423,0,0,1-6.423-6.423,6.423,6.423,0,0,1,6.423-6.423,6.423,6.423,0,0,1,6.423,6.423A6.43,6.43,0,0,1-3194.306,4576.362Z" transform="translate(3202.87 -4561.375)" fill="#e15757"/>
    </g>
  </g>
</svg>
