<svg id="Group_1117" data-name="Group 1117" xmlns="http://www.w3.org/2000/svg" width="27.687" height="33.224" viewBox="0 0 27.687 33.224">
  <path id="Path_210" data-name="Path 210" d="M-5283.069,3912.26h-4.292a6.933,6.933,0,0,0-6.782-5.537h-2.769a6.936,6.936,0,0,0-6.785,5.537h-4.29a1.385,1.385,0,0,0-1.385,1.384,1.385,1.385,0,0,0,1.385,1.384h1.383v18a6.929,6.929,0,0,0,6.922,6.921h8.307a6.932,6.932,0,0,0,6.921-6.921v-18h1.383a1.385,1.385,0,0,0,1.385-1.384A1.385,1.385,0,0,0-5283.069,3912.26Zm-13.842-2.768h2.769a4.159,4.159,0,0,1,3.915,2.768h-10.6A4.159,4.159,0,0,1-5296.911,3909.492Zm9.69,23.533a4.153,4.153,0,0,1-4.153,4.152h-8.307a4.152,4.152,0,0,1-4.152-4.152v-18h16.612Z" transform="translate(5309.37 -3906.723)" fill="#707070"/>
  <path id="Path_211" data-name="Path 211" d="M-5158.652,4131.132a1.384,1.384,0,0,0,1.384-1.385v-8.307a1.383,1.383,0,0,0-1.384-1.383,1.385,1.385,0,0,0-1.385,1.383v8.307A1.386,1.386,0,0,0-5158.652,4131.132Z" transform="translate(5169.727 -4106.214)" fill="#707070"/>
  <path id="Path_212" data-name="Path 212" d="M-5073.318,4131.132a1.384,1.384,0,0,0,1.383-1.385v-8.307a1.383,1.383,0,0,0-1.383-1.383,1.384,1.384,0,0,0-1.385,1.383v8.307A1.385,1.385,0,0,0-5073.318,4131.132Z" transform="translate(5089.931 -4106.214)" fill="#707070"/>
</svg>
