<svg xmlns="http://www.w3.org/2000/svg" width="33.366" height="24.087" viewBox="0 0 33.366 24.087">
  <g id="Group_1116" data-name="Group 1116" transform="translate(0 0)">
    <g id="Group_246" data-name="Group 246" transform="translate(0)">
      <path id="Path_135" data-name="Path 135" d="M-5298.539,4059.2a3.577,3.577,0,0,1-2.527-1.047l-7.629-7.628a2.1,2.1,0,0,1,0-2.978h0a2.108,2.108,0,0,1,2.977,0l7.18,7.184,19-19a2.106,2.106,0,0,1,2.977,0h0a2.1,2.1,0,0,1,0,2.973l-19.447,19.451A3.587,3.587,0,0,1-5298.539,4059.2Z" transform="translate(5309.313 -4035.114)" fill="#707070"/>
    </g>
  </g>
</svg>
