<svg xmlns="http://www.w3.org/2000/svg" width="39.167" height="47" viewBox="0 0 39.167 47">
  <path id="Path_999" data-name="Path 999" d="M-262.193,5333.128h-19.583a9.8,9.8,0,0,1-9.792-9.792v-27.417a9.8,9.8,0,0,1,9.792-9.792h19.583a9.8,9.8,0,0,1,9.792,9.792v27.417A9.8,9.8,0,0,1-262.193,5333.128Zm-19.583-43.083a5.882,5.882,0,0,0-5.875,5.875v27.417a5.882,5.882,0,0,0,5.875,5.875h19.583a5.882,5.882,0,0,0,5.875-5.875v-27.417a5.882,5.882,0,0,0-5.875-5.875Zm21.542,7.833a1.959,1.959,0,0,0-1.958-1.958h-7.833a1.959,1.959,0,0,0-1.958,1.958,1.959,1.959,0,0,0,1.958,1.958h7.833A1.959,1.959,0,0,0-260.235,5297.878Zm0,11.75a1.959,1.959,0,0,0-1.958-1.958h-7.833a1.959,1.959,0,0,0-1.958,1.958,1.959,1.959,0,0,0,1.958,1.958h7.833A1.959,1.959,0,0,0-260.235,5309.628Zm0,11.75a1.959,1.959,0,0,0-1.958-1.958h-7.833a1.959,1.959,0,0,0-1.958,1.958,1.959,1.959,0,0,0,1.958,1.958h7.833A1.959,1.959,0,0,0-260.235,5321.378Zm-15.667-21.542v-3.917a1.959,1.959,0,0,0-1.958-1.958h-3.917a1.959,1.959,0,0,0-1.958,1.958v3.917a1.959,1.959,0,0,0,1.958,1.958h3.917A1.959,1.959,0,0,0-275.9,5299.836Zm0,11.75v-3.917a1.959,1.959,0,0,0-1.958-1.958h-3.917a1.959,1.959,0,0,0-1.958,1.958v3.917a1.959,1.959,0,0,0,1.958,1.958h3.917A1.959,1.959,0,0,0-275.9,5311.586Zm0,11.75v-3.917a1.959,1.959,0,0,0-1.958-1.958h-3.917a1.959,1.959,0,0,0-1.958,1.958v3.917a1.959,1.959,0,0,0,1.958,1.958h3.917A1.959,1.959,0,0,0-275.9,5323.336Z" transform="translate(291.568 -5286.128)" fill="#959ca7"/>
</svg>
