<svg xmlns="http://www.w3.org/2000/svg" width="47" height="47" viewBox="0 0 47 47">
  <g id="Group_1220" data-name="Group 1220" transform="translate(-4261.447 -4286.975)">
    <path id="Path_996" data-name="Path 996" d="M4276.135,4312.434a8.812,8.812,0,1,1,8.813-8.812A8.813,8.813,0,0,1,4276.135,4312.434Zm0-11.75a2.938,2.938,0,1,0,2.938,2.938A2.938,2.938,0,0,0,4276.135,4300.684Zm14.688,30.354a14.688,14.688,0,0,0-29.375,0,2.938,2.938,0,0,0,5.875,0,8.813,8.813,0,0,1,17.625,0,2.938,2.938,0,0,0,5.875,0Zm17.625-8.812a13.708,13.708,0,0,0-22.432-10.575,2.938,2.938,0,1,0,3.74,4.532h0a7.738,7.738,0,0,1,4.984-1.791,7.833,7.833,0,0,1,7.833,7.834,2.938,2.938,0,0,0,5.875,0Zm-12.729-17.625a8.813,8.813,0,1,1,8.813-8.812A8.812,8.812,0,0,1,4295.718,4304.6Zm0-11.75a2.938,2.938,0,1,0,2.938,2.938A2.938,2.938,0,0,0,4295.718,4292.85Z" fill="#959ca7"/>
  </g>
</svg>
