<svg xmlns="http://www.w3.org/2000/svg" width="47" height="46.999" viewBox="0 0 47 46.999">
  <g id="Group_1223" data-name="Group 1223" transform="translate(3090.077 -3230.028)">
    <path id="Path_998" data-name="Path 998" d="M-3064.653,3231.992a1.961,1.961,0,0,1,1.961-1.961,19.637,19.637,0,0,1,19.615,19.615,1.961,1.961,0,0,1-1.961,1.961,1.962,1.962,0,0,1-1.962-1.961,15.709,15.709,0,0,0-15.692-15.692A1.961,1.961,0,0,1-3064.653,3231.992Zm1.961,9.808a7.846,7.846,0,0,1,7.846,7.846,1.961,1.961,0,0,0,1.961,1.961,1.961,1.961,0,0,0,1.962-1.961,11.781,11.781,0,0,0-11.769-11.769,1.961,1.961,0,0,0-1.961,1.961A1.961,1.961,0,0,0-3062.692,3241.8Zm17.836,21.065a6.081,6.081,0,0,1,0,8.588l-1.785,2.057c-16.065,15.38-55.158-23.7-40.015-39.819l2.256-1.961a6.043,6.043,0,0,1,8.488.078c.061.061,3.7,4.782,3.7,4.782a6.081,6.081,0,0,1-.014,8.4l-2.271,2.856a25.07,25.07,0,0,0,13.6,13.623l2.874-2.285a6.081,6.081,0,0,1,8.4-.012S-3044.917,3262.8-3044.856,3262.865Zm-2.7,2.852s-4.694-3.611-4.755-3.672a2.158,2.158,0,0,0-3.038,0c-.053.055-4.01,3.207-4.01,3.207a1.961,1.961,0,0,1-1.92.3,29.439,29.439,0,0,1-17.3-17.277,1.961,1.961,0,0,1,.284-1.962s3.152-3.958,3.205-4.009a2.158,2.158,0,0,0,0-3.038c-.061-.059-3.672-4.757-3.672-4.757a2.158,2.158,0,0,0-2.962.077l-2.256,1.961c-11.067,13.307,22.811,45.305,34.472,34.286l1.787-2.06a2.2,2.2,0,0,0,.167-3.054Z" fill="#959ca7"/>
  </g>
</svg>
