<?xml version="1.0" encoding="utf-8"?>
<!-- Generator: Adobe Illustrator 26.0.0, SVG Export Plug-In . SVG Version: 6.00 Build 0)  -->
<svg version="1.1" id="Layer_1" xmlns="http://www.w3.org/2000/svg" xmlns:xlink="http://www.w3.org/1999/xlink" x="0px" y="0px"
	 viewBox="0 0 50 50.2" style="enable-background:new 0 0 50 50.2;" xml:space="preserve">
<style type="text/css">
	.st0{fill:#FFFFFF;}
	.st1{fill-rule:evenodd;clip-rule:evenodd;}
	.st2{fill:#F09E2C;}
	.st3{fill:#935CA4;}
	.st4{fill:#453ABB;}
	.st5{fill:#B35756;}
	.st6{fill:#67BD8C;}
	.st7{fill:#E8662D;}
	.st8{fill:#E82D32;}
	.st9{fill:#F0602C;}
	.st10{fill:#6D5CA4;}
	.st11{fill:#3A75BB;}
	.st12{fill:#B3569C;}
	.st13{fill:#7FBD67;}
	.st14{stroke:#000000;stroke-miterlimit:10;}
	.st15{fill:#4F5A5A;}
	.st16{fill:#7C8989;}
	.st17{fill:#959CA7;}
	.st18{fill:none;}
	.st19{fill:url(#SVGID_1_);}
	
		.st20{clip-path:url(#XMLID_00000044150393657768584460000017071687686250585239_);fill:url(#SVGID_00000087411273088365687470000007561533024902782351_);}
	
		.st21{clip-path:url(#XMLID_00000133530031028045098450000010335288400722193855_);fill:url(#SVGID_00000039099207075445860050000002671881660374486441_);}
	.st22{fill:url(#SVGID_00000162351602348868111510000017897957273486977981_);}
	.st23{fill:url(#SVGID_00000170965132878513500770000003731687340781455024_);}
	.st24{fill:url(#SVGID_00000096775441624456690960000012105523472963666339_);}
	.st25{fill:#FEFEFE;}
	.st26{display:none;fill:none;stroke:#9B3535;stroke-width:24;stroke-miterlimit:10;}
	.st27{fill:#DFEBF7;enable-background:new    ;}
	.st28{fill:url(#SVGID_00000120551981976636368660000000581358496333031330_);}
	.st29{fill:url(#SVGID_00000119817739566725879390000008837087538260387237_);}
	.st30{fill:url(#SVGID_00000071537940471955286540000006307769358689460384_);}
	.st31{fill:url(#SVGID_00000183965211280856794190000008107043198573430157_);}
	.st32{fill:url(#SVGID_00000136402308473407794680000008096087187760253826_);}
	.st33{fill:url(#SVGID_00000104700791032618224880000011683736103451331233_);}
	.st34{fill:#9B3535;}
	.st35{fill:url(#SVGID_00000052105613094816757900000014119854377776195722_);}
	.st36{fill:#E4252A;}
	.st37{fill:#EC676A;}
	.st38{fill:#00733B;}
	.st39{fill:#4D9C76;}
	.st40{fill:#4CBEA5;}
	.st41{fill:#454C55;}
	.st42{fill:#010101;}
</style>
<g>
	<path class="st17" d="M25,50.2c-3.4,0-6.5-1.4-8.8-3.8c-3.3,0.1-6.5-1.2-8.9-3.5c-2.4-2.4-3.6-5.6-3.5-8.9c-5-4.5-5-13.1,0-17.6
		c-0.1-3.3,1.2-6.5,3.5-8.9c2.4-2.4,5.6-3.7,8.9-3.5c4.5-5,13.1-5,17.6,0c3.3-0.1,6.5,1.2,8.9,3.5c2.4,2.4,3.6,5.6,3.5,8.9
		c5,4.5,5,13.1,0,17.6c0.1,3.3-1.2,6.5-3.5,8.9c-2.4,2.4-5.6,3.6-8.9,3.5C31.5,48.8,28.3,50.2,25,50.2L25,50.2z M17.6,40
		c1,0,2,0.5,2.6,1.4c2.1,3.4,7.5,3.4,9.7,0c0.7-1,2-1.6,3.2-1.3c1.9,0.4,3.9-0.2,5.2-1.6c1.4-1.4,2-3.3,1.6-5.2
		c-0.2-1.2,0.3-2.5,1.3-3.2c3.4-2.1,3.4-7.5,0-9.7c-1-0.7-1.6-2-1.3-3.2c0.4-1.9-0.2-3.9-1.6-5.2c-1.4-1.4-3.3-2-5.2-1.6
		c-1.2,0.3-2.5-0.3-3.2-1.3c-2.1-3.4-7.5-3.4-9.7,0c-0.7,1-2,1.6-3.2,1.3c-1.9-0.4-3.9,0.2-5.2,1.6c-1.4,1.4-2,3.3-1.6,5.2
		c0.2,1.2-0.3,2.5-1.3,3.2c-3.4,2.1-3.4,7.5,0,9.7c1,0.7,1.6,2,1.3,3.2c-0.4,1.9,0.2,3.9,1.6,5.2c1.4,1.4,3.3,2,5.2,1.6
		C17.2,40,17.4,40,17.6,40z M27.1,31.8l8.3-7.5c1.3-1.2,1.4-3.1,0.2-4.4c-1.2-1.3-3.1-1.4-4.4-0.2l-8.4,7.6
		c-0.1-0.1-4.1-3.5-4.1-3.5c-1.3-1.1-3.3-0.9-4.4,0.4c-1.1,1.3-0.9,3.3,0.4,4.4l3.9,3.2c1.2,1.1,2.7,1.7,4.3,1.7
		C24.4,33.5,26,32.9,27.1,31.8L27.1,31.8z"/>
</g>
</svg>
