<svg xmlns="http://www.w3.org/2000/svg" width="161.533" height="49.348" viewBox="0 0 161.533 49.348">
  <g id="Group_2472" data-name="Group 2472" transform="translate(-1225 -92)">
    <path id="Path_1678" data-name="Path 1678" d="M2012.369-1758.268l-2.067,11.194a.571.571,0,0,1-.564.471h-41a.182.182,0,0,1-.178-.218l2.184-11.444,41.625,0Z" transform="translate(-738.327 1850.268)" fill="#234293"/>
    <path id="Path_1679" data-name="Path 1679" d="M2087.063-1758.214q5.73,1.505,6.547,6.81c.42,2.692-.6,6.185-1.216,9.191a.641.641,0,0,1-.7.572l-13.072-.028c-.173,0-.25-.084-.23-.254.166-1.575,1.588-4.662-1.39-4.662q-16.452.006-32.9,0c-.121,0-.173-.061-.161-.177.439-3.876,1.063-8.124,4.123-10.126a10.393,10.393,0,0,1,3.533-1.3l35.468-.02Z" transform="translate(-763.087 1850.249)" fill="#234293"/>
    <path id="Path_1680" data-name="Path 1680" d="M2170.436-1758.17q5.307,1.209,6.781,5.963l0,.011a12.257,12.257,0,0,1,.527,3.248l.049,1.935a6.744,6.744,0,0,1-2.631.431q-22.635.018-45.276,0a.174.174,0,0,1-.173-.18,15.494,15.494,0,0,1,2.24-7.96q1.675-2.641,5.763-3.461l32.716.008Z" transform="translate(-791.264 1850.238)" fill="#f1672e"/>
    <path id="Path_1681" data-name="Path 1681" d="M1976.587-1718.3c-.4,1.486-2.269,7.224.588,7.22q13.479-.024,26.953.012c.17,0,.238.084.206.25l-2.018,10.965a.434.434,0,0,1-.432.359q-16.022,0-32.1,0c-7.563,0-10-4.928-8.663-11.892q1.735-9,3.276-17.561a.679.679,0,0,1,.746-.621l32.466.065a.192.192,0,0,1,.19.225l-1.83,10.009a.763.763,0,0,1-.745.621l-18.2.012a.4.4,0,0,0-.431.331Z" transform="translate(-735.768 1840.839)" fill="#234293"/>
    <path id="Path_1682" data-name="Path 1682" d="M2052.384-1711.133q8.349.049,16.7.017a5.7,5.7,0,0,0,1.838-.262.541.541,0,0,0,.338-.383l.846-3.8a.561.561,0,0,1,.6-.484h13.117a.27.27,0,0,1,.265.315q-.8,5.119-1.943,10.231c-1.04,4.654-4.6,5.972-9.021,5.976h-32.941a6.953,6.953,0,0,1-6.649-6.076,10.357,10.357,0,0,1,.2-3.352q1.88-10.233,3.82-20.442a.172.172,0,0,1,.185-.154l13.681-.093c.165,0,.233.081.2.241q-1.481,7.834-2.89,15.631c-.27,1.5-.145,2.623,1.652,2.635Z" transform="translate(-760.306 1840.864)" fill="#234293"/>
    <path id="Path_1683" data-name="Path 1683" d="M2156.484-1718.593a.954.954,0,0,0-.822-.491q-10.813-.133-21.445-.053c-5.533.04-9.119-4.879-8.692-10.174a.209.209,0,0,1,.229-.214q19.149-.175,38.277.02c5.467.052,7.974,6.189,7.068,10.8-.927,4.7-1.584,9.148-2.483,12.665a7.941,7.941,0,0,1-5.085,5.924,17.168,17.168,0,0,1-5.356.592q-14.052-.006-28.09.017a7.685,7.685,0,0,1-5.553-2.518c-3.509-3.522-2.978-7.6-1.894-11.992a.49.49,0,0,1,.52-.407l13.071.012a.292.292,0,0,1,.294.278c.057,1.443-.406,3.01,1.722,3.018q9.071.03,18.113.012a.228.228,0,0,0,.23-.234c0-1.148.3-6.511-.105-7.257Z" transform="translate(-788.671 1840.852)" fill="#f1672e"/>
  </g>
</svg>
