<svg id="Component_36_5" data-name="Component 36 – 5" xmlns="http://www.w3.org/2000/svg" width="42.857" height="13.093" viewBox="0 0 42.857 13.093">
  <path id="Path_1678" data-name="Path 1678" d="M1980.18-1758.268l-.548,2.97a.151.151,0,0,1-.15.125H1968.6a.048.048,0,0,1-.047-.058l.579-3.036Z" transform="translate(-1967.168 1758.268)" fill="#707070"/>
  <path id="Path_1679" data-name="Path 1679" d="M2055.379-1758.214a2.12,2.12,0,0,1,1.737,1.807,7.779,7.779,0,0,1-.323,2.439.17.17,0,0,1-.186.152l-3.468-.007c-.046,0-.066-.022-.061-.068.044-.418.421-1.237-.369-1.237q-4.365,0-8.729,0c-.032,0-.046-.016-.043-.047.116-1.029.282-2.155,1.094-2.687a2.759,2.759,0,0,1,.937-.345l9.41-.005Z" transform="translate(-2029.12 1758.223)" fill="#707070"/>
  <path id="Path_1680" data-name="Path 1680" d="M2140.52-1758.176a2.253,2.253,0,0,1,1.8,1.582v0a3.245,3.245,0,0,1,.14.861l.013.514a1.79,1.79,0,0,1-.7.114q-6.005,0-12.012,0a.046.046,0,0,1-.046-.048,4.109,4.109,0,0,1,.594-2.112,2.217,2.217,0,0,1,1.529-.918l8.68,0Z" transform="translate(-2099.617 1758.194)" fill="#707070"/>
  <path id="Path_1681" data-name="Path 1681" d="M1964.965-1726.58c-.106.394-.6,1.917.156,1.916q3.576-.006,7.151,0c.045,0,.063.022.054.066l-.535,2.909a.115.115,0,0,1-.115.1h-8.517c-2.006,0-2.654-1.307-2.3-3.155q.46-2.387.869-4.659a.18.18,0,0,1,.2-.165l8.613.017a.051.051,0,0,1,.05.06l-.485,2.656a.2.2,0,0,1-.2.165l-4.829,0a.107.107,0,0,0-.114.088Z" transform="translate(-1960.768 1734.681)" fill="#707070"/>
  <path id="Path_1682" data-name="Path 1682" d="M2039.958-1724.73q2.215.013,4.43,0a1.5,1.5,0,0,0,.488-.07.143.143,0,0,0,.09-.1l.225-1.008a.149.149,0,0,1,.16-.128h3.48a.071.071,0,0,1,.07.083q-.213,1.358-.515,2.714c-.276,1.235-1.221,1.584-2.394,1.585h-8.74a1.845,1.845,0,0,1-1.764-1.612,2.748,2.748,0,0,1,.052-.889q.5-2.715,1.013-5.424a.045.045,0,0,1,.049-.041l3.63-.025c.044,0,.062.021.053.064q-.393,2.078-.766,4.147c-.072.4-.038.7.438.7Z" transform="translate(-2022.161 1734.74)" fill="#707070"/>
  <path id="Path_1683" data-name="Path 1683" d="M2131.02-1726.686a.252.252,0,0,0-.218-.13q-2.869-.035-5.689-.014a2.378,2.378,0,0,1-2.306-2.7.056.056,0,0,1,.061-.057q5.08-.046,10.155.005c1.45.014,2.115,1.642,1.875,2.866-.246,1.248-.42,2.427-.659,3.36a2.107,2.107,0,0,1-1.349,1.572,4.556,4.556,0,0,1-1.421.157q-3.728,0-7.452,0a2.04,2.04,0,0,1-1.473-.668c-.931-.935-.79-2.017-.5-3.182a.13.13,0,0,1,.138-.108l3.468,0a.077.077,0,0,1,.078.074c.015.383-.108.8.457.8q2.407.008,4.805,0a.061.061,0,0,0,.061-.062,11.269,11.269,0,0,0-.028-1.925Z" transform="translate(-2093.13 1734.714)" fill="#707070"/>
</svg>
