<svg id="Component_36_1" data-name="Component 36 – 1" xmlns="http://www.w3.org/2000/svg" width="92.552" height="28.274" viewBox="0 0 92.552 28.274">
  <path id="Path_1678" data-name="Path 1678" d="M1993.659-1758.268l-1.184,6.414a.327.327,0,0,1-.323.27H1968.66a.1.1,0,0,1-.1-.125l1.251-6.557,23.849,0Z" transform="translate(-1965.559 1758.268)" fill="#234293"/>
  <path id="Path_1679" data-name="Path 1679" d="M2068.646-1758.214a4.579,4.579,0,0,1,3.751,3.9c.24,1.542-.346,3.544-.7,5.266a.367.367,0,0,1-.4.328l-7.49-.016q-.149,0-.132-.146c.095-.9.91-2.671-.8-2.671q-9.426,0-18.851,0c-.069,0-.1-.035-.092-.1.251-2.221.609-4.655,2.362-5.8a5.957,5.957,0,0,1,2.024-.746l20.322-.011Z" transform="translate(-2011.938 1758.234)" fill="#234293"/>
  <path id="Path_1680" data-name="Path 1680" d="M2153.047-1758.173a4.866,4.866,0,0,1,3.885,3.417l0,.007a7.014,7.014,0,0,1,.3,1.861l.028,1.109a3.864,3.864,0,0,1-1.508.247q-12.969.01-25.941,0a.1.1,0,0,1-.1-.1,8.876,8.876,0,0,1,1.283-4.561,4.788,4.788,0,0,1,3.3-1.983l18.745,0Z" transform="translate(-2064.713 1758.213)" fill="#f1672e"/>
  <path id="Path_1681" data-name="Path 1681" d="M1969.832-1723.115c-.229.852-1.3,4.139.337,4.137q7.723-.014,15.443.007c.1,0,.136.048.118.143l-1.156,6.282a.249.249,0,0,1-.247.206q-9.18,0-18.394,0c-4.333,0-5.732-2.824-4.964-6.813q.994-5.156,1.877-10.061a.389.389,0,0,1,.427-.356l18.6.037a.11.11,0,0,1,.109.129l-1.049,5.735a.437.437,0,0,1-.427.356l-10.428.007a.232.232,0,0,0-.247.19Z" transform="translate(-1960.768 1740.61)" fill="#234293"/>
  <path id="Path_1682" data-name="Path 1682" d="M2045.161-1719.036q4.783.028,9.567.01a3.258,3.258,0,0,0,1.053-.15.31.31,0,0,0,.194-.219l.485-2.177a.321.321,0,0,1,.346-.277h7.516a.155.155,0,0,1,.152.18q-.46,2.933-1.113,5.862c-.6,2.667-2.636,3.422-5.169,3.424h-18.874a3.984,3.984,0,0,1-3.81-3.482,5.938,5.938,0,0,1,.113-1.921q1.077-5.863,2.189-11.712a.1.1,0,0,1,.106-.088l7.838-.053c.095,0,.134.046.115.138q-.849,4.489-1.656,8.956c-.155.859-.083,1.5.947,1.51Z" transform="translate(-2006.728 1740.654)" fill="#234293"/>
  <path id="Path_1683" data-name="Path 1683" d="M2141.683-1723.3a.547.547,0,0,0-.471-.282q-6.2-.076-12.287-.03c-3.17.023-5.225-2.8-4.98-5.829a.12.12,0,0,1,.132-.122q10.971-.1,21.931.012c3.133.03,4.569,3.546,4.05,6.19-.531,2.695-.908,5.241-1.423,7.257a4.55,4.55,0,0,1-2.913,3.394,9.835,9.835,0,0,1-3.069.339q-8.051,0-16.094.009a4.4,4.4,0,0,1-3.181-1.443c-2.011-2.018-1.706-4.357-1.085-6.871a.281.281,0,0,1,.3-.233l7.489.007a.167.167,0,0,1,.168.159c.033.827-.233,1.724.986,1.729q5.2.017,10.378.007a.131.131,0,0,0,.132-.134,24.355,24.355,0,0,0-.06-4.158Z" transform="translate(-2059.857 1740.635)" fill="#f1672e"/>
</svg>
