<svg xmlns="http://www.w3.org/2000/svg" width="16" height="14.667" viewBox="0 0 16 14.667">
  <g id="Group_166" data-name="Group 166" transform="translate(4533.43 -1079.775)">
    <path id="Path_107" data-name="Path 107" d="M-4520.763,1079.775h-9.333a3.338,3.338,0,0,0-3.333,3.333v8a3.338,3.338,0,0,0,3.333,3.333h9.333a3.338,3.338,0,0,0,3.333-3.333v-8A3.338,3.338,0,0,0-4520.763,1079.775Zm-9.333,1.333h9.333a2,2,0,0,1,1.854,1.258l-5.105,5.106a2.005,2.005,0,0,1-2.83,0l-5.105-5.106A2,2,0,0,1-4530.1,1081.108Zm9.333,12h-9.333a2,2,0,0,1-2-2v-7l4.31,4.307a3.337,3.337,0,0,0,4.714,0l4.31-4.307v7A2,2,0,0,1-4520.763,1093.109Z" transform="translate(0 0)" fill="#959ca7"/>
  </g>
</svg>
