<svg xmlns="http://www.w3.org/2000/svg" width="28.218" height="20.673" viewBox="0 0 28.218 20.673">
  <g id="Group_1325" data-name="Group 1325" transform="translate(-209 -277.998)">
    <g id="Group_1324" data-name="Group 1324" transform="translate(209 277.998)">
      <path id="Path_1648" data-name="Path 1648" d="M-267.634,6562.325l-6.108,0c-.445,0-.452-.006-.453-.447,0-1.487-.026-2.975.01-4.461a6.4,6.4,0,0,1,2.457-4.928,1.114,1.114,0,0,1,1.348-.181,5.753,5.753,0,0,0,1.384.464c.525.121.435.041.436.571.005,1.35,0,2.7,0,4.051a1.522,1.522,0,0,0,.059.58.987.987,0,0,0,.878.587.955.955,0,0,0,.862-.6,1.578,1.578,0,0,0,.08-.635c0-1.351.01-2.7-.007-4.05,0-.31.085-.459.4-.5a4.586,4.586,0,0,0,1.443-.473,1.092,1.092,0,0,1,1.3.175,6.483,6.483,0,0,1,2.5,5.033c.046,1.466.013,2.935.011,4.4,0,.408-.01.417-.427.418Q-264.551,6562.328-267.634,6562.325Z" transform="translate(281.727 -6541.659)" fill="#707070"/>
      <path id="Path_1649" data-name="Path 1649" d="M-271.646,6542.583a4.67,4.67,0,0,1,4.694-4.645h.038a4.707,4.707,0,0,1,4.663,4.731,4.738,4.738,0,0,1-4.75,4.659A4.7,4.7,0,0,1-271.646,6542.583Z" transform="translate(281.057 -6537.938)" fill="#707070"/>
      <path id="Path_1650" data-name="Path 1650" d="M-277.78,6554.045c.055.171-.079.288-.141.421a8.439,8.439,0,0,0-.823,3.686c.012,1.389,0,2.779,0,4.168,0,.474-.006.479-.484.48-1.33,0-2.662-.016-3.993.008a1.058,1.058,0,0,1-1.172-1.192c.045-1.211-.005-2.426.018-3.639a4.563,4.563,0,0,1,2-3.733,1.062,1.062,0,0,1,1.044-.2,4.747,4.747,0,0,0,3.329-.011A.2.2,0,0,1-277.78,6554.045Z" transform="translate(284.393 -6542.136)" fill="#707070"/>
      <path id="Path_1651" data-name="Path 1651" d="M-255.17,6554.037c.157-.068.3.018.442.064a4.43,4.43,0,0,0,2.937,0,1.282,1.282,0,0,1,1.312.214,4.641,4.641,0,0,1,1.92,3.664c.043,1.252.02,2.506.009,3.758a.94.94,0,0,1-.992,1.066c-1.449.023-2.9,0-4.346.014-.3,0-.3-.162-.3-.375,0-1.291-.011-2.583.005-3.875a9.054,9.054,0,0,0-.951-4.308.892.892,0,0,1-.058-.162C-255.195,6554.081-255.18,6554.063-255.17,6554.037Z" transform="translate(276.752 -6542.143)" fill="#707070"/>
      <path id="Path_1652" data-name="Path 1652" d="M-253.917,6543.027a3.772,3.772,0,0,1,3.787,3.744,3.8,3.8,0,0,1-3.777,3.768,3.763,3.763,0,0,1-3.74-3.729,3.734,3.734,0,0,1,3.684-3.783Z" transform="translate(277.394 -6539.27)" fill="#707070"/>
      <path id="Path_1653" data-name="Path 1653" d="M-279.281,6543.028a3.769,3.769,0,0,1,3.695,3.775,3.8,3.8,0,0,1-3.808,3.735,3.765,3.765,0,0,1-3.706-3.879A3.735,3.735,0,0,1-279.281,6543.028Z" transform="translate(284.055 -6539.271)" fill="#707070"/>
    </g>
  </g>
</svg>
