<svg xmlns="http://www.w3.org/2000/svg" width="90.947" height="21" viewBox="0 0 90.947 21">
  <g id="Group_2532" data-name="Group 2532" transform="translate(-1431.053 -706)">
    <text id="Export" transform="translate(1462 722)" fill="#707070" font-size="20" font-family="Bahnschrift"><tspan x="0" y="0">Export</tspan></text>
    <g id="Group_1362" data-name="Group 1362" transform="translate(1431.053 707.895)">
      <path id="Path_1655" data-name="Path 1655" d="M3544.53,9683.371a.586.586,0,0,0-.835.054,1.775,1.775,0,0,1-1.333.6h-5.923a1.782,1.782,0,0,1-1.777-1.776v-8.3a1.782,1.782,0,0,1,1.777-1.777h2.671a2.407,2.407,0,0,1,.29.012v2.95a1.782,1.782,0,0,0,1.777,1.776h3.441a.585.585,0,0,0,.468-.231.6.6,0,0,0,.107-.509,4.127,4.127,0,0,0-1.084-1.907l-2.061-2.061a4.12,4.12,0,0,0-2.932-1.215h-2.677a2.963,2.963,0,0,0-2.961,2.962v8.29a2.962,2.962,0,0,0,2.961,2.962h5.923a2.978,2.978,0,0,0,2.221-1A.586.586,0,0,0,3544.53,9683.371Zm-3.945-10.8a3,3,0,0,1,.622.479l2.061,2.062a2.979,2.979,0,0,1,.474.621h-2.571a.593.593,0,0,1-.592-.592v-2.57Zm6.592,9.138-.954.954a.581.581,0,0,1-.42.171.612.612,0,0,1-.421-.171.591.591,0,0,1,0-.836l.764-.764h-4.383a.592.592,0,1,1,0-1.184h4.383l-.764-.765a.591.591,0,1,1,.835-.835l.953.953a1.762,1.762,0,0,1,0,2.481Z" transform="translate(-3533.478 -9670.993)" fill="#707070"/>
    </g>
  </g>
</svg>
