<svg xmlns="http://www.w3.org/2000/svg" width="114.701" height="20" viewBox="0 0 114.701 20">
  <g id="Group_1722" data-name="Group 1722" transform="translate(-1339.5 -326)">
    <text id="Add_Filter" data-name="Add Filter" transform="translate(1368.201 342)" fill="#707070" font-size="20" font-family="Bahnschrift"><tspan x="0" y="0">Add Filter</tspan></text>
    <path id="Path_1799" data-name="Path 1799" d="M-1261.838,1127.754a1.466,1.466,0,0,1-1.1.473c-1.4-.007-2.657-.011-4.057-.02-.09,0-.11.02-.108.107.009,1.461.013,2.6.021,4.061a1.36,1.36,0,0,1-.449,1.083,1.31,1.31,0,0,1-1.45.251,1.344,1.344,0,0,1-.864-1.179,2.039,2.039,0,0,1-.006-.2c-.006-1.447-.013-2.571-.016-4.017,0-.092-.019-.117-.115-.117q-2.042,0-4.082-.014a1.4,1.4,0,0,1-1.422-1.19,1.371,1.371,0,0,1,1.149-1.561c.032,0,.064-.009.1-.011.072-.005.143-.006.215-.006q2.019.008,4.038.019c.09,0,.108-.02.108-.107-.009-1.3-.014-2.771-.018-4.066a1.364,1.364,0,0,1,1.051-1.388,1.393,1.393,0,0,1,1.711,1.266q.005.092.006.183c.005,1.275.012,2.728.012,4,0,.108.032.124.13.124,1.389,0,2.635.011,4.024.015a1.415,1.415,0,0,1,1.036.4A1.373,1.373,0,0,1-1261.838,1127.754Z" transform="translate(2615 -790.827)" fill="#707070"/>
  </g>
</svg>
