<svg xmlns="http://www.w3.org/2000/svg" width="19.41" height="13.229" viewBox="0 0 19.41 13.229">
  <g id="Group_245" data-name="Group 245" transform="translate(-5673.209 -10145.403)">
    <g id="Group_244" data-name="Group 244" transform="translate(5673.209 10145.403)">
      <path id="Path_1725" data-name="Path 1725" d="M5692.619,10146.917a1.464,1.464,0,0,1-.475,1.076l-10.815,9.987a2.5,2.5,0,0,1-1.7.652h0a2.492,2.492,0,0,1-1.7-.652l-4.241-3.916a1.453,1.453,0,0,1,0-2.16l0,0a1.674,1.674,0,0,1,2.243,0l3.694,3.414,10.264-9.479a1.674,1.674,0,0,1,2.244,0A1.464,1.464,0,0,1,5692.619,10146.917Z" transform="translate(-5673.209 -10145.403)" fill="#5fd68f"/>
    </g>
  </g>
</svg>
