<svg xmlns="http://www.w3.org/2000/svg" width="4.81" height="14.924" viewBox="0 0 4.81 14.924">
  <g id="Group_2731" data-name="Group 2731" transform="translate(-1168.201 -276.07)">
    <path id="Path_4338" data-name="Path 4338" d="M1172.862,279.54c-.154.921-.32,1.839-.481,2.759-.175,1-.344,2-.529,3a1.237,1.237,0,0,1-1.249,1,1.279,1.279,0,0,1-1.279-1.171q-.415-2.406-.841-4.81c-.09-.516-.2-1.029-.263-1.547a2.4,2.4,0,0,1,1.988-2.673c.027-.005.06,0,.074-.031h.612c.153.039.308.07.458.118a2.409,2.409,0,0,1,1.646,2.043A4.853,4.853,0,0,1,1172.862,279.54Z" fill="#e68d27"/>
    <path id="Path_4339" data-name="Path 4339" d="M1186.338,567.563a1.8,1.8,0,0,1-1.38,1.371c-.049.013-.109-.011-.148.039h-.554c-.031-.049-.087-.037-.13-.049a1.843,1.843,0,0,1,.145-3.616,2.415,2.415,0,0,1,.276-.012,1.646,1.646,0,0,1,1.184.422A1.761,1.761,0,0,1,1186.338,567.563Z" transform="translate(-13.944 -277.98)" fill="#e68d27"/>
  </g>
</svg>
