<svg xmlns="http://www.w3.org/2000/svg" width="118.326" height="20" viewBox="0 0 118.326 20">
  <g id="Group_2545" data-name="Group 2545" transform="translate(-202.956 -361.174)">
    <text id="Add_order" data-name="Add order" transform="translate(233.282 377.174)" fill="#707070" font-size="20" font-family="Bahnschrift"><tspan x="0" y="0">Add order</tspan></text>
    <path id="Path_1845" data-name="Path 1845" d="M-268.1,127.392a8.852,8.852,0,0,0-8.828,8.846,8.854,8.854,0,0,0,8.856,8.881A8.872,8.872,0,0,0-259.2,136.3,8.864,8.864,0,0,0-268.1,127.392Zm3.052,10.19a9.637,9.637,0,0,1-1.216-.006c-.439-.042-.531.141-.512.537a6.367,6.367,0,0,1-.051,1.489,1.285,1.285,0,0,1-1.331,1.08,1.257,1.257,0,0,1-1.246-1.231c-.024-.5-.023-1-.007-1.494.01-.293-.1-.389-.385-.379-.46.018-.922.016-1.383,0a1.276,1.276,0,0,1-1.334-1.317,1.278,1.278,0,0,1,1.314-1.337c.239-.01.48,0,.72,0,1.064,0,1.063,0,1.064-1.073,0-.277-.009-.554.011-.83a1.262,1.262,0,0,1,1.225-1.2,1.285,1.285,0,0,1,1.349,1.057,7.493,7.493,0,0,1,.056,1.6c-.007.328.082.469.432.447.423-.027.848-.016,1.273,0a1.27,1.27,0,0,1,1.358,1.342A1.27,1.27,0,0,1-265.044,137.582Z" transform="translate(479.88 234.918)" fill="#707070"/>
  </g>
</svg>
