<svg xmlns="http://www.w3.org/2000/svg" width="27.78" height="27.762" viewBox="0 0 27.78 27.762">
  <g id="Group_50" data-name="Group 50" transform="translate(-27.78 -242.119)">
    <g id="Group_49" data-name="Group 49">
      <path id="Path_32" data-name="Path 32" d="M41.67,259.464a3.473,3.473,0,0,0-3.473,3.472v6.945h6.945v-6.945A3.472,3.472,0,0,0,41.67,259.464Z" fill="#707070"/>
      <g id="Group_48" data-name="Group 48">
        <path id="Path_33" data-name="Path 33" d="M47.458,262.936v6.945h4.629a3.472,3.472,0,0,0,3.473-3.472V255.851a2.313,2.313,0,0,0-.652-1.611l-9.836-10.634a4.63,4.63,0,0,0-6.543-.257c-.089.082-.175.168-.257.257l-9.819,10.631a2.313,2.313,0,0,0-.673,1.632v10.54a3.472,3.472,0,0,0,3.473,3.472h4.629v-6.945a5.788,5.788,0,1,1,11.576,0Z" fill="#707070"/>
        <path id="Path_34" data-name="Path 34" d="M41.67,259.464a3.473,3.473,0,0,0-3.473,3.472v6.945h6.945v-6.945A3.472,3.472,0,0,0,41.67,259.464Z" fill="#707070"/>
      </g>
    </g>
  </g>
</svg>
