<svg xmlns="http://www.w3.org/2000/svg" width="25.086" height="25.085" viewBox="0 0 25.086 25.085">
  <g id="Group_128" data-name="Group 128" transform="translate(-3242.542 -3136.921)">
    <path id="Path_41" data-name="Path 41" d="M3255.085,3136.921a12.543,12.543,0,1,0,12.543,12.543A12.543,12.543,0,0,0,3255.085,3136.921Zm0,22.995a10.452,10.452,0,1,1,10.452-10.452A10.452,10.452,0,0,1,3255.085,3159.916Z" transform="translate(0 0)" fill="#707070"/>
    <path id="Path_42" data-name="Path 42" d="M3418.139,3243.6a4.182,4.182,0,0,0-4.93,4.115,1.045,1.045,0,0,0,2.091,0,2.09,2.09,0,0,1,2.089-2.092,2.065,2.065,0,0,1,.39.036,2.116,2.116,0,0,1,1.672,1.667,2.09,2.09,0,0,1-1.045,2.221,4.133,4.133,0,0,0-2.06,3.663v.777a1.045,1.045,0,0,0,2.091,0v-.777a2.071,2.071,0,0,1,.972-1.831,4.181,4.181,0,0,0-1.268-7.779Z" transform="translate(-162.305 -101.39)" fill="#707070"/>
    <path id="Path_43" data-name="Path 43" d="M3478.254,3499.587h0a1.045,1.045,0,0,1,1.045,1.045h0a1.045,1.045,0,0,1-1.045,1.045h0a1.045,1.045,0,0,1-1.045-1.045h0A1.045,1.045,0,0,1,3478.254,3499.587Z" transform="translate(-223.17 -344.897)" fill="#707070"/>
  </g>
</svg>
