<svg xmlns="http://www.w3.org/2000/svg" width="28.972" height="28" viewBox="0 0 28.972 28">
  <g id="Group_1327" data-name="Group 1327" transform="translate(-2361.937 -6537.939)">
    <path id="Path_1658" data-name="Path 1658" d="M2390.376,6553.846a2.4,2.4,0,0,0-.606-.448.481.481,0,0,1-.308-.5c.016-1.106.012-2.212,0-3.319,0-.225.047-.32.3-.377a1.254,1.254,0,0,0,1.1-1.406c.007-1.145-.014-2.291.007-3.435a1.731,1.731,0,0,0-1.8-1.783q-2.1.053-4.193,0a1.73,1.73,0,0,0-1.8,1.656c0,.042,0,.083,0,.124.018,1.184,0,2.368.007,3.552a1.174,1.174,0,0,0,1.128,1.3c.3.039.334.156.332.4-.01.97-.018,1.941,0,2.911.01.414-.018.756-.481.922a1.21,1.21,0,0,0-.405.324,1.553,1.553,0,0,0,.045,2.362c.2.184.42.336.656.522-1.69,1.243-3.358,2.488-5.1,3.751v-4.67a1.51,1.51,0,0,0,1.874-.678c.541-.684,1.106-1.354,1.7-1.99a1.672,1.672,0,0,0-.483-2.688c-.9-.449-1.781-.942-2.673-1.41a3.8,3.8,0,0,0-1.784-.461q-1.543,0-3.087,0a3.567,3.567,0,0,0-1.726.445c-.885.483-1.754,1-2.673,1.409a1.679,1.679,0,0,0-.521,2.679c.623.664,1.209,1.367,1.779,2.078a1.441,1.441,0,0,0,1.809.628,30.673,30.673,0,0,1-.039,4.641l-5-3.687c.281-.229.524-.394.726-.6a1.489,1.489,0,0,0-.041-2.263,2.3,2.3,0,0,0-.563-.406.552.552,0,0,1-.348-.583q.027-1.572,0-3.144c-.006-.32.059-.464.41-.534a1.134,1.134,0,0,0,.98-1.143c.031-1.3.047-2.6-.007-3.9a1.58,1.58,0,0,0-1.649-1.541c-.641-.017-1.281-.005-1.922-.005-.816,0-1.632-.017-2.446.009a1.6,1.6,0,0,0-1.618,1.517c-.035,1.338-.024,2.678,0,4.017a1.062,1.062,0,0,0,.852,1.044c.167.045.343.057.569.093,0,1.243,0,2.444,0,3.646a.375.375,0,0,1-.2.374,3.758,3.758,0,0,0-.62.43,1.537,1.537,0,0,0-.007,2.472,3.47,3.47,0,0,0,1.1.646,6.263,6.263,0,0,0,3.323.275,1.025,1.025,0,0,1,.854.195c1.558,1.156,3.125,2.3,4.687,3.45.1.075.255.109.268.287-.179.139-.369.271-.542.422a1.953,1.953,0,0,0-.015,3.165,4.437,4.437,0,0,0,1.4.817,8.233,8.233,0,0,0,4.127.389,5.609,5.609,0,0,0,2.733-1.059,2.025,2.025,0,0,0-.01-3.471c-.13-.1-.333-.131-.362-.359l5.056-3.723a.567.567,0,0,1,.532-.117,5.7,5.7,0,0,0,2.483.056,4,4,0,0,0,2.225-1.048A1.51,1.51,0,0,0,2390.376,6553.846Zm-16.847-.356c-.452-.536-.808-.958-1.178-1.4a6.933,6.933,0,0,1,1.16-.56,16.544,16.544,0,0,1,.018,1.954Zm-6.769,2.8a5.663,5.663,0,0,1-2.637-.18,2.863,2.863,0,0,1-.779-.378c-.648-.459-.655-.909-.02-1.427.12.11.131.272.2.406a1.418,1.418,0,0,0,1.927.643.642.642,0,0,1,.721-.023,1.414,1.414,0,0,0,1.963-.652c.06-.119.1-.247.156-.376.67.484.677.953.032,1.413A3.591,3.591,0,0,1,2366.76,6556.288Zm12.5-4.742a4.188,4.188,0,0,1,1.184.555l-1.184,1.4Zm-3.243-.612c.066-.39.17-.774.259-1.16l.1.01c.124.361.243.724.376,1.081a.316.316,0,0,1-.142.4c-.091.072-.182.177-.3.077s-.323-.209-.289-.406Zm.284,7.624h0c0-.485,0-.969,0-1.454,0-.137-.022-.293.171-.308.214-.017.249.145.253.308.006.252,0,.5,0,.756,0,.7,0,1.4,0,2.094,0,.176-.026.313-.246.3-.2-.013-.177-.167-.178-.3,0-.466,0-.931,0-1.4Zm4.127,4.195a.872.872,0,0,1-.126.928,2.339,2.339,0,0,1-1.039.814,7.069,7.069,0,0,1-5.7.013,2.47,2.47,0,0,1-1.016-.754.946.946,0,0,1,.018-1.319,2.361,2.361,0,0,1,1.049-.719c0,.543-.026,1.021.006,1.5a1.3,1.3,0,0,0,1.162,1.184,1.346,1.346,0,0,0,1.416-.964,2.239,2.239,0,0,0,.07-.633c0-.464,0-.93,0-1.4,0-.135-.014-.28.19-.285s.208.124.207.27c0,.232,0,.464,0,.7,0,.348-.013.7.005,1.046a1.269,1.269,0,0,0,1.1,1.236,1.316,1.316,0,0,0,1.367-.945,1.763,1.763,0,0,0,.069-.573v-1.14a2.281,2.281,0,0,1,1.22,1.044Zm8.994-7.05a4.05,4.05,0,0,1-1.807.58,5.454,5.454,0,0,1-2.462-.267,2.467,2.467,0,0,1-.764-.411c-.558-.454-.52-.907.109-1.324.1.054.078.165.115.248a1.442,1.442,0,0,0,2.123.708.385.385,0,0,1,.453-.027,1.429,1.429,0,0,0,2.171-.77c.022-.052.041-.1.077-.194.68.586.664,1-.015,1.457Z" fill="#707070"/>
    <path id="Path_1659" data-name="Path 1659" d="M2374.2,6545.937a2.193,2.193,0,0,1,2.17-2.217h.04a2.207,2.207,0,0,1,.017,4.414,2.191,2.191,0,0,1-2.227-2.157Z" fill="#707070"/>
    <path id="Path_1660" data-name="Path 1660" d="M2387.028,6537.939a1.848,1.848,0,0,1,1.859,1.839,1.761,1.761,0,0,1-.021.292c0,.019-.007.038-.01.057a2.093,2.093,0,0,1-1.914,1.875,2.135,2.135,0,0,1-1.856-1.943A1.911,1.911,0,0,1,2387.028,6537.939Z" fill="#707070"/>
    <path id="Path_1661" data-name="Path 1661" d="M2365.644,6537.939a1.925,1.925,0,0,1,2.064,1.829,2.2,2.2,0,0,1-.974,1.932,1.488,1.488,0,0,1-1.376.218,2.2,2.2,0,0,1-1.21-2.956A1.777,1.777,0,0,1,2365.644,6537.939Z" fill="#707070"/>
  </g>
</svg>
