<svg xmlns="http://www.w3.org/2000/svg" width="17.055" height="20.466" viewBox="0 0 17.055 20.466">
  <g id="Group_1560" data-name="Group 1560" transform="translate(-9092 19477)">
    <g id="lock_" data-name="lock\" transform="translate(9092 -19477)">
      <path id="Path_102" data-name="Path 102" d="M3216.821,3215.591v-1.214a5.969,5.969,0,1,0-11.939,0v1.214a4.264,4.264,0,0,0-2.558,3.9v5.117a4.269,4.269,0,0,0,4.264,4.264h8.528a4.269,4.269,0,0,0,4.264-4.264v-5.117A4.264,4.264,0,0,0,3216.821,3215.591Zm-10.233-1.214a4.264,4.264,0,0,1,8.528,0v.853h-8.528Zm11.086,10.233a2.558,2.558,0,0,1-2.558,2.558h-8.528a2.558,2.558,0,0,1-2.558-2.558v-5.117a2.558,2.558,0,0,1,2.558-2.558h8.528a2.558,2.558,0,0,1,2.558,2.558Z" transform="translate(-3202.324 -3208.408)" fill="#959ca7"/>
      <path id="Path_103" data-name="Path 103" d="M3395.177,3507.075a.853.853,0,0,0-.853.853v1.706a.853.853,0,0,0,1.706,0v-1.706A.853.853,0,0,0,3395.177,3507.075Z" transform="translate(-3386.649 -3495.136)" fill="#959ca7"/>
    </g>
  </g>
</svg>
