<svg id="Group_1423" data-name="Group 1423" xmlns="http://www.w3.org/2000/svg" width="53.497" height="46.494" viewBox="0 0 53.497 46.494">
  <g id="Group_1379" data-name="Group 1379" transform="translate(0 32.658)">
    <path id="Path_1668" data-name="Path 1668" d="M-4654.112,1508.643v3.586a3.05,3.05,0,0,0,3.344,3.345q8.25,0,16.5,0h.674c-.158.785-.322,1.5-.437,2.227-.051.307-.183.372-.463.367-.969-.013-1.94-.006-2.911,0-.909,0-1.172.271-1.174,1.2,0,.666,0,1.331,0,2,0,.838.289,1.121,1.142,1.121q3.235,0,6.47,0h13.641c.911,0,1.177-.272,1.18-1.2,0-.683,0-1.365,0-2.048-.005-.769-.307-1.066-1.086-1.07-.988,0-1.977.009-2.965-.01-.156,0-.421-.114-.446-.219-.185-.763-.32-1.537-.483-2.361h.69q8.222,0,16.445,0a3.058,3.058,0,0,0,3.377-3.365v-3.565Zm36.217,11.283v.8h-18.936v-.8Zm-14.441-1.818c.15-.756.285-1.514.461-2.263a.467.467,0,0,1,.36-.258q4.148-.024,8.293,0a.5.5,0,0,1,.375.3c.173.713.3,1.438.458,2.217Zm29.983-5.5a1.274,1.274,0,0,1-1.257,1.232c-.162.01-.323,0-.485,0h-46.523c-1.361,0-1.768-.4-1.768-1.762v-1.651h50.039C-4602.347,1511.18-4602.322,1511.9-4602.352,1512.612Z" transform="translate(4654.112 -1508.643)" fill="#959ca7"/>
    <path id="Path_1669" data-name="Path 1669" d="M-4478.675,1528.473c-.288,0-.576.016-.862,0a.853.853,0,0,1-.848-.868.834.834,0,0,1,.815-.841c.61-.027,1.223-.029,1.832,0a.835.835,0,0,1,.8.86.852.852,0,0,1-.816.844c-.3.024-.611,0-.916,0Z" transform="translate(4505.413 -1524.133)" fill="#959ca7"/>
  </g>
  <path id="Path_1670" data-name="Path 1670" d="M-4600.615,1285.325v27.658h-53.5v-27.691a3.048,3.048,0,0,1,3.338-3.349h46.8A3.055,3.055,0,0,1-4600.615,1285.325Z" transform="translate(4654.112 -1281.943)" fill="#959ca7"/>
</svg>
