<svg xmlns="http://www.w3.org/2000/svg" width="33.041" height="33.041" viewBox="0 0 33.041 33.041">
  <path id="Path_3300" data-name="Path 3300" d="M731.7-1029.979c0-3.041,4.623-5.507,10.326-5.507s10.325,2.466,10.325,5.507-4.623,5.507-10.325,5.507S731.7-1026.938,731.7-1029.979Zm10.326,8.26a18.217,18.217,0,0,1-3.98-.433,14.461,14.461,0,0,0-8.41-2.32c-5.7,0-10.325,2.466-10.325,5.507s4.623,5.507,10.325,5.507,10.325-2.466,10.325-5.507c0-.04-.01-.078-.011-.118h.011v2.872c0,3.041-4.623,5.507-10.325,5.507s-10.325-2.466-10.325-5.507v2.753c0,3.041,4.623,5.507,10.325,5.507s10.325-2.466,10.325-5.507v2.753c0,3.041-4.623,5.507-10.325,5.507s-10.325-2.466-10.325-5.507v2.754c0,3.041,4.623,5.507,10.325,5.507s10.325-2.466,10.325-5.507v-.11a19.361,19.361,0,0,0,2.065.11c5.7,0,10.325-2.466,10.325-5.507v-2.753c0,2.917-4.257,5.3-9.637,5.489v-2.753c5.38-.19,9.637-2.57,9.637-5.489v-2.754c0,2.917-4.257,5.3-9.637,5.489v-2.753c5.38-.19,9.637-2.57,9.637-5.489v-2.754C752.352-1024.185,747.729-1021.719,742.027-1021.719Z" transform="translate(-719.311 1035.486)" fill="#707070"/>
</svg>
