<svg xmlns="http://www.w3.org/2000/svg" width="15" height="15" viewBox="0 0 15 15">
  <path id="Path_207" data-name="Path 207" d="M682.831,3232.107c0-1.381,2.1-2.5,4.688-2.5s4.688,1.119,4.688,2.5-2.1,2.5-4.687,2.5S682.831,3233.488,682.831,3232.107Zm4.688,3.75a8.264,8.264,0,0,1-1.807-.2,6.566,6.566,0,0,0-3.818-1.053c-2.589,0-4.687,1.119-4.687,2.5s2.1,2.5,4.688,2.5,4.688-1.119,4.688-2.5c0-.018,0-.036-.005-.054h.005v1.3c0,1.381-2.1,2.5-4.687,2.5s-4.687-1.119-4.687-2.5v1.25c0,1.381,2.1,2.5,4.688,2.5s4.688-1.119,4.688-2.5v1.25c0,1.381-2.1,2.5-4.687,2.5s-4.687-1.119-4.687-2.5v1.25c0,1.381,2.1,2.5,4.688,2.5s4.688-1.119,4.688-2.5v-.05a8.8,8.8,0,0,0,.938.05c2.589,0,4.688-1.119,4.688-2.5v-1.25c0,1.324-1.932,2.406-4.375,2.492v-1.25c2.443-.086,4.375-1.167,4.375-2.492v-1.25c0,1.324-1.932,2.406-4.375,2.492v-1.25c2.443-.086,4.375-1.167,4.375-2.492v-1.25C692.206,3234.738,690.107,3235.857,687.518,3235.857Z" transform="translate(-677.206 -3229.607)" fill="#959ca7"/>
</svg>
