<svg xmlns="http://www.w3.org/2000/svg" width="17" height="17.012" viewBox="0 0 17 17.012">
  <path id="stars-4" d="M137.038,109.386a.372.372,0,0,0-.255-.351l-.922-.31a1.948,1.948,0,0,1-1.232-1.2l-.31-.922a.372.372,0,0,0-.688,0l-.324.922a1.948,1.948,0,0,1-1.232,1.232l-.922.31a.372.372,0,0,0,0,.688l.922.31a1.948,1.948,0,0,1,1.232,1.232l.31.922a.372.372,0,0,0,.688,0l.31-.922a1.948,1.948,0,0,1,1.232-1.232l.922-.31A.372.372,0,0,0,137.038,109.386Zm6.478,4.77-1.039-.344a2.182,2.182,0,0,1-1.377-1.377l-.344-1.039a.413.413,0,0,0-.792,0l-.344,1.039a2.182,2.182,0,0,1-1.377,1.377l-1.039.344a.413.413,0,0,0,0,.792l1.039.344a2.182,2.182,0,0,1,1.377,1.377l.344,1.039a.413.413,0,0,0,.792,0l.344-1.039a2.182,2.182,0,0,1,1.377-1.377l1.039-.344a.413.413,0,0,0,0-.792Zm-8.1,4.206-1.377-.447a2.836,2.836,0,0,1-1.8-1.8l-.447-1.377a.544.544,0,0,0-1.026,0l-.447,1.377a2.836,2.836,0,0,1-1.769,1.8l-1.377.447a.544.544,0,0,0,0,1.026l1.377.447a2.836,2.836,0,0,1,1.8,1.8l.447,1.377a.544.544,0,0,0,1.026,0l.447-1.377a2.836,2.836,0,0,1,1.8-1.8l1.377-.447a.544.544,0,0,0,0-1.026Z" transform="translate(143.81 123.379) rotate(180)" fill="#138edf"/>
</svg>
