<svg xmlns="http://www.w3.org/2000/svg" width="17.074" height="17.073" viewBox="0 0 17.074 17.073">
  <g id="Group_63" data-name="Group 63" transform="translate(0 0)">
    <path id="Path_119" data-name="Path 119" d="M-379.268,9254.947v-2.85a.712.712,0,0,1,.712-.712.712.712,0,0,1,.712.712v1.859l3.77-3.788a.713.713,0,0,1,1.007-.017.712.712,0,0,1,.017,1.007l-.017.018c-.422.422-3.306,3.323-3.752,3.771h1.824a.712.712,0,0,1,.712.712.712.712,0,0,1-.712.712h-2.849a1.424,1.424,0,0,1-1.424-1.424Zm5.765,6.936a2.208,2.208,0,0,1,0,3.118l-.65.748c-5.834,5.582-20.027-8.606-14.529-14.458l.819-.713a2.2,2.2,0,0,1,3.082.028c.022.021,1.341,1.736,1.341,1.736a2.214,2.214,0,0,1,0,3.05l-.825,1.036a9.106,9.106,0,0,0,4.936,4.947l1.043-.83a2.208,2.208,0,0,1,3.048,0s1.716,1.32,1.738,1.342Zm-.979,1.035s-1.7-1.312-1.726-1.333a.784.784,0,0,0-1.1,0c-.019.02-1.456,1.164-1.456,1.164a.708.708,0,0,1-.7.107,10.688,10.688,0,0,1-6.285-6.274.712.712,0,0,1,.1-.712s1.145-1.435,1.164-1.453a.784.784,0,0,0,0-1.1c-.021-.021-1.333-1.728-1.333-1.728a.784.784,0,0,0-1.075.028l-.819.712c-4.018,4.831,8.283,16.45,12.516,12.452l.65-.749A.8.8,0,0,0-374.482,9262.918Z" transform="translate(389.923 -9249.952)" fill="#707070"/>
  </g>
</svg>
