<svg xmlns="http://www.w3.org/2000/svg" width="22.109" height="24.252" viewBox="0 0 22.109 24.252">
  <g id="Group_2632" data-name="Group 2632" transform="translate(-438.202 -821.699)">
    <g id="Group_87" data-name="Group 87" transform="translate(438.202 821.699)">
      <path id="Path_120" data-name="Path 120" d="M863.613,9501.042c-.208-.289-.422-.58-.628-.861-.337-.46-.686-.937-1.02-1.409a2.3,2.3,0,0,0-.916-.773c-.463-.221-.932-.45-1.385-.669-.386-.189-.785-.383-1.178-.571a.217.217,0,0,1-.057-.033.241.241,0,0,1,.012-.053,5.741,5.741,0,0,0-1.755-6.095,5.8,5.8,0,0,0-3.763-1.4,5.586,5.586,0,0,0-.846.063,5.782,5.782,0,0,0-4.677,7.424.415.415,0,0,1,.016.071.19.19,0,0,1-.063.039c-.58.275-1.167.562-1.735.837-.3.146-.609.295-.914.44a1.828,1.828,0,0,0-.688.547c-.13.177-.26.354-.39.533-.475.646-.966,1.319-1.44,1.985a1.6,1.6,0,0,0-.272,1.325,1.615,1.615,0,0,0,.875,1.058c.234.117.476.238.723.347a.156.156,0,0,1,.118.185c-.008.483-.007.975-.006,1.45,0,.181,0,.361,0,.541s0,.366,0,.548c0,.419,0,.853,0,1.279a1.883,1.883,0,0,0,1.164,1.853c2.733,1.315,5.006,2.423,7.154,3.481a2.092,2.092,0,0,0,1.976,0c2.1-1.031,4.365-2.131,7.115-3.457a1.939,1.939,0,0,0,1.193-1.91c-.007-.74-.006-1.493-.005-2.221,0-.516,0-1.048,0-1.573,0-.108.016-.124.085-.151.171-.07.337-.154.5-.236.061-.031.122-.061.183-.09a1.6,1.6,0,0,0,.628-2.494Zm-9.189,10.712-.979.477h0c.006-2.013.006-4.06.005-6.038v-1.407l.919,1.265a1.661,1.661,0,0,0,1.352.81,2.15,2.15,0,0,0,.939-.249q2.035-.992,4.071-1.981l.378-.184c.018-.009.036-.019.055-.026v0c0,.405,0,.808,0,1.213,0,.731,0,1.487,0,2.232a.873.873,0,0,1-.546.873C858.553,9509.739,856.453,9510.764,854.423,9511.754Zm4.951-7.636-1.647.8c-.531.259-1.079.526-1.62.786a.874.874,0,0,1-.364.1c-.113,0-.268-.036-.472-.314-.19-.263-.38-.521-.569-.78-.314-.433-.64-.879-.963-1.314l-.022-.033a.264.264,0,0,1,.031-.017c2.2-1.062,4.513-2.187,7.508-3.648a.336.336,0,0,1,.057-.023.246.246,0,0,1,.032.037c.407.571.828,1.147,1.234,1.7l.209.284a.551.551,0,0,1,.125.349.565.565,0,0,1-.389.536C861.473,9503.095,860.406,9503.615,859.374,9504.118Zm-6.461-13.884h.017a4.735,4.735,0,0,1,0,9.47h-.016a4.735,4.735,0,0,1,0-9.47Zm-.517,21.987-2.893-1.405c-1.409-.684-2.866-1.394-4.3-2.089a.843.843,0,0,1-.526-.836c0-.956.006-2.217,0-3.479l2.829,1.379q.838.407,1.675.815a2.181,2.181,0,0,0,.947.254,1.674,1.674,0,0,0,1.359-.826c.249-.344.5-.686.761-1.043l.15-.207Zm-9.309-10.561.507-.7c.294-.4.6-.819.895-1.232a.255.255,0,0,1,.046-.056.2.2,0,0,1,.057.022c2.233,1.09,4.627,2.252,7.532,3.659a.007.007,0,0,1,.007,0c-.441.6-.884,1.205-1.313,1.794l-.288.4a.558.558,0,0,1-.464.254h-.018a.667.667,0,0,1-.292-.092c-1.916-.93-4.179-2.031-6.439-3.133a.551.551,0,0,1-.229-.921Zm9.828.9a.192.192,0,0,1-.078-.022c-2.013-.982-4.061-1.98-6.042-2.945l-1.423-.693c.186-.091.372-.181.556-.272l1.335-.649a2.307,2.307,0,0,0,.211-.119.9.9,0,0,1,.345-.154.064.064,0,0,1,.021,0c.046.014.127.179.171.267a2.1,2.1,0,0,0,.132.242,5.626,5.626,0,0,0,2.131,1.9,5.866,5.866,0,0,0,5.493-.11,5.675,5.675,0,0,0,2.182-2.2c.048-.084.07-.1.072-.1a.237.237,0,0,1,.1.035c.624.313,1.238.609,1.887.927.156.076.313.153.471.229l-2.322,1.131-1.124.547c-1.31.638-2.664,1.3-4,1.945A.291.291,0,0,1,852.915,9502.562Z" transform="translate(-841.866 -9489.173)" fill="#85144b"/>
      <path id="Path_121" data-name="Path 121" d="M1012.837,9545.737l-.129-.116.136-.123c.173-.156.338-.3.5-.459a1.269,1.269,0,0,0,.01-1.909,1.48,1.48,0,0,0-1.016-.383,1.593,1.593,0,0,0-1.06.394l-.083.073c-.165.147-.336.3-.49.462a.333.333,0,0,1-.047.042.383.383,0,0,1-.06-.052c-.19-.191-.394-.374-.589-.545a1.472,1.472,0,0,0-1-.387,1.686,1.686,0,0,0-.383.045,1.4,1.4,0,0,0-1.041.916,1.26,1.26,0,0,0,.331,1.3c.106.1.216.2.331.3l.139.118.071.062c.026.021.052.043.078.066l.078.066c-.054.051-.108.1-.161.145-.179.159-.348.309-.51.466a1.272,1.272,0,0,0,.014,1.895,1.508,1.508,0,0,0,1.021.388,1.554,1.554,0,0,0,1.033-.388c.241-.216.449-.407.634-.588l.008-.007.007.007c.149.146.306.289.457.427l.112.1a1.657,1.657,0,0,0,1.116.452,1.48,1.48,0,0,0,1-.392,1.285,1.285,0,0,0-.05-1.956C1013.148,9546.018,1013,9545.881,1012.837,9545.737Zm-.1,1.8a.639.639,0,0,1-.89-.054c-.3-.27-.588-.545-.885-.814a.4.4,0,0,0-.617,0c-.3.271-.588.547-.884.816a.633.633,0,0,1-.888.05.525.525,0,0,1,.061-.819c.287-.27.58-.533.867-.8.235-.22.235-.376,0-.6-.287-.27-.58-.533-.867-.8a.526.526,0,0,1-.058-.821.624.624,0,0,1,.886.054c.3.27.588.545.885.814a.4.4,0,0,0,.617,0c.319-.288.629-.585.95-.87a.594.594,0,0,1,.659-.1.507.507,0,0,1,.332.493.557.557,0,0,1-.21.417c-.3.271-.59.542-.883.815-.237.221-.237.375,0,.6.288.269.58.532.867.8A.526.526,0,0,1,1012.734,9547.539Z" transform="translate(-999.598 -9540.013)" fill="#85144b"/>
    </g>
  </g>
</svg>
