<svg xmlns="http://www.w3.org/2000/svg" width="45.442" height="49.849" viewBox="0 0 45.442 49.849">
  <g id="Group_2532" data-name="Group 2532" transform="translate(0 -0.001)">
    <path id="Path_1651" data-name="Path 1651" d="M886.564,9513.571c-.428-.592-.866-1.191-1.291-1.77-.693-.947-1.409-1.926-2.1-2.9a4.752,4.752,0,0,0-1.883-1.593c-.951-.453-1.915-.921-2.846-1.375-.793-.385-1.613-.784-2.421-1.172a.7.7,0,0,1-.118-.066.484.484,0,0,1,.025-.11,11.607,11.607,0,0,0,.419-5.259,11.737,11.737,0,0,0-4.026-7.271,11.933,11.933,0,0,0-7.734-2.886,11.667,11.667,0,0,0-1.739.131,11.885,11.885,0,0,0-9.614,15.261.769.769,0,0,1,.032.144.411.411,0,0,1-.13.078c-1.192.568-2.4,1.153-3.566,1.722l-1.878.909a3.673,3.673,0,0,0-1.415,1.121l-.8,1.095c-.976,1.332-1.985,2.71-2.96,4.08a3.283,3.283,0,0,0-.558,2.727,3.333,3.333,0,0,0,1.8,2.176c.481.24.979.488,1.485.71a.319.319,0,0,1,.242.378c-.017.993-.014,2-.012,2.979,0,.373,0,.744,0,1.115s0,.751,0,1.127c0,.861,0,1.752,0,2.626a3.871,3.871,0,0,0,2.393,3.809c5.618,2.708,10.29,4.981,14.705,7.156a4.312,4.312,0,0,0,4.062,0c4.324-2.123,8.971-4.382,14.623-7.105a3.986,3.986,0,0,0,2.453-3.929c-.015-1.521-.013-3.068-.011-4.566,0-1.058,0-2.152,0-3.229,0-.221.033-.256.175-.314.352-.146.692-.316,1.023-.482.125-.063.251-.126.377-.187a3.278,3.278,0,0,0,1.291-5.125Zm-18.888,22.017-2.013.982v0c.013-4.138.012-8.343.011-12.412v-2.892l1.89,2.6a3.417,3.417,0,0,0,2.778,1.666,4.444,4.444,0,0,0,1.931-.514q4.183-2.041,8.368-4.073l.777-.378c.037-.019.074-.037.113-.055v.012q0,1.245,0,2.49c0,1.5,0,3.058.007,4.588a1.789,1.789,0,0,1-1.122,1.793C876.164,9531.448,871.849,9533.553,867.676,9535.588Zm10.177-15.7-3.385,1.647c-1.091.529-2.219,1.078-3.33,1.615a1.771,1.771,0,0,1-.748.21c-.232,0-.551-.073-.97-.646-.391-.533-.78-1.069-1.169-1.6-.646-.888-1.315-1.806-1.979-2.7l-.046-.066c.016-.009.038-.021.065-.032,4.516-2.186,9.276-4.5,15.432-7.5a.553.553,0,0,1,.117-.047.479.479,0,0,1,.066.077c.836,1.174,1.7,2.355,2.537,3.5l.429.587a1.137,1.137,0,0,1,.257.717,1.159,1.159,0,0,1-.8,1.1C882.167,9517.79,879.974,9518.858,877.853,9519.893Zm-13.28-28.534h.035a9.73,9.73,0,0,1,0,19.46h-.033a9.73,9.73,0,0,1,0-19.46Zm-1.063,45.19-5.946-2.89c-2.9-1.407-5.891-2.862-8.838-4.29a1.739,1.739,0,0,1-1.08-1.72c.007-1.966.013-4.556,0-7.154,1.937.948,3.909,1.908,5.815,2.836q1.722.838,3.443,1.678a4.489,4.489,0,0,0,1.946.521,3.445,3.445,0,0,0,2.794-1.7c.511-.705,1.025-1.409,1.564-2.146.1-.141.2-.281.309-.424Zm-19.135-21.706q.519-.716,1.043-1.432c.6-.828,1.23-1.686,1.839-2.536a.541.541,0,0,1,.095-.11.422.422,0,0,1,.117.045c4.591,2.238,9.51,4.628,15.481,7.521l.015.007c-.907,1.225-1.817,2.478-2.7,3.69l-.591.813a1.142,1.142,0,0,1-.954.523h-.038a1.421,1.421,0,0,1-.6-.187c-3.937-1.914-8.589-4.176-13.234-6.44a1.132,1.132,0,0,1-.472-1.894Zm20.2,1.85a.355.355,0,0,1-.161-.043c-4.138-2.023-8.348-4.073-12.419-6.056l-2.926-1.425,1.143-.558,2.743-1.337c.146-.069.292-.159.434-.244a1.849,1.849,0,0,1,.71-.319.179.179,0,0,1,.042,0c.094.029.262.369.352.553a4.285,4.285,0,0,0,.272.5,11.538,11.538,0,0,0,4.379,3.906,12.067,12.067,0,0,0,11.291-.228,11.646,11.646,0,0,0,4.485-4.521c.1-.18.144-.2.149-.205a.517.517,0,0,1,.2.073c1.283.643,2.545,1.256,3.88,1.906l.967.471-4.772,2.323-2.31,1.124c-2.692,1.308-5.475,2.664-8.212,4A.6.6,0,0,1,864.576,9516.692Z" transform="translate(-841.866 -9489.172)" fill="#959ca7"/>
    <path id="Path_1652" data-name="Path 1652" d="M1018.981,9549.754c-.091-.091-.184-.181-.279-.272l.292-.286c.374-.367.728-.714,1.078-1.075a3.133,3.133,0,0,0,.021-4.462,3.057,3.057,0,0,0-2.192-.895,3.281,3.281,0,0,0-2.287.923l-.178.171c-.356.342-.724.693-1.058,1.076a.571.571,0,0,1-.1.1.681.681,0,0,1-.129-.12c-.409-.446-.851-.874-1.269-1.274a3.041,3.041,0,0,0-2.149-.9,3.347,3.347,0,0,0-.826.105,3.125,3.125,0,0,0-1.53,5.17c.229.246.467.479.713.712l.3.279.152.141.169.157.17.158c-.118.115-.233.226-.347.335-.386.372-.751.723-1.1,1.089a3.14,3.14,0,0,0,2.232,5.337,3.211,3.211,0,0,0,2.228-.911c.521-.5.968-.951,1.367-1.372.006-.006.011-.013.016-.018l.015.018c.321.343.66.677.987,1l.242.237a3.433,3.433,0,0,0,2.407,1.052,3.059,3.059,0,0,0,2.163-.913,3.168,3.168,0,0,0-.107-4.571C1019.653,9550.408,1019.327,9550.091,1018.981,9549.754Zm-.221,4.212a1.306,1.306,0,0,1-1.92-.127c-.639-.631-1.268-1.272-1.908-1.9a.816.816,0,0,0-1.33.006c-.64.632-1.268,1.272-1.907,1.9a1.276,1.276,0,1,1-1.784-1.8c.619-.629,1.25-1.247,1.869-1.874.507-.517.506-.881,0-1.4-.619-.628-1.25-1.245-1.87-1.873a1.291,1.291,0,0,1-.124-1.916,1.272,1.272,0,0,1,1.912.124c.641.628,1.267,1.272,1.909,1.9a.823.823,0,0,0,1.331,0c.688-.674,1.356-1.366,2.05-2.033a1.2,1.2,0,0,1,1.422-.237,1.186,1.186,0,0,1,.717,1.152,1.339,1.339,0,0,1-.453.974c-.637.635-1.273,1.268-1.905,1.907-.512.517-.512.876,0,1.395.621.627,1.251,1.245,1.869,1.874A1.3,1.3,0,0,1,1018.76,9553.966Z" transform="translate(-991.546 -9537.57)" fill="#959ca7"/>
  </g>
</svg>
