<svg xmlns="http://www.w3.org/2000/svg" width="17.201" height="17.203" viewBox="0 0 17.201 17.203">
  <g id="Group_1518" data-name="Group 1518" transform="translate(-2111.199 -1078.85)">
    <g id="Group_88" data-name="Group 88" transform="translate(2111.199 1078.85)">
      <g id="Group_87" data-name="Group 87">
        <g id="Group_86" data-name="Group 86">
          <g id="Group_34" data-name="Group 34">
            <path id="Path_43" data-name="Path 43" d="M2958.744,7415.683l-8.738,8.738a3.558,3.558,0,0,0-1.049,2.533v.963a.717.717,0,0,0,.717.717h.962a3.56,3.56,0,0,0,2.533-1.05l8.738-8.738a2.24,2.24,0,0,0,0-3.164A2.289,2.289,0,0,0,2958.744,7415.683Zm2.15,2.15-8.738,8.738a2.165,2.165,0,0,1-1.52.629h-.246v-.246a2.164,2.164,0,0,1,.629-1.52l8.738-8.738a.822.822,0,0,1,1.137,0A.8.8,0,0,1,2960.894,7417.833Z" transform="translate(-2945.373 -7415.016)" fill="#959ca7"/>
            <path id="Path_44" data-name="Path 44" d="M2867.041,7420.6a.717.717,0,0,0-.717.717v3.6h-2.867a2.15,2.15,0,0,0-2.15,2.15v2.867h-7.167a2.15,2.15,0,0,1-2.15-2.15v-10.034a2.15,2.15,0,0,1,2.15-2.15h6.48a.717.717,0,0,0,0-1.434h-6.48a3.588,3.588,0,0,0-3.583,3.584v10.034a3.588,3.588,0,0,0,3.583,3.583h8.13a3.559,3.559,0,0,0,2.534-1.049l1.9-1.9a3.561,3.561,0,0,0,1.05-2.534v-4.561A.717.717,0,0,0,2867.041,7420.6Zm-3.25,8.7a2.133,2.133,0,0,1-1.05.573v-2.811a.717.717,0,0,1,.717-.717h2.813a2.162,2.162,0,0,1-.573,1.049Z" transform="translate(-2850.557 -7414.165)" fill="#959ca7"/>
          </g>
        </g>
      </g>
    </g>
  </g>
</svg>
