<svg xmlns="http://www.w3.org/2000/svg" xmlns:xlink="http://www.w3.org/1999/xlink" width="39.663" height="43.591" viewBox="0 0 39.663 43.591">
  <defs>
    <filter id="Ellipse_1" x="5.663" y="0" width="34" height="34" filterUnits="userSpaceOnUse">
      <feOffset dy="3" input="SourceAlpha"/>
      <feGaussianBlur stdDeviation="3" result="blur"/>
      <feFlood flood-opacity="0.161"/>
      <feComposite operator="in" in2="blur"/>
      <feComposite in="SourceGraphic"/>
    </filter>
  </defs>
  <g id="Group_1074" data-name="Group 1074" transform="translate(-1530.663 -47)">
    <g id="Group_7" data-name="Group 7" transform="translate(1530.663 57)">
      <path id="Path_7" data-name="Path 7" d="M-797.016,2145.512l-2.708-9.566a13.315,13.315,0,0,0-16.356-9.072,13.148,13.148,0,0,0-9.407,9.735l-2.1,9.256a7,7,0,0,0,5.409,8.348,7.268,7.268,0,0,0,1.546.167h1.588a7.123,7.123,0,0,0,8.4,5.464,7.063,7.063,0,0,0,5.565-5.464h1.194a7.062,7.062,0,0,0,7.126-7,6.868,6.868,0,0,0-.26-1.873Zm-15.042,11.667a4.271,4.271,0,0,1-4.013-2.8h8.026A4.271,4.271,0,0,1-812.057,2157.179Zm11.58-7.255a4.27,4.27,0,0,1-3.4,1.658h-16.746a4.237,4.237,0,0,1-4.274-4.2,4.119,4.119,0,0,1,.1-.91l2.095-9.257a10.437,10.437,0,0,1,12.448-7.777,10.354,10.354,0,0,1,7.787,7.256l2.708,9.565A4.106,4.106,0,0,1-800.477,2149.924Z" transform="translate(827.755 -2126.395)" fill="#616161"/>
    </g>
    <g transform="matrix(1, 0, 0, 1, 1530.66, 47)" filter="url(#Ellipse_1)">
      <g id="Ellipse_1-2" data-name="Ellipse 1" transform="translate(14.66 6)" fill="#fff" stroke="#707070" stroke-width="3">
        <circle cx="8" cy="8" r="8" stroke="none"/>
        <circle cx="8" cy="8" r="6.5" fill="none"/>
      </g>
    </g>
  </g>
</svg>
