<svg xmlns="http://www.w3.org/2000/svg" width="22.654" height="25" viewBox="0 0 22.654 25">
  <g id="Group_1055" data-name="Group 1055" transform="translate(827.755 -2126.395)">
    <path id="Path_941" data-name="Path 941" d="M-805.291,2140.623l-1.979-7.119a9.707,9.707,0,0,0-11.953-6.751A9.707,9.707,0,0,0-826.1,2134l-1.532,6.889a5.207,5.207,0,0,0,3.953,6.213,5.2,5.2,0,0,0,1.13.124h1.16a5.207,5.207,0,0,0,6.139,4.067,5.207,5.207,0,0,0,4.067-4.067h.873a5.207,5.207,0,0,0,5.207-5.207,5.207,5.207,0,0,0-.19-1.394Zm-10.992,8.683a3.124,3.124,0,0,1-2.933-2.083h5.865A3.124,3.124,0,0,1-816.283,2149.306Zm8.462-5.4a3.1,3.1,0,0,1-2.488,1.234h-12.238a3.124,3.124,0,0,1-3.124-3.125,3.121,3.121,0,0,1,.074-.677l1.531-6.89a7.624,7.624,0,0,1,9.1-5.788,7.624,7.624,0,0,1,5.691,5.4l1.979,7.119A3.1,3.1,0,0,1-807.821,2143.906Z" fill="#707070"/>
  </g>
</svg>
