<svg xmlns="http://www.w3.org/2000/svg" width="27.107" height="27.213" viewBox="0 0 27.107 27.213">
  <g id="Group_1808" data-name="Group 1808" transform="translate(-377.04 456.439)">
    <path id="Path_1842" data-name="Path 1842" d="M517.218-449.531c-1.9.009-3.791.005-5.686.005a.846.846,0,0,1-.972-.971c0-1.9,0-3.791,0-5.686,0-.21-.054-.257-.259-.257q-5.566.01-11.133.005a2.375,2.375,0,0,0-2.43,2.432q0,2.378,0,4.756c0,1.3,0,2.6,0,3.905,0,.163.021.235.213.209a6.668,6.668,0,0,1,2.009.086,8.641,8.641,0,0,1,5.168,2.884.484.484,0,0,0,.405.185q3.268-.01,6.536,0c.611,0,1.223-.006,1.833,0a.788.788,0,0,1,.756,1.133.827.827,0,0,1-.826.461q-3.586,0-7.174,0h-.3a.654.654,0,0,0,.026.091,8.343,8.343,0,0,1,.839,2.824c.027.254.126.279.341.278,2.063-.008,4.127,0,6.19,0a2.372,2.372,0,0,1,.239,0,.824.824,0,0,1,.741.685.8.8,0,0,1-.457.823,1.118,1.118,0,0,1-.49.084c-2.1,0-4.2,0-6.3-.005-.175,0-.232.035-.255.22a8.7,8.7,0,0,1-2.5,5.169,9.753,9.753,0,0,1-1.17.992h12.438a2.375,2.375,0,0,0,2.459-2.456q0-8.794,0-17.588C517.473-449.473,517.429-449.532,517.218-449.531ZM512.9-445.17c-.682.007-1.364,0-2.045,0h-9.481a.84.84,0,0,1-.847-.513.8.8,0,0,1,.687-1.078,1.662,1.662,0,0,1,.186,0h11.421a.848.848,0,0,1,.873.512A.8.8,0,0,1,512.9-445.17Z" transform="translate(-113.326)" fill="#707070"/>
    <path id="Path_1843" data-name="Path 1843" d="M384.245-214.839a7.17,7.17,0,0,0-7.205,7.15,7.171,7.171,0,0,0,7.157,7.2,7.171,7.171,0,0,0,7.191-7.164A7.17,7.17,0,0,0,384.245-214.839Zm2.023,7.97q-1,.006-1.99,0a.816.816,0,0,1-.86-.867c0-.513,0-1.026,0-1.539,0-.5,0-.991,0-1.486a.824.824,0,0,1,.785-.888.822.822,0,0,1,.808.893c0,.7.007,1.4,0,2.1,0,.168.045.207.207.2.353-.013.708-.007,1.061,0a.819.819,0,0,1,.861.785A.818.818,0,0,1,386.268-206.869Z" transform="translate(0 -228.735)" fill="#707070"/>
    <path id="Path_1844" data-name="Path 1844" d="M786.148-447.472c.057.054.083.077.108.1l4.7,4.694c-.039.082-.11.044-.163.044-1.478,0-2.956,0-4.435.006-.169,0-.22-.037-.219-.215.008-1.5,0-2.992,0-4.488C786.138-447.362,786.143-447.4,786.148-447.472Z" transform="translate(-387.31 -8.49)" fill="#707070"/>
  </g>
</svg>
