<svg xmlns="http://www.w3.org/2000/svg" width="15.079" height="19.45" viewBox="0 0 15.079 19.45">
  <g id="Group_2184" data-name="Group 2184" transform="translate(-1009 -672.001)">
    <g id="Group_2183" data-name="Group 2183" transform="translate(977 78)">
      <g id="Group_1325" data-name="Group 1325" transform="translate(32 594.001)">
        <path id="Path_1654" data-name="Path 1654" d="M1506.134,6556.123V6543.39c0-.088,0-.177,0-.265a.98.98,0,0,0-1.033-.89c-.7-.018-1.4,0-2.1-.006-.2,0-.256.069-.251.234.01.309.015.617,0,.925-.02.333-.155.446-.529.447q-3.643,0-7.287,0c-.368,0-.472-.087-.494-.418-.02-.308-.015-.616-.006-.924.007-.182-.052-.269-.278-.265-.7.008-1.4-.014-2.1.007a.941.941,0,0,0-1,.907c-.005.117,0,.235,0,.353v12.557c0,.133-.006.265,0,.4a1.013,1.013,0,0,0,.828.887,2.607,2.607,0,0,0,.544.05q6.14,0,12.279,0a3.1,3.1,0,0,0,.447-.026,1.067,1.067,0,0,0,.968-.929A2.925,2.925,0,0,0,1506.134,6556.123ZM1498,6546.6a1.857,1.857,0,0,1,.347-.013h5.332c.083,0,.166,0,.249,0,.341.014.526.144.514.36-.01.2-.188.322-.5.332-.248.009-.5,0-.747,0h-4.784a2.833,2.833,0,0,1-.4-.01.35.35,0,0,1-.337-.329c-.007-.184.122-.3.319-.344Zm-.319,3.993a.344.344,0,0,1,.349-.315c.115-.01.232-.007.348-.007h5.378a2.959,2.959,0,0,1,.348.009.338.338,0,0,1,.334.327.316.316,0,0,1-.28.322,1.825,1.825,0,0,1-.393.034q-2.713,0-5.428,0a1.7,1.7,0,0,1-.345-.023c-.2-.044-.327-.164-.311-.348Zm-4.708-4.473a.423.423,0,0,1,.489.109,7.136,7.136,0,0,0,.751.66c.5-.411.979-.812,1.463-1.213a2.6,2.6,0,0,1,.3-.231.379.379,0,0,1,.491.061.285.285,0,0,1,0,.438.921.921,0,0,1-.1.1c-.619.513-1.235,1.026-1.859,1.534-.27.219-.391.223-.64.012-.336-.285-.663-.577-.977-.881a.326.326,0,0,1,.083-.585Zm3.506,7.165a1.182,1.182,0,0,1-.137.128c-.595.491-1.187.985-1.786,1.473-.323.263-.447.26-.753-.006s-.587-.52-.87-.787c-.233-.22-.244-.427-.052-.572a.459.459,0,0,1,.611.089c.233.206.457.421.7.645l1.51-1.245a1.994,1.994,0,0,1,.259-.206.39.39,0,0,1,.5.045.285.285,0,0,1,.022.438Zm-.045-3.629c-.661.555-1.329,1.1-2,1.65a.358.358,0,0,1-.49.02c-.38-.328-.747-.665-1.112-1a.284.284,0,0,1-.048-.369.361.361,0,0,1,.288-.2.534.534,0,0,1,.408.168c.159.149.329.291.474.45s.269.205.466.024c.392-.356.815-.687,1.226-1.026.085-.07.164-.146.256-.208a.4.4,0,0,1,.568.021.3.3,0,0,1-.039.471Zm7.384,4.966c-.929,0-1.858,0-2.787,0h-2.689a2.585,2.585,0,0,1-.348-.012.332.332,0,0,1-.314-.3.3.3,0,0,1,.251-.337,1.546,1.546,0,0,1,.391-.042q2.738,0,5.476,0c.442,0,.634.108.642.34s-.194.346-.623.347Z" transform="translate(-1491.057 -6537.938)" fill="#959ca7"/>
        <path id="Path_1655" data-name="Path 1655" d="M1501.485,6543.66c-1.4,0-2.8,0-4.2,0-.49,0-.5-.01-.5-.484-.006-.9.012-1.791-.009-2.686-.008-.342.115-.441.438-.425.435.022.872.01,1.309,0,.59-.008.632-.042.836-.6a2.158,2.158,0,0,1,2.686-1.438,2.034,2.034,0,0,1,1.436,1.363c.236.654.264.674.924.681.459,0,.919.013,1.378,0,.278-.01.349.108.346.365-.011.941-.02,1.883,0,2.823.009.353-.128.416-.441.413C1504.287,6543.652,1502.886,6543.66,1501.485,6543.66Z" transform="translate(-1493.92 -6537.938)" fill="#959ca7"/>
      </g>
    </g>
  </g>
</svg>
