<svg xmlns="http://www.w3.org/2000/svg" width="27.937" height="28.238" viewBox="0 0 27.937 28.238">
  <g id="Group_52" data-name="Group 52" transform="translate(-5034.058 -3197.61)">
    <path id="Path_37" data-name="Path 37" d="M5047.561,3215.259a1.176,1.176,0,0,0-1.176,1.176v3.53a3.53,3.53,0,0,1-3.53,3.53h-2.913a3.53,3.53,0,0,1-3.53-3.53v-16.472a3.53,3.53,0,0,1,3.53-3.53h2.913a3.53,3.53,0,0,1,3.53,3.53v3.53a1.176,1.176,0,1,0,2.353,0v-3.53a5.89,5.89,0,0,0-5.883-5.883h-2.913a5.89,5.89,0,0,0-5.883,5.883v16.472a5.89,5.89,0,0,0,5.883,5.883h2.913a5.89,5.89,0,0,0,5.883-5.883v-3.53A1.176,1.176,0,0,0,5047.561,3215.259Z" transform="translate(0 0)" fill="#707070"/>
    <path id="Path_38" data-name="Path 38" d="M5161.746,3309.77l-5.4-5.4a1.177,1.177,0,0,0-1.693,1.635l.029.029,5.015,5.016-17.8.035a1.177,1.177,0,1,0,0,2.353h0l17.87-.037-5.086,5.088a1.176,1.176,0,1,0,1.634,1.693l.029-.029,5.4-5.4A3.53,3.53,0,0,0,5161.746,3309.77Z" transform="translate(-100.783 -100.536)" fill="#707070"/>
  </g>
</svg>
