<svg xmlns="http://www.w3.org/2000/svg" width="15.388" height="15.388" viewBox="0 0 15.388 15.388">
  <g id="Group_366" data-name="Group 366" transform="translate(3090.077 -3230.028)">
    <path id="Path_108" data-name="Path 108" d="M-3081.753,3230.671a.642.642,0,0,1,.642-.642,6.429,6.429,0,0,1,6.422,6.422.642.642,0,0,1-.642.642.642.642,0,0,1-.642-.642,5.144,5.144,0,0,0-5.138-5.138A.643.643,0,0,1-3081.753,3230.671Zm.642,3.211a2.569,2.569,0,0,1,2.569,2.569.642.642,0,0,0,.643.642.642.642,0,0,0,.642-.642,3.857,3.857,0,0,0-3.854-3.853.642.642,0,0,0-.642.642A.643.643,0,0,0-3081.11,3233.882Zm5.84,6.9a1.991,1.991,0,0,1,0,2.812l-.584.674c-5.26,5.036-18.06-7.761-13.1-13.037l.739-.642a1.979,1.979,0,0,1,2.779.026c.02.02,1.21,1.566,1.21,1.566a1.991,1.991,0,0,1,0,2.75l-.743.935a8.207,8.207,0,0,0,4.451,4.46l.941-.748a1.991,1.991,0,0,1,2.75,0S-3075.291,3240.759-3075.271,3240.779Zm-.884.934s-1.537-1.183-1.557-1.2a.707.707,0,0,0-.995,0c-.017.018-1.313,1.05-1.313,1.05a.643.643,0,0,1-.629.1,9.641,9.641,0,0,1-5.665-5.657.642.642,0,0,1,.093-.642s1.032-1.3,1.05-1.313a.707.707,0,0,0,0-.995c-.02-.019-1.2-1.557-1.2-1.557a.707.707,0,0,0-.97.025l-.739.642c-3.624,4.357,7.469,14.834,11.287,11.226l.585-.675a.72.72,0,0,0,.055-1Z" transform="translate(0)" fill="#959ca7"/>
  </g>
</svg>
