<svg xmlns="http://www.w3.org/2000/svg" width="78" height="22" viewBox="0 0 78 22">
  <g id="Group_2492" data-name="Group 2492" transform="translate(-1635 -254)">
    <g id="Group_1764" data-name="Group 1764" transform="translate(207)">
      <text id="Print" transform="translate(1462 271)" fill="#707070" font-size="20" font-family="Bahnschrift"><tspan x="0" y="0">Print</tspan></text>
      <g id="Group_2493" data-name="Group 2493" transform="translate(2304.712 -4985.121)">
        <path id="Path_2698" data-name="Path 2698" d="M-859.3,5244.621v-1.834a3.666,3.666,0,0,0-3.667-3.666h-5.5a3.666,3.666,0,0,0-3.667,3.666v1.834a4.589,4.589,0,0,0-4.583,4.583v4.583a4.589,4.589,0,0,0,4.583,4.584,2.75,2.75,0,0,0,2.75,2.75h7.333a2.75,2.75,0,0,0,2.75-2.75,4.589,4.589,0,0,0,4.583-4.584V5249.2A4.589,4.589,0,0,0-859.3,5244.621Zm-11-1.834a1.833,1.833,0,0,1,1.833-1.833h5.5a1.833,1.833,0,0,1,1.833,1.833v1.834H-870.3Zm9.167,15.584a.917.917,0,0,1-.917.917h-7.333a.917.917,0,0,1-.917-.917V5254.7a.917.917,0,0,1,.917-.917h7.333a.917.917,0,0,1,.917.917Zm4.583-4.584a2.75,2.75,0,0,1-2.75,2.75V5254.7a2.75,2.75,0,0,0-2.75-2.75h-7.333a2.75,2.75,0,0,0-2.75,2.75v1.833a2.75,2.75,0,0,1-2.75-2.75V5249.2a2.75,2.75,0,0,1,2.75-2.75H-859.3a2.75,2.75,0,0,1,2.75,2.75Z" transform="translate(0)" fill="#707070"/>
        <path id="Path_2699" data-name="Path 2699" d="M-553.962,5452.455H-555.8a.917.917,0,0,0-.917.917.917.917,0,0,0,.917.917h1.833a.917.917,0,0,0,.917-.917A.917.917,0,0,0-553.962,5452.455Z" transform="translate(-306.25 -204.167)" fill="#707070"/>
      </g>
    </g>
  </g>
</svg>
