<svg xmlns="http://www.w3.org/2000/svg" xmlns:xlink="http://www.w3.org/1999/xlink" width="42.856" height="14.926" viewBox="0 0 42.856 14.926">
  <defs>
    <clipPath id="clip-path">
      <path id="Path_1696" data-name="Path 1696" d="M-1682.735,2568.817a1.433,1.433,0,0,1-.09.336,10.63,10.63,0,0,0-.477,1.479,3.839,3.839,0,0,0-.168,1.04c-.008.167-.03.814-.271.822q-.815.027-2.409.014-.8.036-1.469,0a3.146,3.146,0,0,1-2.579-1.893,3.434,3.434,0,0,1-.418-1.728.1.1,0,0,1,.1-.093l.37-.006c.3,0,.593.012.9.006q1.409-.027,2.818,0,1.659-.015,3.318-.022a1.922,1.922,0,0,0,.3-.033A.067.067,0,0,1-1682.735,2568.817Z" transform="translate(1690.623 -2568.741)" fill="#707070"/>
    </clipPath>
    <clipPath id="clip-path-2">
      <path id="Path_1699" data-name="Path 1699" d="M-1618.7,2658.4a5.523,5.523,0,0,1-.9.029,4.168,4.168,0,0,1-.778-.037,3.041,3.041,0,0,1-1.482-.713,4.026,4.026,0,0,1-1.321-2.932.051.051,0,0,1,.02-.039.389.389,0,0,1,.345-.078l.021-.018a.063.063,0,0,1,.046-.015l.586.051a.022.022,0,0,1,.014.006l.009.009a.042.042,0,0,0,.035.012c.285-.037.574.019.826.008q.926-.041,1.872-.092a.073.073,0,0,1,.077.077,10.867,10.867,0,0,0,.084,1.949,11.116,11.116,0,0,0,.593,1.691A.066.066,0,0,1-1618.7,2658.4Z" transform="translate(1623.188 -2654.597)" fill="#707070"/>
    </clipPath>
  </defs>
  <g id="Group_2432" data-name="Group 2432" transform="translate(-146 -167)">
    <g id="Group_1415" data-name="Group 1415" transform="translate(149.15 167.024)">
      <path id="Path_1693" data-name="Path 1693" d="M-1201.661,2493.109a8.294,8.294,0,0,1-.055.946,5.72,5.72,0,0,1-2.384,3.822,6.927,6.927,0,0,1-2.18,1.013,14.025,14.025,0,0,1-3.43.281l-5.347.012a.04.04,0,0,0-.035.02l-.019.03q-.089.818-.256,1.624a3.492,3.492,0,0,0-.066.506,9.662,9.662,0,0,1-.18,1.365c-.009.044,0,.121-.046.168a.056.056,0,0,1-.043.017c-.232,0-.464-.017-.7-.035a.1.1,0,0,1-.1-.077,1,1,0,0,0-.213-.354q-1.5-1.675-2.2-2.5c-.153-.181.022-.482.046-.663a2.682,2.682,0,0,1,.2-.9.051.051,0,0,1,.041-.022q.811-.048,1.809-.036a.619.619,0,0,0,.4-.152,6.29,6.29,0,0,0,.94-2.65.077.077,0,0,1,.077-.068l4.138-.006,3.941-.007a1.8,1.8,0,0,0,1.3-.621,1.833,1.833,0,0,0,.46-1.817,1.1,1.1,0,0,0-.58-.747,2.183,2.183,0,0,0-.932-.259,4.965,4.965,0,0,0-.563-.025c-.186.016-.369-.023-.557-.011s-.294.018-.312.018q-2.043.024-4.083.015-1.526-.005-3.049-.015a.1.1,0,0,1-.1-.09,7.7,7.7,0,0,0-.618-1.51.1.1,0,0,1,.012-.108q.58-.757,1.219-1.5a1.081,1.081,0,0,1,.806-.437q.706.011,1.413.009l6.551,0a4.547,4.547,0,0,1,3.868,1.793,4.293,4.293,0,0,1,.81,2.026Q-1201.65,2492.382-1201.661,2493.109Z" transform="translate(1241.363 -2488.028)" fill="#707070"/>
      <g id="Group_1412" data-name="Group 1412" transform="translate(0 4.118)">
        <path id="Path_1694" data-name="Path 1694" d="M-1682.735,2568.817a1.433,1.433,0,0,1-.09.336,10.63,10.63,0,0,0-.477,1.479,3.839,3.839,0,0,0-.168,1.04c-.008.167-.03.814-.271.822q-.815.027-2.409.014-.8.036-1.469,0a3.146,3.146,0,0,1-2.579-1.893,3.434,3.434,0,0,1-.418-1.728.1.1,0,0,1,.1-.093l.37-.006c.3,0,.593.012.9.006q1.409-.027,2.818,0,1.659-.015,3.318-.022a1.922,1.922,0,0,0,.3-.033A.067.067,0,0,1-1682.735,2568.817Z" transform="translate(1690.623 -2568.741)" fill="#707070"/>
        <g id="Group_1411" data-name="Group 1411" clip-path="url(#clip-path)">
          <path id="Path_1695" data-name="Path 1695" d="M-1689.547,2570.232s1.124,1.97,2.688,1.97h4.437l-.182,1.412h-4.255s-2,.1-2.688-3.382" transform="translate(1689.598 -2570.161)" fill="#707070"/>
        </g>
      </g>
      <g id="Group_1414" data-name="Group 1414" transform="translate(3.202 8.194)">
        <path id="Path_1697" data-name="Path 1697" d="M-1618.7,2658.4a5.523,5.523,0,0,1-.9.029,4.168,4.168,0,0,1-.778-.037,3.041,3.041,0,0,1-1.482-.713,4.026,4.026,0,0,1-1.321-2.932.051.051,0,0,1,.02-.039.389.389,0,0,1,.345-.078l.021-.018a.063.063,0,0,1,.046-.015l.586.051a.022.022,0,0,1,.014.006l.009.009a.042.042,0,0,0,.035.012c.285-.037.574.019.826.008q.926-.041,1.872-.092a.073.073,0,0,1,.077.077,10.867,10.867,0,0,0,.084,1.949,11.116,11.116,0,0,0,.593,1.691A.066.066,0,0,1-1618.7,2658.4Z" transform="translate(1623.188 -2654.597)" fill="#707070"/>
        <g id="Group_1413" data-name="Group 1413" clip-path="url(#clip-path-2)">
          <path id="Path_1698" data-name="Path 1698" d="M-1625.859,2652.939s1.155,4.983,4.664,3.346l-.424-1.224A4.482,4.482,0,0,1-1625.859,2652.939Z" transform="translate(1625.732 -2653.018)" fill="#707070"/>
        </g>
      </g>
      <path id="Path_1700" data-name="Path 1700" d="M-1516.64,2485.821a4.971,4.971,0,0,0-1.322-2.04,6.026,6.026,0,0,0-2.168-1.21,12.9,12.9,0,0,0-1.467-.354,8.282,8.282,0,0,0-1.838-.2q-3.159.009-6.318.013a16.076,16.076,0,0,0-3.892,4.239l0,.007q-.194.38-.353.776a2.956,2.956,0,0,1-.084.339,1.92,1.92,0,0,0-.176.575.118.118,0,0,0,0,.035v.027c0-.015,0-.03,0-.045l-.108.44a1.394,1.394,0,0,0,0,.443c0,.2-.1.368-.1.554-.008.353-.056.709-.054,1.05a9.293,9.293,0,0,0,.051,1.491.025.025,0,0,1,0,.007l.024.208a.157.157,0,0,0,.006.024.623.623,0,0,1,.013.073.628.628,0,0,0,.073.322.13.13,0,0,1,.011.029,5.914,5.914,0,0,0,.583,1.462,5.953,5.953,0,0,0,4.686,2.793q.543.033.879.034,4.026.011,10.1,0c.17,0,.417.021.627.005a.046.046,0,0,0,.038-.068,1.821,1.821,0,0,0-.275-.347q-1.771-2.055-3.569-4.087c-.387-.438-.927-1.08-1.418-1.6a.491.491,0,0,0-.407-.154q-2.212,0-4.4,0a.087.087,0,0,0-.063.146q.786.822,1.558,1.662c.16.174.34.335.519.5s.117.291-.106.295h0q-.751.008-1.5.009c-1.231,0-3.249-.292-3.559-1.8a8.965,8.965,0,0,1,.148-3.634.134.134,0,0,1,.006-.021,3.268,3.268,0,0,1,3.068-1.925,37.081,37.081,0,0,1,4.1-.047,4.874,4.874,0,0,1,2.145.465,2.271,2.271,0,0,1,1.088,1.91,6.364,6.364,0,0,1-.333,2.67,1.619,1.619,0,0,1-.132.273.076.076,0,0,1-.051.086.121.121,0,0,0-.04.034l-.386.466a.128.128,0,0,0,.1.21l1.33.01.022,0a2.012,2.012,0,0,1,.578-.011h.015q.791,0,1.582-.01a.3.3,0,0,0,.241-.131,7.193,7.193,0,0,0,.658-1.607c.056-.2.081-.435.121-.653a3.781,3.781,0,0,0,.062-.494A8.419,8.419,0,0,0-1516.64,2485.821Z" transform="translate(1541.95 -2482.022)" fill="#707070"/>
    </g>
    <path id="Path_1701" data-name="Path 1701" d="M-1741.616,2481.549a16.069,16.069,0,0,0-3.892,4.239c.053-.106.11-.212.168-.316a.045.045,0,0,0,0-.043.14.14,0,0,0-.1-.086c-.033,0-.073-.019-.1-.02-1.148-.019-2.3-.014-3.444-.018-.5,0-1.044.027-1.5.028q-1.694,0-2.178.02a5.329,5.329,0,0,1-1.788-.115l-.008,0a3.4,3.4,0,0,1-2.475-2.668,4.65,4.65,0,0,1-.023-.951.09.09,0,0,1,.086-.088,12.686,12.686,0,0,1,1.548.017h.009l4.5,0q.45,0,.895,0Q-1745.762,2481.554-1741.616,2481.549Z" transform="translate(1902.962 -2314.512)" fill="#707070"/>
    <path id="Path_1702" data-name="Path 1702" d="M-1755.038,2483.177s1.32,2.062,3.058,2.062h9.158l-.809,1.434H-1751C-1752.987,2486.673-1754.8,2486.062-1755.038,2483.177Z" transform="translate(1901.129 -2316.098)" fill="#707070"/>
  </g>
</svg>
