<svg xmlns="http://www.w3.org/2000/svg" xmlns:xlink="http://www.w3.org/1999/xlink" width="157.034" height="54.693" viewBox="0 0 157.034 54.693">
  <defs>
    <linearGradient id="linear-gradient" y1="0.5" x2="1" y2="0.5" gradientUnits="objectBoundingBox">
      <stop offset="0" stop-color="#1765a6"/>
      <stop offset="1" stop-color="#1f3d7b"/>
    </linearGradient>
    <linearGradient id="linear-gradient-3" y1="0.5" x2="1" y2="0.5" gradientUnits="objectBoundingBox">
      <stop offset="0" stop-color="#1e6eab"/>
      <stop offset="1" stop-color="#131853"/>
    </linearGradient>
    <clipPath id="clip-path">
      <path id="Path_1696" data-name="Path 1696" d="M-1661.722,2569.021a5.2,5.2,0,0,1-.331,1.23,39.036,39.036,0,0,0-1.748,5.418,14.064,14.064,0,0,0-.614,3.812c-.031.611-.108,2.984-.993,3.014q-2.988.1-8.828.051-2.916.133-5.385,0c-4.207-.218-7.7-3.226-9.449-6.936a12.574,12.574,0,0,1-1.531-6.332.364.364,0,0,1,.355-.34l1.356-.024c1.11.009,2.175.043,3.286.021q5.163-.1,10.324.01,6.078-.053,12.158-.082a6.825,6.825,0,0,0,1.117-.122A.246.246,0,0,1-1661.722,2569.021Z" transform="translate(1690.623 -2568.741)" fill="url(#linear-gradient)"/>
    </clipPath>
    <linearGradient id="linear-gradient-5" y1="0.5" x2="1" y2="0.5" gradientUnits="objectBoundingBox">
      <stop offset="0" stop-color="#6d9ccc"/>
      <stop offset="1" stop-color="#1e4382"/>
    </linearGradient>
    <clipPath id="clip-path-2">
      <path id="Path_1699" data-name="Path 1699" d="M-1606.758,2668.548a20.233,20.233,0,0,1-3.3.108,15.687,15.687,0,0,1-2.85-.136,11.168,11.168,0,0,1-5.432-2.613,14.75,14.75,0,0,1-4.84-10.743.188.188,0,0,1,.073-.143,1.425,1.425,0,0,1,1.263-.284l.077-.066a.222.222,0,0,1,.171-.053l2.147.186a.084.084,0,0,1,.05.023l.033.033a.157.157,0,0,0,.129.045c1.044-.135,2.1.07,3.028.03q3.393-.149,6.86-.336a.269.269,0,0,1,.283.282,39.822,39.822,0,0,0,.308,7.142,40.8,40.8,0,0,0,2.173,6.2A.239.239,0,0,1-1606.758,2668.548Z" transform="translate(1623.189 -2654.597)" fill="url(#linear-gradient)"/>
    </clipPath>
    <linearGradient id="linear-gradient-7" y1="0.5" x2="1" y2="0.5" gradientUnits="objectBoundingBox">
      <stop offset="0" stop-color="#6d9ccc"/>
      <stop offset="0.824" stop-color="#1e4483"/>
    </linearGradient>
    <linearGradient id="linear-gradient-8" y1="0.5" x2="1" y2="0.5" gradientUnits="objectBoundingBox">
      <stop offset="0" stop-color="#e94237"/>
      <stop offset="1" stop-color="#b51320"/>
    </linearGradient>
    <linearGradient id="linear-gradient-9" y1="0.5" x2="1" y2="0.5" gradientUnits="objectBoundingBox">
      <stop offset="0" stop-color="#e94337"/>
      <stop offset="1" stop-color="#b82d32"/>
    </linearGradient>
    <linearGradient id="linear-gradient-10" y1="0.5" x2="1" y2="0.5" gradientUnits="objectBoundingBox">
      <stop offset="0" stop-color="#f88b7c"/>
      <stop offset="1" stop-color="#c13133"/>
    </linearGradient>
  </defs>
  <g id="Group_2541" data-name="Group 2541" transform="translate(-165 -164)">
    <g id="Group_2540" data-name="Group 2540" transform="translate(19 -3)">
      <g id="Group_1415" data-name="Group 1415" transform="translate(157.543 167.089)">
        <path id="Path_1693" data-name="Path 1693" d="M-1155.552,2505.848a30.372,30.372,0,0,1-.2,3.467c-.806,5.865-4.084,10.5-8.736,14a25.373,25.373,0,0,1-7.988,3.709,51.33,51.33,0,0,1-12.569,1.034l-19.593.045a.145.145,0,0,0-.13.072l-.07.11q-.326,3-.939,5.952a12.866,12.866,0,0,0-.24,1.853,35.431,35.431,0,0,1-.661,5c-.033.161.01.441-.169.615a.206.206,0,0,1-.156.063q-1.277-.025-2.551-.128a.381.381,0,0,1-.36-.283,3.672,3.672,0,0,0-.779-1.3q-5.481-6.136-8.047-9.178c-.56-.663.082-1.764.167-2.429a9.81,9.81,0,0,1,.743-3.305.188.188,0,0,1,.15-.08q2.972-.174,6.63-.131a2.264,2.264,0,0,0,1.472-.555,23.055,23.055,0,0,0,3.443-9.711.284.284,0,0,1,.282-.25l15.163-.021,14.441-.026a6.578,6.578,0,0,0,4.753-2.274,6.715,6.715,0,0,0,1.686-6.659,4.035,4.035,0,0,0-2.124-2.739,8.013,8.013,0,0,0-3.417-.948,18.525,18.525,0,0,0-2.062-.089c-.682.058-1.35-.083-2.041-.039s-1.078.064-1.143.066q-7.485.086-14.961.054-5.593-.018-11.172-.056a.376.376,0,0,1-.381-.329,28.263,28.263,0,0,0-2.266-5.533.384.384,0,0,1,.044-.393q2.124-2.774,4.466-5.512a3.958,3.958,0,0,1,2.953-1.6q2.586.042,5.178.033l24.005.01a16.655,16.655,0,0,1,14.171,6.572,15.725,15.725,0,0,1,2.968,7.423Q-1155.513,2503.184-1155.552,2505.848Z" transform="translate(1301.029 -2487.23)" fill="url(#linear-gradient-3)"/>
        <g id="Group_1412" data-name="Group 1412" transform="translate(0 15.088)">
          <path id="Path_1694" data-name="Path 1694" d="M-1661.722,2569.021a5.2,5.2,0,0,1-.331,1.23,39.036,39.036,0,0,0-1.748,5.418,14.064,14.064,0,0,0-.614,3.812c-.031.611-.108,2.984-.993,3.014q-2.988.1-8.828.051-2.916.133-5.385,0c-4.207-.218-7.7-3.226-9.449-6.936a12.574,12.574,0,0,1-1.531-6.332.364.364,0,0,1,.355-.34l1.356-.024c1.11.009,2.175.043,3.286.021q5.163-.1,10.324.01,6.078-.053,12.158-.082a6.825,6.825,0,0,0,1.117-.122A.246.246,0,0,1-1661.722,2569.021Z" transform="translate(1690.623 -2568.741)" fill="url(#linear-gradient)"/>
          <g id="Group_1411" data-name="Group 1411" clip-path="url(#clip-path)">
            <path id="Path_1695" data-name="Path 1695" d="M-1689.547,2570.231s4.12,7.22,9.848,7.22h16.259l-.667,5.171H-1679.7s-7.314.38-9.848-12.391" transform="translate(1689.734 -2569.972)" fill="url(#linear-gradient-5)"/>
          </g>
        </g>
        <g id="Group_1414" data-name="Group 1414" transform="translate(11.733 30.026)">
          <path id="Path_1697" data-name="Path 1697" d="M-1606.758,2668.548a20.233,20.233,0,0,1-3.3.108,15.687,15.687,0,0,1-2.85-.136,11.168,11.168,0,0,1-5.432-2.613,14.75,14.75,0,0,1-4.84-10.743.188.188,0,0,1,.073-.143,1.425,1.425,0,0,1,1.263-.284l.077-.066a.222.222,0,0,1,.171-.053l2.147.186a.084.084,0,0,1,.05.023l.033.033a.157.157,0,0,0,.129.045c1.044-.135,2.1.07,3.028.03q3.393-.149,6.86-.336a.269.269,0,0,1,.283.282,39.822,39.822,0,0,0,.308,7.142,40.8,40.8,0,0,0,2.173,6.2A.239.239,0,0,1-1606.758,2668.548Z" transform="translate(1623.189 -2654.597)" fill="url(#linear-gradient)"/>
          <g id="Group_1413" data-name="Group 1413" clip-path="url(#clip-path-2)">
            <path id="Path_1698" data-name="Path 1698" d="M-1625.859,2652.939s4.231,18.258,17.088,12.26l-1.551-4.487S-1618.995,2662.392-1625.859,2652.939Z" transform="translate(1625.394 -2653.227)" fill="url(#linear-gradient-7)"/>
          </g>
        </g>
        <path id="Path_1700" data-name="Path 1700" d="M-1468.955,2495.943a18.211,18.211,0,0,0-4.846-7.475,22.091,22.091,0,0,0-7.944-4.433,47.129,47.129,0,0,0-5.375-1.3,30.373,30.373,0,0,0-6.736-.717q-11.575.033-23.149.047c-9.83,7.8-14,15.057-14.263,15.532l-.014.024q-.71,1.391-1.292,2.843a10.955,10.955,0,0,1-.31,1.24,7,7,0,0,0-.644,2.109.442.442,0,0,0-.007.129l.005.1c0-.054-.007-.109-.011-.164-.134.543-.264,1.079-.395,1.61a5.086,5.086,0,0,0-.005,1.625c-.017.736-.364,1.347-.381,2.029-.029,1.294-.207,2.6-.2,3.848a34.013,34.013,0,0,0,.188,5.463.117.117,0,0,1,0,.024l.087.762a.552.552,0,0,0,.021.088,2.206,2.206,0,0,1,.047.266,2.31,2.31,0,0,0,.27,1.18.467.467,0,0,1,.04.106,21.674,21.674,0,0,0,2.135,5.358c3.172,5.9,10.646,9.865,17.171,10.235q1.991.12,3.221.123,14.75.04,37-.016c.621,0,1.528.079,2.3.02a.172.172,0,0,0,.139-.249,6.669,6.669,0,0,0-1.009-1.271q-6.491-7.529-13.077-14.974c-1.42-1.606-3.4-3.957-5.2-5.857a1.8,1.8,0,0,0-1.493-.562q-8.106-.008-16.116-.007a.318.318,0,0,0-.229.537q2.878,3.011,5.71,6.089c.586.637,1.246,1.227,1.9,1.829.6.553.43,1.065-.39,1.081h-.013q-2.753.032-5.508.032c-4.512,0-11.906-1.07-13.041-6.609-.911-4.306-.367-9.04.543-13.315a.568.568,0,0,1,.022-.078c1.737-4.776,6.544-6.731,11.244-7.052a136.021,136.021,0,0,1,15.037-.173,17.853,17.853,0,0,1,7.861,1.7c2.62,1.355,3.717,4.171,3.986,7a23.326,23.326,0,0,1-1.219,9.784,5.865,5.865,0,0,1-.484,1,.28.28,0,0,1-.188.315.474.474,0,0,0-.148.125l-1.414,1.708a.47.47,0,0,0,.357.769l4.873.035a.445.445,0,0,0,.08-.007,7.389,7.389,0,0,1,2.117-.042c.019,0,.037,0,.056,0q2.9,0,5.8-.035a1.107,1.107,0,0,0,.884-.479,26.378,26.378,0,0,0,2.411-5.889c.2-.741.3-1.595.444-2.394a13.566,13.566,0,0,0,.226-1.81C-1467.675,2503.55-1467.636,2499.842-1468.955,2495.943Z" transform="translate(1561.695 -2482.022)" fill="url(#linear-gradient-8)"/>
      </g>
      <path id="Path_1701" data-name="Path 1701" d="M-1700.73,2481.648c-9.83,7.8-14,15.057-14.263,15.532q.3-.585.618-1.16a.168.168,0,0,0,.009-.158.512.512,0,0,0-.353-.315c-.122-.012-.27-.069-.374-.071-4.207-.069-8.412-.054-12.621-.068-1.829-.005-3.824.1-5.488.1q-6.206.008-7.979.073a19.534,19.534,0,0,1-6.552-.423.123.123,0,0,0-.03-.009c-4.609-1.011-8.207-5.21-9.068-9.777a17.013,17.013,0,0,1-.083-3.483.33.33,0,0,1,.315-.321,46.6,46.6,0,0,1,5.674.062h.035l16.5.013q1.647.011,3.278.01Q-1715.921,2481.664-1700.73,2481.648Z" transform="translate(1902.962 -2314.512)" fill="url(#linear-gradient-9)"/>
      <path id="Path_1702" data-name="Path 1702" d="M-1755.038,2483.177s4.837,7.556,11.208,7.556h33.557l-2.965,5.255h-27C-1747.521,2495.988-1754.184,2493.747-1755.038,2483.177Z" transform="translate(1901.373 -2315.888)" fill="url(#linear-gradient-10)"/>
    </g>
  </g>
</svg>
