<svg id="Component_37_1" data-name="Component 37 – 1" xmlns="http://www.w3.org/2000/svg" xmlns:xlink="http://www.w3.org/1999/xlink" width="85.648" height="29.83" viewBox="0 0 85.648 29.83">
  <defs>
    <linearGradient id="linear-gradient" y1="0.5" x2="1" y2="0.5" gradientUnits="objectBoundingBox">
      <stop offset="0" stop-color="#1765a6"/>
      <stop offset="1" stop-color="#1f3d7b"/>
    </linearGradient>
    <linearGradient id="linear-gradient-3" y1="0.5" x2="1" y2="0.5" gradientUnits="objectBoundingBox">
      <stop offset="0" stop-color="#1e6eab"/>
      <stop offset="1" stop-color="#131853"/>
    </linearGradient>
    <clipPath id="clip-path">
      <path id="Path_1696" data-name="Path 1696" d="M-1674.86,2568.894a2.838,2.838,0,0,1-.18.671,21.3,21.3,0,0,0-.954,2.955,7.678,7.678,0,0,0-.335,2.079c-.017.333-.059,1.627-.542,1.644q-1.63.054-4.815.028-1.59.073-2.937,0a6.289,6.289,0,0,1-5.154-3.783,6.857,6.857,0,0,1-.835-3.454.2.2,0,0,1,.194-.185l.739-.013c.605,0,1.186.024,1.792.011q2.816-.055,5.631.005,3.315-.029,6.631-.045a3.7,3.7,0,0,0,.609-.066A.134.134,0,0,1-1674.86,2568.894Z" transform="translate(1690.623 -2568.741)" fill="url(#linear-gradient)"/>
    </clipPath>
    <linearGradient id="linear-gradient-5" y1="0.5" x2="1" y2="0.5" gradientUnits="objectBoundingBox">
      <stop offset="0" stop-color="#6d9ccc"/>
      <stop offset="1" stop-color="#1e4382"/>
    </linearGradient>
    <clipPath id="clip-path-2">
      <path id="Path_1699" data-name="Path 1699" d="M-1614.227,2662.206a11.029,11.029,0,0,1-1.8.059,8.546,8.546,0,0,1-1.554-.074,6.092,6.092,0,0,1-2.963-1.426,8.045,8.045,0,0,1-2.64-5.86.1.1,0,0,1,.04-.078.778.778,0,0,1,.689-.155l.042-.036a.121.121,0,0,1,.093-.029l1.171.1a.044.044,0,0,1,.027.012l.018.018a.086.086,0,0,0,.07.024c.569-.074,1.146.038,1.651.016q1.85-.081,3.742-.183a.147.147,0,0,1,.155.154,21.725,21.725,0,0,0,.168,3.9,22.26,22.26,0,0,0,1.185,3.379A.131.131,0,0,1-1614.227,2662.206Z" transform="translate(1623.189 -2654.597)" fill="url(#linear-gradient)"/>
    </clipPath>
    <linearGradient id="linear-gradient-7" y1="0.5" x2="1" y2="0.5" gradientUnits="objectBoundingBox">
      <stop offset="0" stop-color="#6d9ccc"/>
      <stop offset="0.824" stop-color="#1e4483"/>
    </linearGradient>
    <linearGradient id="linear-gradient-8" y1="0.5" x2="1" y2="0.5" gradientUnits="objectBoundingBox">
      <stop offset="0" stop-color="#e94237"/>
      <stop offset="1" stop-color="#b51320"/>
    </linearGradient>
    <linearGradient id="linear-gradient-9" y1="0.5" x2="1" y2="0.5" gradientUnits="objectBoundingBox">
      <stop offset="0" stop-color="#e94337"/>
      <stop offset="1" stop-color="#b82d32"/>
    </linearGradient>
    <linearGradient id="linear-gradient-10" y1="0.5" x2="1" y2="0.5" gradientUnits="objectBoundingBox">
      <stop offset="0" stop-color="#f88b7c"/>
      <stop offset="1" stop-color="#c13133"/>
    </linearGradient>
  </defs>
  <g id="Group_1415" data-name="Group 1415" transform="translate(6.295 0.049)">
    <path id="Path_1693" data-name="Path 1693" d="M-1184.379,2497.883a16.529,16.529,0,0,1-.109,1.891,11.431,11.431,0,0,1-4.765,7.638,13.847,13.847,0,0,1-4.357,2.023,28,28,0,0,1-6.855.564l-10.686.025a.079.079,0,0,0-.071.039l-.038.06q-.178,1.634-.512,3.246a7.02,7.02,0,0,0-.131,1.011,19.327,19.327,0,0,1-.36,2.729c-.018.088.006.241-.092.336a.112.112,0,0,1-.085.034q-.7-.013-1.391-.07a.207.207,0,0,1-.2-.155,2.008,2.008,0,0,0-.425-.708q-2.989-3.346-4.389-5.006c-.306-.362.045-.962.091-1.325a5.352,5.352,0,0,1,.405-1.8.1.1,0,0,1,.082-.044q1.621-.1,3.616-.071a1.237,1.237,0,0,0,.8-.3,12.573,12.573,0,0,0,1.878-5.3.155.155,0,0,1,.154-.137l8.27-.011,7.876-.014a3.587,3.587,0,0,0,2.592-1.24,3.663,3.663,0,0,0,.92-3.632,2.2,2.2,0,0,0-1.159-1.494,4.371,4.371,0,0,0-1.864-.517,10.1,10.1,0,0,0-1.125-.049c-.372.031-.736-.045-1.113-.021s-.588.035-.623.036q-4.082.047-8.16.029-3.05-.01-6.093-.03a.205.205,0,0,1-.208-.179,15.422,15.422,0,0,0-1.236-3.018.209.209,0,0,1,.024-.215q1.159-1.513,2.436-3.006a2.158,2.158,0,0,1,1.61-.874q1.411.023,2.824.018l13.093.006a9.084,9.084,0,0,1,7.729,3.584,8.576,8.576,0,0,1,1.619,4.049Q-1184.358,2496.43-1184.379,2497.883Z" transform="translate(1263.725 -2487.729)" fill="url(#linear-gradient-3)"/>
    <g id="Group_1412" data-name="Group 1412" transform="translate(0 8.229)">
      <path id="Path_1694" data-name="Path 1694" d="M-1674.86,2568.894a2.838,2.838,0,0,1-.18.671,21.3,21.3,0,0,0-.954,2.955,7.678,7.678,0,0,0-.335,2.079c-.017.333-.059,1.627-.542,1.644q-1.63.054-4.815.028-1.59.073-2.937,0a6.289,6.289,0,0,1-5.154-3.783,6.857,6.857,0,0,1-.835-3.454.2.2,0,0,1,.194-.185l.739-.013c.605,0,1.186.024,1.792.011q2.816-.055,5.631.005,3.315-.029,6.631-.045a3.7,3.7,0,0,0,.609-.066A.134.134,0,0,1-1674.86,2568.894Z" transform="translate(1690.623 -2568.741)" fill="url(#linear-gradient)"/>
      <g id="Group_1411" data-name="Group 1411" clip-path="url(#clip-path)">
        <path id="Path_1695" data-name="Path 1695" d="M-1689.547,2570.231s2.247,3.938,5.371,3.938h8.868l-.363,2.821h-8.5s-3.989.207-5.371-6.759" transform="translate(1689.649 -2570.09)" fill="url(#linear-gradient-5)"/>
      </g>
    </g>
    <g id="Group_1414" data-name="Group 1414" transform="translate(6.399 16.377)">
      <path id="Path_1697" data-name="Path 1697" d="M-1614.227,2662.206a11.029,11.029,0,0,1-1.8.059,8.546,8.546,0,0,1-1.554-.074,6.092,6.092,0,0,1-2.963-1.426,8.045,8.045,0,0,1-2.64-5.86.1.1,0,0,1,.04-.078.778.778,0,0,1,.689-.155l.042-.036a.121.121,0,0,1,.093-.029l1.171.1a.044.044,0,0,1,.027.012l.018.018a.086.086,0,0,0,.07.024c.569-.074,1.146.038,1.651.016q1.85-.081,3.742-.183a.147.147,0,0,1,.155.154,21.725,21.725,0,0,0,.168,3.9,22.26,22.26,0,0,0,1.185,3.379A.131.131,0,0,1-1614.227,2662.206Z" transform="translate(1623.189 -2654.597)" fill="url(#linear-gradient)"/>
      <g id="Group_1413" data-name="Group 1413" clip-path="url(#clip-path-2)">
        <path id="Path_1698" data-name="Path 1698" d="M-1625.859,2652.939s2.308,9.958,9.32,6.687l-.846-2.447S-1622.115,2658.095-1625.859,2652.939Z" transform="translate(1625.605 -2653.096)" fill="url(#linear-gradient-7)"/>
      </g>
    </g>
    <path id="Path_1700" data-name="Path 1700" d="M-1498.768,2489.615a9.933,9.933,0,0,0-2.643-4.077,12.047,12.047,0,0,0-4.333-2.418,25.729,25.729,0,0,0-2.931-.707,16.569,16.569,0,0,0-3.674-.391q-6.313.018-12.626.025a32.119,32.119,0,0,0-7.78,8.471l-.008.013q-.387.759-.705,1.551a5.99,5.99,0,0,1-.169.677,3.816,3.816,0,0,0-.351,1.15.243.243,0,0,0,0,.07l0,.054c0-.029,0-.06-.006-.089-.073.3-.144.588-.215.878a2.773,2.773,0,0,0,0,.886c-.01.4-.2.735-.208,1.107-.016.706-.113,1.418-.108,2.1a18.548,18.548,0,0,0,.1,2.98.068.068,0,0,1,0,.013l.047.416a.308.308,0,0,0,.011.048,1.2,1.2,0,0,1,.026.145,1.261,1.261,0,0,0,.147.643.259.259,0,0,1,.022.058,11.817,11.817,0,0,0,1.164,2.922c1.73,3.216,5.807,5.38,9.365,5.583q1.086.066,1.756.067,8.045.022,20.178-.009c.339,0,.833.043,1.254.01a.094.094,0,0,0,.076-.136,3.64,3.64,0,0,0-.55-.693q-3.54-4.106-7.132-8.167c-.774-.876-1.852-2.158-2.834-3.194a.978.978,0,0,0-.814-.307q-4.421,0-8.79,0a.173.173,0,0,0-.125.292q1.57,1.642,3.114,3.321c.32.347.679.669,1.037,1,.329.3.234.581-.213.589h-.007q-1.5.017-3,.017c-2.461,0-6.494-.583-7.112-3.6a17.911,17.911,0,0,1,.3-7.262.314.314,0,0,1,.012-.042c.947-2.6,3.569-3.671,6.132-3.846a74.175,74.175,0,0,1,8.2-.094,9.738,9.738,0,0,1,4.287.929,4.539,4.539,0,0,1,2.174,3.818,12.722,12.722,0,0,1-.665,5.336,3.2,3.2,0,0,1-.264.545.153.153,0,0,1-.1.172.262.262,0,0,0-.081.068l-.771.932a.256.256,0,0,0,.195.419l2.658.019a.241.241,0,0,0,.044,0,4.024,4.024,0,0,1,1.155-.023l.03,0q1.58,0,3.162-.019a.6.6,0,0,0,.482-.261,14.384,14.384,0,0,0,1.315-3.212c.112-.4.161-.87.242-1.306a7.4,7.4,0,0,0,.123-.987A16.807,16.807,0,0,0-1498.768,2489.615Z" transform="translate(1549.351 -2482.022)" fill="url(#linear-gradient-8)"/>
  </g>
  <path id="Path_1701" data-name="Path 1701" d="M-1726.292,2481.586a32.121,32.121,0,0,0-7.779,8.471q.161-.319.337-.633a.091.091,0,0,0,0-.086.279.279,0,0,0-.193-.172c-.066-.006-.147-.038-.2-.039-2.295-.038-4.588-.029-6.884-.037-1,0-2.086.054-2.993.056q-3.385,0-4.352.04a10.651,10.651,0,0,1-3.574-.231l-.016,0a6.786,6.786,0,0,1-4.946-5.332,9.285,9.285,0,0,1-.046-1.9.18.18,0,0,1,.172-.175,25.433,25.433,0,0,1,3.094.034h.019l9,.007q.9.006,1.788.006Q-1734.578,2481.595-1726.292,2481.586Z" transform="translate(1756.962 -2481.512)" fill="url(#linear-gradient-9)"/>
  <path id="Path_1702" data-name="Path 1702" d="M-1755.038,2483.177s2.638,4.121,6.113,4.121h18.3l-1.617,2.866h-14.726C-1750.938,2490.165-1754.572,2488.942-1755.038,2483.177Z" transform="translate(1755.22 -2483.02)" fill="url(#linear-gradient-10)"/>
</svg>
