<svg xmlns="http://www.w3.org/2000/svg" width="14.587" height="14.587" viewBox="0 0 14.587 14.587">
  <path id="Path_1726" data-name="Path 1726" d="M2080.665,8333.613a1.95,1.95,0,0,1-1.477-.588q-1.961-1.982-3.923-3.962c-.084-.085-.122-.084-.2,0q-2.044,2.07-4.094,4.134a1.806,1.806,0,0,1-1.438.595,1.744,1.744,0,0,1-1.6-1.124,1.783,1.783,0,0,1,.3-1.917,2.5,2.5,0,0,1,.187-.2q2.028-2.046,4.059-4.089c.086-.087.092-.128,0-.218q-1.913-1.919-3.818-3.845a1.855,1.855,0,0,1-.219-2.452,1.82,1.82,0,0,1,2.645-.307c.072.062.14.129.208.2q1.888,1.9,3.773,3.809c.083.085.121.083.2,0q1.812-1.837,3.632-3.666a1.812,1.812,0,0,1,2.289-.316,1.851,1.851,0,0,1,.418,2.795c-.054.061-.109.119-.167.177q-1.787,1.8-3.577,3.6c-.1.1-.087.146.005.239q1.952,1.96,3.9,3.926a1.885,1.885,0,0,1,.594,1.352A1.819,1.819,0,0,1,2080.665,8333.613Z" transform="translate(-2067.772 -8319.21)" fill="#ce5252"/>
</svg>
