<svg xmlns="http://www.w3.org/2000/svg" width="21.336" height="28" viewBox="0 0 21.336 28">
  <g id="Group_1330" data-name="Group 1330" transform="translate(-4127.628 -6537.938)">
    <g id="Group_1322" data-name="Group 1322">
      <path id="Path_1644" data-name="Path 1644" d="M4144.366,6539.237c0-.149.009-.3-.005-.446a.858.858,0,0,0-.861-.847c-.111-.008-.224,0-.335,0h-14.334a3.5,3.5,0,0,0-.446.008.819.819,0,0,0-.748.77c-.015.166-.006.334-.006.5v20.964c0,.167-.008.335.005.5a.809.809,0,0,0,.79.782c.129.011.26,0,.39,0h14.334c.111,0,.223,0,.335,0a.846.846,0,0,0,.876-.826c.014-.147,0-.3.005-.446Zm-13.506,2.955a2.538,2.538,0,0,1,.39-.012h4.46c.093,0,.186-.006.278,0a.833.833,0,0,1,.826.868.8.8,0,0,1-.83.8c-.836.016-1.672,0-2.509,0H4131.3c-.13,0-.26,0-.39,0a.851.851,0,0,1-.784-.8.867.867,0,0,1,.733-.854Zm10.087,15.043c-.093,0-.186,0-.279,0h-1.339c-.52,0-1.04.007-1.56,0a.852.852,0,0,1-.946-.808.892.892,0,0,1,.955-.87c1.058.023,2.118,0,3.177.011a.835.835,0,1,1-.009,1.668Zm.881-4.065a.817.817,0,0,1-.686.707,2.887,2.887,0,0,1-.445.013h-9.424a3.155,3.155,0,0,1-.39-.007.856.856,0,0,1-.757-.829.868.868,0,0,1,.707-.821,2.558,2.558,0,0,1,.445-.015h9.48a1.3,1.3,0,0,1,.548.065.82.82,0,0,1,.522.887Zm-11.7-3.46a.868.868,0,0,1,.706-.822,2.408,2.408,0,0,1,.444-.016h9.48a1.316,1.316,0,0,1,.548.064.831.831,0,0,1-.16,1.595,2.882,2.882,0,0,1-.445.013h-9.425a3.458,3.458,0,0,1-.389-.008.856.856,0,0,1-.759-.827Zm11.7-3.231a.819.819,0,0,1-.686.707,3.014,3.014,0,0,1-.445.013h-9.424a3.156,3.156,0,0,1-.39-.008.856.856,0,0,1-.757-.828.868.868,0,0,1,.707-.821,2.544,2.544,0,0,1,.444-.016h9.48a1.324,1.324,0,0,1,.548.064.821.821,0,0,1,.523.888Z" fill="#707070"/>
      <path id="Path_1645" data-name="Path 1645" d="M4148.961,6554.16v10.479a4.289,4.289,0,0,1-.008.5.84.84,0,0,1-.849.792c-.13.009-.26,0-.391,0H4133.44a3.814,3.814,0,0,1-.5-.011.765.765,0,0,1-.694-.691c-.028-.816-.014-1.634-.018-2.451,0-.142.069-.2.206-.193s.26,0,.39,0c3.364,0,6.728,0,10.092,0a2.655,2.655,0,0,0,1.717-.533,2.523,2.523,0,0,0,.977-1.923c.012-.185,0-.371,0-.557v-16.5c0-.612,0-.612.623-.612.576,0,1.152-.007,1.728,0,.684.011.987.307.993.988.01,1.077,0,2.155,0,3.232Z" fill="#707070"/>
    </g>
  </g>
</svg>
