<svg xmlns="http://www.w3.org/2000/svg" width="17" height="17" viewBox="0 0 17 17">
  <path id="Path_70" data-name="Path 70" d="M201.166,8284.655c-.653,0-1.306,0-1.959,0a1.254,1.254,0,0,1-1.289-1.382q0-2.133,0-4.264a1.2,1.2,0,1,1,2.389-.217c.013.2,0,.4.016.606a.871.871,0,0,0,.056.194.6.6,0,0,0,.184-.092,3.659,3.659,0,0,0,.272-.336,7.758,7.758,0,0,1,4.817-3.064,7.954,7.954,0,0,1,9.07,6.493,8.6,8.6,0,0,1-5.355,9.991,7.081,7.081,0,0,1-2.335.383,1.4,1.4,0,0,1-1.368-1.165,1.471,1.471,0,0,1,.754-1.622,1.872,1.872,0,0,1,.738-.166,4.928,4.928,0,0,0,3.793-1.976,5.61,5.61,0,0,0,1.159-4.368,5.459,5.459,0,0,0-2.11-3.711,4.653,4.653,0,0,0-2.765-1.02,4.968,4.968,0,0,0-4.486,2.408,1.241,1.241,0,0,0-.157.33c-.074.248.029.386.271.4a3.429,3.429,0,0,1,.738.07,1.258,1.258,0,0,1,.825,1.423,1.211,1.211,0,0,1-1.1,1.073c-.675.021-1.35.008-2.025.01Z" transform="translate(-197.916 -8275.969)" fill="#e69d1e"/>
</svg>
