<svg xmlns="http://www.w3.org/2000/svg" width="33.565" height="39.914" viewBox="0 0 33.565 39.914">
  <g id="Group_1209" data-name="Group 1209" transform="translate(-1765.453 -486.396)">
    <path id="Path_896" data-name="Path 896" d="M-3655.331,4121.49l-1.193-1.241a2.494,2.494,0,0,0-3.525-.07h0a2.494,2.494,0,0,0-.07,3.528h0l1.928,2a3.925,3.925,0,0,0,2.784,1.231h.061a3.94,3.94,0,0,0,2.765-1.145l6.588-6.588a2.5,2.5,0,0,0,0-3.527h0a2.494,2.494,0,0,0-3.528,0h0Z" transform="translate(5436.171 -3615.647)" fill="#707070"/>
    <path id="Path_897" data-name="Path 897" d="M-3771.039,3989.3a2.485,2.485,0,0,1-1.013-.215c-.651-.285-15.771-7.155-15.771-19.743v-7.9a9.136,9.136,0,0,1,6.255-8.679l9.739-3.246a2.518,2.518,0,0,1,1.58,0l9.737,3.246a9.136,9.136,0,0,1,6.255,8.679v7.9c0,14.332-15.34,19.612-15.992,19.829A2.47,2.47,0,0,1-3771.039,3989.3Zm0-34.791-8.95,2.983a4.16,4.16,0,0,0-2.844,3.946v7.9c0,7.875,9.016,13.226,11.921,14.744,2.922-1.219,11.665-5.626,11.665-14.744v-7.9a4.158,4.158,0,0,0-2.844-3.946Z" transform="translate(5553.275 -3462.992)" fill="#707070"/>
  </g>
</svg>
