<svg id="Group_1322" data-name="Group 1322" xmlns="http://www.w3.org/2000/svg" width="23.017" height="25.581" viewBox="0 0 23.017 25.581">
  <path id="Path_1644" data-name="Path 1644" d="M-3526.872,1068.232a3.2,3.2,0,0,0,4.367,1.174l0,0,.475-.274a9.567,9.567,0,0,0,3.036,1.752v.547a3.2,3.2,0,0,0,3.2,3.2,3.2,3.2,0,0,0,3.2-3.2v-.547a9.571,9.571,0,0,0,3.035-1.755l.477.275a3.2,3.2,0,0,0,4.37-1.172,3.2,3.2,0,0,0-1.172-4.37h0l-.473-.273a9.707,9.707,0,0,0,0-3.507l.473-.273a3.2,3.2,0,0,0,1.172-4.37,3.2,3.2,0,0,0-4.37-1.172l-.474.274a9.566,9.566,0,0,0-3.038-1.749v-.547a3.2,3.2,0,0,0-3.2-3.2,3.2,3.2,0,0,0-3.2,3.2v.547a9.563,9.563,0,0,0-3.036,1.755l-.477-.276a3.2,3.2,0,0,0-4.37,1.172,3.2,3.2,0,0,0,1.173,4.37h0l.473.273a9.719,9.719,0,0,0,0,3.507l-.473.273A3.2,3.2,0,0,0-3526.872,1068.232Zm11.078-10.659a4.264,4.264,0,0,1,4.264,4.264,4.264,4.264,0,0,1-4.264,4.264,4.263,4.263,0,0,1-4.263-4.264A4.263,4.263,0,0,1-3515.794,1057.573Z" transform="translate(3527.302 -1049.046)" fill="#707070"/>
</svg>
