<svg xmlns="http://www.w3.org/2000/svg" width="64.373" height="38.058" viewBox="0 0 64.373 38.058">
  <g id="Group_2535" data-name="Group 2535" transform="translate(0)">
    <path id="Path_1658" data-name="Path 1658" d="M-3620.585,9321.2a5.343,5.343,0,0,0-3.6-5.228,7.567,7.567,0,0,0-2.932-.574c-4.395.017-8.791.008-13.185.007-.251,0-.5.016-.753-.008a1.864,1.864,0,0,1-1.746-1.777c-.02-.249-.009-.5-.009-.752q0-4.849,0-9.7c0-1.012.109-.933-.882-.936h-18.648q-7.158,0-14.315,0a2.246,2.246,0,0,0-1.433.343,2,2,0,0,0-.811,1.714c0,1.13-.02,2.26.01,3.389.012.464-.15.6-.595.576-.564-.033-1.13-.019-1.695,0a1.821,1.821,0,0,0-1.613.978,1.856,1.856,0,0,0,1.609,2.771c1.221.053,2.448.013,3.672.014,2.009,0,4.019-.021,6.027.018a1.594,1.594,0,0,1,1.719,1.62,1.89,1.89,0,0,1-1.648,1.969,6.986,6.986,0,0,1-.846.02h-10.266a3.151,3.151,0,0,0-1.115.128,1.915,1.915,0,0,0-1.275,1.98,1.891,1.891,0,0,0,1.682,1.646,8.433,8.433,0,0,0,.846.016h15.728a3.379,3.379,0,0,1,1.208.13,1.856,1.856,0,0,1,1.243,1.99,1.83,1.83,0,0,1-1.677,1.633c-.281.027-.565.015-.847.015h-15.634a6.911,6.911,0,0,0-.753.012,1.925,1.925,0,0,0-1.489.87,1.839,1.839,0,0,0,1.5,2.871c1.159.055,2.322.01,3.484.018.712,0,.722.012.725.722.008,1.6-.016,3.2.009,4.8a1.872,1.872,0,0,0,2,2.008c.973.021,1.947.036,2.919-.008.569-.025.786.158.963.725a7.159,7.159,0,0,0,6.844,5.077,7.207,7.207,0,0,0,6.9-5.006c.261-.779.261-.783,1.089-.783q8.665,0,17.33,0c.894,0,.844-.15,1.161.816a7.189,7.189,0,0,0,9.323,4.532,6.986,6.986,0,0,0,4.421-4.679c.152-.493.335-.729.9-.688.781.059,1.569.023,2.354.013a1.892,1.892,0,0,0,2.117-2.081C-3620.565,9328.67-3620.548,9324.935-3620.585,9321.2Zm-45.463,15.307a3.443,3.443,0,0,1-3.532-3.387,3.478,3.478,0,0,1,3.5-3.53,3.465,3.465,0,0,1,3.385,3.448A3.431,3.431,0,0,1-3666.048,9336.508Zm33.31,0a3.482,3.482,0,0,1-3.56-3.473,3.51,3.51,0,0,1,3.509-3.443,3.48,3.48,0,0,1,3.4,3.44A3.451,3.451,0,0,1-3632.738,9336.508Z" transform="translate(3684.935 -9302.234)" fill="#959ca7"/>
    <path id="Path_1659" data-name="Path 1659" d="M-3319.975,9305.315a12.44,12.44,0,0,1,6.781,3.831,28.94,28.94,0,0,1,3.454,4.978c-.076.259-.254.207-.4.207q-4.613,0-9.226,0c-.315,0-.622.055-.619-.445C-3319.968,9311.068-3319.975,9308.248-3319.975,9305.315Z" transform="translate(3365.867 -9304.928)" fill="#959ca7"/>
  </g>
</svg>
