<svg xmlns="http://www.w3.org/2000/svg" width="33.839" height="20.005" viewBox="0 0 33.839 20.005">
  <g id="Group_2534" data-name="Group 2534" transform="translate(-585.492 -6537.939)">
    <path id="Path_1656" data-name="Path 1656" d="M619.319,6547.909a2.809,2.809,0,0,0-1.894-2.748,3.983,3.983,0,0,0-1.541-.3c-2.311.009-4.621,0-6.931,0-.132,0-.265.008-.4,0a.98.98,0,0,1-.918-.935c-.011-.131-.005-.264-.005-.4q0-2.549,0-5.1c0-.532.057-.49-.464-.492H589.84a1.176,1.176,0,0,0-.753.18,1.05,1.05,0,0,0-.427.9c0,.594-.01,1.188.006,1.781.006.244-.079.316-.313.3-.3-.018-.594-.01-.89,0a.959.959,0,0,0-.848.513.977.977,0,0,0,.846,1.458c.642.028,1.287.006,1.931.006,1.056,0,2.113-.01,3.168.01a.838.838,0,0,1,.9.852.994.994,0,0,1-.867,1.035,3.65,3.65,0,0,1-.444.01h-5.4a1.665,1.665,0,0,0-.586.067,1.007,1.007,0,0,0-.671,1.041.994.994,0,0,0,.885.865,4.361,4.361,0,0,0,.445.008H595.1a1.774,1.774,0,0,1,.635.068.975.975,0,0,1,.653,1.046.96.96,0,0,1-.881.858c-.148.014-.3.008-.446.008H586.84a3.69,3.69,0,0,0-.4.005,1.015,1.015,0,0,0-.783.458.967.967,0,0,0,.787,1.509c.609.029,1.221.005,1.831.01.374,0,.38.006.382.379,0,.841-.009,1.683.005,2.524a.984.984,0,0,0,1.051,1.056c.512.011,1.024.019,1.535,0,.3-.013.413.083.506.381a3.789,3.789,0,0,0,7.228.037c.137-.41.137-.412.572-.412h9.11c.47,0,.444-.079.61.429a3.779,3.779,0,0,0,4.9,2.383,3.669,3.669,0,0,0,2.324-2.459c.08-.259.176-.383.472-.362.41.031.824.012,1.237.006a1,1,0,0,0,1.112-1.094C619.33,6551.835,619.339,6549.872,619.319,6547.909Zm-23.9,8.046a1.811,1.811,0,0,1-1.857-1.763v-.018a1.828,1.828,0,0,1,1.8-1.856h.039a1.822,1.822,0,0,1,1.78,1.813,1.8,1.8,0,0,1-1.761,1.823Zm17.511,0a1.819,1.819,0,1,1,1.761-1.828,1.831,1.831,0,0,1-1.761,1.828Z" fill="#707070"/>
    <path id="Path_1657" data-name="Path 1657" d="M619.255,6538.224a6.539,6.539,0,0,1,3.565,2.014,15.216,15.216,0,0,1,1.816,2.616c-.04.137-.134.108-.209.109h-4.85c-.166,0-.327.028-.325-.234C619.258,6541.248,619.255,6539.765,619.255,6538.224Z" transform="translate(-9.638 -0.082)" fill="#707070"/>
  </g>
</svg>
