<svg xmlns="http://www.w3.org/2000/svg" width="18.179" height="27.999" viewBox="0 0 18.179 27.999">
  <g id="Group_1329" data-name="Group 1329" transform="translate(1143.382 -6537.939)">
    <path id="Path_1669" data-name="Path 1669" d="M-1132.177,6545.4l2.209.313-.68.668-.862.839c-.631.615-.629.615-.47,1.5.116.642.225,1.286.334,1.915-.182.11-.276-.011-.377-.064-.648-.333-1.3-.661-1.933-1.016a.585.585,0,0,0-.651,0c-.6.339-1.221.65-1.835.968a1.159,1.159,0,0,1-.494.195c.129-.758.235-1.511.393-2.252a1.02,1.02,0,0,0-.34-1.1c-.551-.5-1.03-1.078-1.552-1.635a3.892,3.892,0,0,1,1.031-.187,13.492,13.492,0,0,1,1.46-.211.526.526,0,0,0,.482-.359c.3-.626.61-1.242.918-1.861.072-.144.152-.285.269-.5l.983,1.986C-1132.949,6545.288-1132.949,6545.288-1132.177,6545.4Z"/>
    <path id="Path_1670" data-name="Path 1670" d="M-1134.233,6537.939a9.092,9.092,0,0,0-9.149,9.014,9.121,9.121,0,0,0,9.073,9.161,9.086,9.086,0,0,0,9.106-9.057,9.056,9.056,0,0,0-8.993-9.118Zm5.476,8.88q-.671.681-1.368,1.336a.532.532,0,0,0-.183.571c.131.6.207,1.22.315,1.828a1.537,1.537,0,0,1-.609,1.592,1.534,1.534,0,0,1-1.7.131c-.538-.264-1.074-.538-1.589-.844a.7.7,0,0,0-.8.009c-.537.305-1.083.6-1.642.861a1.579,1.579,0,0,1-2.169-.856,2.024,2.024,0,0,1-.1-.761c.089-.512.177-1.143.314-1.764a.82.82,0,0,0-.292-.907c-.4-.34-.761-.732-1.143-1.1a1.569,1.569,0,0,1-.495-1.729,1.573,1.573,0,0,1,1.422-1.1c.578-.071,1.152-.174,1.73-.247a.6.6,0,0,0,.527-.392c.221-.5.484-.978.712-1.473a1.625,1.625,0,0,1,1.554-1.088,1.6,1.6,0,0,1,1.508,1.068c.234.512.508,1.006.743,1.518a.554.554,0,0,0,.485.356c.614.078,1.225.18,1.837.269a1.533,1.533,0,0,1,1.328,1.065,1.514,1.514,0,0,1-.389,1.656Z" fill="#707070"/>
    <path id="Path_1671" data-name="Path 1671" d="M-1126.407,6564.692c-.85-.307-1.621-.568-2.377-.868a.613.613,0,0,0-.8.171c-.524.582-1.093,1.123-1.648,1.678-.072.072-.125.189-.3.159-.656-2.681-1.316-5.373-1.985-8.107a10.941,10.941,0,0,0,5-1.65Z" fill="#707070"/>
    <path id="Path_1672" data-name="Path 1672" d="M-1142.155,6564.681l2.1-8.59a11.188,11.188,0,0,0,5,1.63c-.671,2.736-1.332,5.432-2.014,8.217l-.728-.729c-.424-.427-.858-.844-1.266-1.285a.477.477,0,0,0-.614-.131c-.659.26-1.332.488-2,.727C-1141.8,6564.567-1141.936,6564.608-1142.155,6564.681Z" fill="#707070"/>
    <path id="Path_1673" data-name="Path 1673" d="M-1129.968,6545.711l-.68.668-.862.839c-.631.615-.629.615-.47,1.5.117.642.225,1.286.334,1.915-.182.11-.275-.011-.377-.064-.648-.333-1.3-.661-1.933-1.016a.585.585,0,0,0-.651,0c-.6.339-1.221.65-1.835.968a1.159,1.159,0,0,1-.494.195c.129-.758.236-1.511.393-2.252a1.02,1.02,0,0,0-.34-1.1c-.551-.5-1.03-1.078-1.552-1.635a3.892,3.892,0,0,1,1.031-.187,13.492,13.492,0,0,1,1.46-.211.526.526,0,0,0,.482-.359c.3-.626.61-1.242.918-1.861.072-.144.152-.285.269-.5l.983,1.986c.343.694.343.694,1.115.8Z" fill="#fff"/>
    <path id="Path_1674" data-name="Path 1674" d="M-1129.968,6545.711l-.68.668-.862.839c-.631.615-.629.615-.47,1.5.117.642.225,1.286.334,1.915-.182.11-.275-.011-.377-.064-.648-.333-1.3-.661-1.933-1.016a.585.585,0,0,0-.651,0c-.6.339-1.221.65-1.835.968a1.159,1.159,0,0,1-.494.195c.129-.758.236-1.511.393-2.252a1.02,1.02,0,0,0-.34-1.1c-.551-.5-1.03-1.078-1.552-1.635a3.892,3.892,0,0,1,1.031-.187,13.492,13.492,0,0,1,1.46-.211.526.526,0,0,0,.482-.359c.3-.626.61-1.242.918-1.861.072-.144.152-.285.269-.5l.983,1.986c.343.694.343.694,1.115.8Z" fill="#707070"/>
  </g>
</svg>
