<svg xmlns="http://www.w3.org/2000/svg" width="29.013" height="26.274" viewBox="0 0 29.013 26.274">
  <g id="Group_43" data-name="Group 43" transform="translate(-4396.21 -910.05)">
    <path id="Path_30" data-name="Path 30" d="M4424.5,1177.372c-.186,0-.386,0-.668,0h-.941v-7.347c0-.02,0-.041,0-.061v0a1.173,1.173,0,0,0-.016-.265.656.656,0,0,0-.66-.559h-.042a.649.649,0,0,0-.634.594,1.475,1.475,0,0,0-.008.244c0,.023,0,.046,0,.069v7.321l-.827,0h-.035c-.615,0-1.25,0-1.877.008v-2.746c0-3.469,0-7.055,0-10.582,0-.022,0-.038,0-.05l.048,0a2.6,2.6,0,0,1,.261.02,9.381,9.381,0,0,0,1.053.059,10.164,10.164,0,0,0,1.152-.067,1.669,1.669,0,0,1,.179-.013l.05,0a.61.61,0,0,1,0,.072c-.01,1.128-.008,2.269-.006,3.373v.607a.677.677,0,0,0,.674.762h.02a.679.679,0,0,0,.664-.755v-.343c0-1.307,0-2.584,0-3.832a1.193,1.193,0,0,0-1.193-1.235c-.38-.007-.79-.01-1.287-.01-.371,0-.737,0-1.144,0l-.635,0a1.159,1.159,0,0,0-.9.433,1.414,1.414,0,0,0-.3.978q0,5.3,0,10.6v2.695h-.833v-2.882q0-3.71,0-7.419a1.269,1.269,0,0,0-1.381-1.377H4412.6a1.466,1.466,0,0,0-1.464,1.464v10.216h-.832v-4.4q0-.426,0-.852v-.012c0-.675,0-1.372,0-2.059a1.231,1.231,0,0,0-1.3-1.307l-1.49,0c-.522,0-.982,0-1.407,0a1.2,1.2,0,0,0-1.248,1.151c-.022,1.135-.015,2.3-.009,3.324l0,.411a.676.676,0,0,0,.677.685h.016a.68.68,0,0,0,.659-.69c0-.056,0-.11,0-.161v-.075c0-.188,0-.375,0-.563v-.3c0-.765,0-1.557-.005-2.336a.614.614,0,0,1,0-.086.431.431,0,0,1,.056,0h.018c.342.006.7.009,1.125.009h.731l.662,0h.151c0,.037,0,.078,0,.115q0,3.561,0,7.123v.036H4406.2c0-.163,0-.48,0-.616,0-.444,0-.9,0-1.358,0-.473-.26-.767-.674-.767h-.01a.692.692,0,0,0-.674.775c0,.289,0,.583,0,.867v.01q0,.189,0,.377v.712h-.833v-1.322q0-1.439,0-2.878a1.258,1.258,0,0,0-1.392-1.389l-1.45,0c-.534,0-.928,0-1.279,0a1.243,1.243,0,0,0-1.338,1.354q0,1.1,0,2.2v2.049h-.743c-.275,0-.5,0-.7-.006h-.04a1.053,1.053,0,0,0-.535.121.65.65,0,0,0,.026,1.137,1.263,1.263,0,0,0,.573.108h0c7.035,0,13.918,0,20.575,0h6.689l.1,0a.679.679,0,1,0,0-1.354Zm-21.848-.315v.313c-.667,0-1.344-.006-1.929-.007l-.811,0v-2.891c0-.13,0-.259,0-.388v-.028c0-.3,0-.615,0-.922v-.011h.006c.021,0,.048,0,.083,0,.424.039.855.058,1.28.058s.874-.02,1.312-.06l.063,0h0v.02C4402.646,1174.445,4402.646,1175.791,4402.648,1177.057Zm9.847-9.885c0-.047,0-.1,0-.145h1.545c.428,0,.783,0,1.149,0h.008l.041,0c0,.01,0,.023,0,.039,0,2.546,0,5.135,0,7.639v2.645h-2.74Z" transform="translate(0 -242.407)" fill="#707070"/>
    <path id="Path_31" data-name="Path 31" d="M4504.591,917.064a.536.536,0,0,1-.378.156.813.813,0,0,1-.462-.171c-.312-.221-.633-.443-.945-.658l-.188-.13-.185.222c-.236.285-.481.578-.731.858a21.084,21.084,0,0,1-4.46,3.786,23.675,23.675,0,0,1-5.3,2.469,27.922,27.922,0,0,1-6.648,1.282c-.039,0-.08,0-.121,0a1.2,1.2,0,0,1-.35-2.359,38.35,38.35,0,0,0,5.707-2.278,26.819,26.819,0,0,0,5.122-3.312.9.9,0,0,1,.525-.236.478.478,0,0,1,.061,0,.85.85,0,0,1,.564.379.622.622,0,0,1-.227.849c-.163.126-.325.253-.488.38l-.016.013c-.434.339-.882.69-1.343,1.011a32.962,32.962,0,0,1-8.175,4.051,25.637,25.637,0,0,0,5.073-1.118,20.406,20.406,0,0,0,10.153-7.167.875.875,0,0,1,.656-.455,1.081,1.081,0,0,1,.594.25l.348.24-.358-3.554-3.461.9.286.2c.619.431.675.707.276,1.346a15.006,15.006,0,0,1-2.143,2.625.782.782,0,0,1-.552.256.647.647,0,0,1-.454-.19.683.683,0,0,1,.033-1.019c.532-.623,1.069-1.265,1.619-1.922l.152-.181-.181-.127c-.29-.2-.619-.433-.945-.655a.711.711,0,0,1-.359-.714.7.7,0,0,1,.584-.586c1.269-.327,2.559-.663,3.806-.989l.178-.046,1.292-.337.126-.033a1.443,1.443,0,0,1,.36-.054c.591,0,.649.576.669.766l.038.369c.174,1.711.355,3.481.516,5.223A.887.887,0,0,1,4504.591,917.064Z" transform="translate(-84.192 0)" fill="#707070"/>
  </g>
</svg>
