<svg xmlns="http://www.w3.org/2000/svg" width="43.747" height="43.75" viewBox="0 0 43.747 43.75">
  <g id="Group_1426" data-name="Group 1426" transform="translate(-3504.714 -3194.857)">
    <path id="Path_1671" data-name="Path 1671" d="M3566,3436.4c0-.358-.064-.43-.422-.313a4.9,4.9,0,0,1-1.557.2c-1.708-.007-3.416-.011-5.124,0a5.476,5.476,0,0,1-3.631-1.234c-.168-.139-.266-.122-.425.008a5.548,5.548,0,0,1-3.636,1.226q-5.294-.013-10.589,0a5.42,5.42,0,0,1-3.551-1.218.3.3,0,0,0-.461,0,5.391,5.391,0,0,1-3.51,1.214q-2.647,0-5.294,0a4.924,4.924,0,0,1-1.515-.208c-.338-.107-.4-.039-.4.3.014,2.52.008,5.039.008,7.557q0,6.106,0,12.212a1.84,1.84,0,0,0,1.988,2c1.01,0,2.021-.021,3.031.011.385.013.456-.1.455-.464q-.019-7.856-.009-15.712a1.838,1.838,0,0,1,2.02-2.046q4.377,0,8.753,0a2.261,2.261,0,0,1,.676.067,1.866,1.866,0,0,1,1.318,1.962q0,7.877-.008,15.755c0,.358.086.438.438.437q9.672-.018,19.342-.008a1.871,1.871,0,0,0,2.093-2.111q0-4.868,0-9.735C3565.994,3443.006,3565.989,3439.7,3566,3436.4Zm-5.475,10.692a1.817,1.817,0,0,1-1.953,1.941c-1.481.006-2.96,0-4.441,0s-2.933,0-4.4,0a1.821,1.821,0,0,1-1.973-1.964q-.01-2.584,0-5.167a1.82,1.82,0,0,1,1.973-1.962q4.42-.006,8.839,0a1.815,1.815,0,0,1,1.952,1.942Q3560.538,3444.488,3560.525,3447.094Z" transform="translate(-19.362 -219.558)" fill="#959ca7"/>
    <path id="Path_1672" data-name="Path 1672" d="M3535.673,3367.5a3.631,3.631,0,0,1-3.641,3.273q-5.443.043-10.886,0a3.648,3.648,0,0,1-3.664-3.252c-.063.25-.1.46-.169.659a3.393,3.393,0,0,1-3.051,2.537,43.253,43.253,0,0,1-6.4,0,3.53,3.53,0,0,1-3.136-3.347c-.029-.6,0-1.2-.015-1.792-.005-.205.056-.288.262-.26a1.516,1.516,0,0,0,.213,0q21.388,0,42.776-.008c.367,0,.523.059.49.47-.048.608.032,1.231-.054,1.832a3.482,3.482,0,0,1-3.348,3.132c-1.988.09-3.986.087-5.974,0a3.494,3.494,0,0,1-3.3-2.843C3535.755,3367.791,3535.723,3367.683,3535.673,3367.5Z" transform="translate(0 -155.865)" fill="#959ca7"/>
    <path id="Path_1673" data-name="Path 1673" d="M3687.186,3207.615c-2.149,0-4.3-.007-6.447.007-.329,0-.44-.053-.367-.412q1.21-5.97,2.391-11.947c.057-.288.151-.406.48-.4q3.949.027,7.9,0c.34,0,.419.134.475.411q1.187,5.976,2.39,11.948c.063.31.019.41-.331.407C3691.512,3207.606,3689.349,3207.615,3687.186,3207.615Z" transform="translate(-160.607)" fill="#959ca7"/>
    <path id="Path_1674" data-name="Path 1674" d="M3524.048,3194.994c-.427,2.149-.849,4.28-1.274,6.411-.391,1.964-.792,3.926-1.172,5.892-.061.313-.156.436-.507.434q-5-.024-9.991,0c-.33,0-.406-.049-.307-.391,1.049-3.625,2.08-7.256,3.118-10.885a1.834,1.834,0,0,1,1.923-1.478q3.949-.005,7.9,0C3523.835,3194.975,3523.932,3194.987,3524.048,3194.994Z" transform="translate(-5.526 -0.106)" fill="#959ca7"/>
    <path id="Path_1675" data-name="Path 1675" d="M3862.731,3207.659c-1.679,0-3.359-.007-5.038.008-.271,0-.362-.092-.411-.339q-1.2-6.039-2.414-12.075c-.056-.28,0-.348.29-.347,2.633.011,5.266,0,7.9.008a1.812,1.812,0,0,1,1.868,1.384c1.061,3.681,2.106,7.367,3.166,11.048.086.3-.03.319-.278.318C3866.119,3207.655,3864.425,3207.659,3862.731,3207.659Z" transform="translate(-320.173 -0.044)" fill="#959ca7"/>
  </g>
</svg>
