<svg xmlns="http://www.w3.org/2000/svg" width="42.981" height="42.981" viewBox="0 0 42.981 42.981">
  <path id="Path_1963" data-name="Path 1963" d="M8079.338-2178.258a21.515,21.515,0,0,0-21.491,21.491,21.515,21.515,0,0,0,21.491,21.491,21.515,21.515,0,0,0,21.49-21.491A21.515,21.515,0,0,0,8079.338-2178.258Zm0,39.4a17.929,17.929,0,0,1-17.909-17.909,17.93,17.93,0,0,1,17.909-17.909,17.93,17.93,0,0,1,17.909,17.909A17.93,17.93,0,0,1,8079.338-2138.858Zm2.687-27.759a2.688,2.688,0,0,1-2.687,2.686,2.687,2.687,0,0,1-2.687-2.686,2.687,2.687,0,0,1,2.687-2.686A2.688,2.688,0,0,1,8082.024-2166.617Zm0,19.7a2.688,2.688,0,0,1-2.687,2.687,2.687,2.687,0,0,1-2.687-2.687,2.687,2.687,0,0,1,2.687-2.686A2.688,2.688,0,0,1,8082.024-2146.917Zm0-9.85a2.688,2.688,0,0,1-2.687,2.686,2.687,2.687,0,0,1-2.687-2.686,2.687,2.687,0,0,1,2.687-2.686A2.688,2.688,0,0,1,8082.024-2156.767Z" transform="translate(-8057.847 2178.258)" fill="#959ca7"/>
</svg>
