<svg xmlns="http://www.w3.org/2000/svg" width="44.527" height="26.024" viewBox="0 0 44.527 26.024">
  <g id="Group_2534" data-name="Group 2534" transform="translate(16386.833 6351.75)">
    <path id="Path_3283" data-name="Path 3283" d="M7739.984,4988.581a6.492,6.492,0,1,1-6.492-6.492,6.492,6.492,0,0,1,6.492,6.492Z" transform="translate(-24098.057 -11333.84)" fill="#707070"/>
    <path id="Path_3284" data-name="Path 3284" d="M7633.431,5018.905a5.566,5.566,0,1,1-5.566-5.566,5.566,5.566,0,0,1,5.566,5.566Z" transform="translate(-24005.797 -11361.377)" fill="#707070"/>
    <path id="Path_3285" data-name="Path 3285" d="M7858.421,5018.905a5.565,5.565,0,1,1-5.566-5.566,5.566,5.566,0,0,1,5.566,5.566Z" transform="translate(-24204.055 -11361.377)" fill="#707070"/>
    <path id="Path_3286" data-name="Path 3286" d="M7688.043,5118.317a0,0,0,0,1,0,0v0a11.078,11.078,0,0,1,11.042-11.114h.218a11.079,11.079,0,0,1,11,11.153h0a0,0,0,0,1,0,0l-22.255-.039Z" transform="translate(-24063.725 -11444.082)" fill="#707070"/>
    <path id="Path_3287" data-name="Path 3287" d="M7607.208,5116.207c.04.021.045.047.014.08a13.123,13.123,0,0,0-3.714,9.017.059.059,0,0,1-.066.065H7594.4a.109.109,0,0,1-.108-.1,8.922,8.922,0,0,1,12.913-9.065Z" transform="translate(-23981.072 -11451.131)" fill="#707070"/>
    <path id="Path_3288" data-name="Path 3288" d="M7859.669,5116.276a8.91,8.91,0,0,1,12.909,9.078.082.082,0,0,1-.083.075h-9.06a.061.061,0,0,1-.07-.067,13.055,13.055,0,0,0-3.709-9.011c-.03-.031-.025-.056.013-.075Z" transform="translate(-24214.936 -11451.191)" fill="#707070"/>
  </g>
</svg>
