<svg xmlns="http://www.w3.org/2000/svg" width="15.032" height="15.031" viewBox="0 0 15.032 15.031">
  <g id="Group_251" data-name="Group 251" transform="translate(766.04 -4164.856)">
    <path id="Path_136" data-name="Path 136" d="M-760.006,4614.777h-5a.939.939,0,0,1-.939-.938h0a.939.939,0,0,1,.939-.938h5a.939.939,0,0,1,.939.938h0a.939.939,0,0,1-.939.938Z" transform="translate(-0.09 -434.89)" fill="#959ca7"/>
    <path id="Path_137" data-name="Path 137" d="M-761.347,4508.229H-765.1a.939.939,0,0,1-.939-.939h0a.938.938,0,0,1,.938-.938h3.755a.938.938,0,0,1,.938.938h0a.938.938,0,0,1-.938.939Z" transform="translate(0 -331.47)" fill="#959ca7"/>
    <path id="Path_138" data-name="Path 138" d="M-762.547,4401.682h-2.5a.939.939,0,0,1-.939-.939h0a.939.939,0,0,1,.939-.939h2.5a.939.939,0,0,1,.938.939h0a.938.938,0,0,1-.937.939Z" transform="translate(-0.051 -228.05)" fill="#959ca7"/>
    <path id="Path_139" data-name="Path 139" d="M-736.361,4179.714a.938.938,0,0,1-.939-.938h0a.939.939,0,0,1,.717-.913,5.644,5.644,0,0,0,4.139-6.826h0a5.645,5.645,0,0,0-6.827-4.138,5.645,5.645,0,0,0-3.758,3.067.938.938,0,0,1-1.256.429h0a.939.939,0,0,1-.44-1.232,7.522,7.522,0,0,1,10.016-3.582h0a7.522,7.522,0,0,1,3.583,10.015,7.52,7.52,0,0,1-5.014,4.089.9.9,0,0,1-.222.028Z" transform="translate(-20.608)" fill="#959ca7"/>
    <path id="Path_140" data-name="Path 140" d="M-530.711,4293.254a.939.939,0,0,0-.939.938h0v2.686a1.249,1.249,0,0,0,.367.885l1.122,1.122a.939.939,0,0,0,1.327-.023.938.938,0,0,0,0-1.3l-.939-.939v-2.427a.939.939,0,0,0-.938-.939Z" transform="translate(-227.509 -124.628)" fill="#959ca7"/>
  </g>
</svg>
