<svg xmlns="http://www.w3.org/2000/svg" width="151.439" height="21" viewBox="0 0 151.439 21">
  <g id="Group_1757" data-name="Group 1757" transform="translate(-1434.561 -326)">
    <text id="Update_Statue" data-name="Update Statue" transform="translate(1462 342)" fill="#707070" font-size="20" font-family="Bahnschrift"><tspan x="0" y="0">Update Statue</tspan></text>
    <g id="Group_1362" data-name="Group 1362" transform="translate(1434.795 329)">
      <g id="Group_1362-2" data-name="Group 1362" transform="translate(0)">
        <g id="Group_2184" data-name="Group 2184" transform="translate(-4240.742 -4794.601)">
          <g id="Group_2183" data-name="Group 2183" transform="translate(4240.508 4794.3)">
            <path id="Path_2041" data-name="Path 2041" d="M4242.342,4800.9a5.56,5.56,0,0,1,9.114-3.415l-.716.716a.615.615,0,0,0,.435,1.05H4254a.615.615,0,0,0,.616-.615v-2.821a.616.616,0,0,0-1.05-.435l-.8.8a7.4,7.4,0,0,0-12.241,4.451.931.931,0,0,0,.77,1.068.87.87,0,0,0,.138.012A.931.931,0,0,0,4242.342,4800.9Z" transform="translate(-4240.508 -4794.3)" fill="#707070"/>
            <path id="Path_2042" data-name="Path 2042" d="M4273.4,5050.288a.932.932,0,0,0-.914.813,5.56,5.56,0,0,1-9.114,3.415l.716-.716a.615.615,0,0,0-.435-1.05h-2.821a.615.615,0,0,0-.616.615v2.821a.615.615,0,0,0,1.05.435l.8-.8a7.4,7.4,0,0,0,12.241-4.451.932.932,0,0,0-.769-1.069A.956.956,0,0,0,4273.4,5050.288Z" transform="translate(-4259.642 -5042.881)" fill="#707070"/>
          </g>
        </g>
      </g>
    </g>
  </g>
</svg>
