<svg xmlns="http://www.w3.org/2000/svg" width="15.713" height="20.95" viewBox="0 0 15.713 20.95">
  <g id="Group_365" data-name="Group 365" transform="translate(702.04 -3229.607)">
    <g id="_01_align_center" data-name=" 01 align center" transform="translate(-702.04 3229.607)">
      <path id="Path_100" data-name="Path 100" d="M-686.327,3537h-1.746v-4.4a2.584,2.584,0,0,0-2.581-2.581h-7.059a2.583,2.583,0,0,0-2.581,2.581v4.4h-1.746v-4.4a4.332,4.332,0,0,1,4.327-4.327h7.059a4.332,4.332,0,0,1,4.327,4.327Z" transform="translate(702.04 -3516.053)" fill="#959ca7"/>
      <path id="Path_101" data-name="Path 101" d="M-632.8,3240.082a5.238,5.238,0,0,1-5.238-5.238,5.238,5.238,0,0,1,5.238-5.238,5.238,5.238,0,0,1,5.238,5.238A5.243,5.243,0,0,1-632.8,3240.082Zm0-8.729a3.492,3.492,0,0,0-3.492,3.492,3.492,3.492,0,0,0,3.492,3.492,3.492,3.492,0,0,0,3.492-3.492A3.492,3.492,0,0,0-632.8,3231.353Z" transform="translate(640.659 -3229.607)" fill="#959ca7"/>
    </g>
  </g>
</svg>
