<svg xmlns="http://www.w3.org/2000/svg" width="25.625" height="34.167" viewBox="0 0 25.625 34.167">
  <g id="Group_1204" data-name="Group 1204" transform="translate(702.04 -3229.607)">
    <g id="_01_align_center" data-name=" 01 align center" transform="translate(-702.04 3229.607)">
      <path id="Path_992" data-name="Path 992" d="M-676.415,3542.51h-2.847v-7.179a4.214,4.214,0,0,0-4.21-4.21h-11.511a4.214,4.214,0,0,0-4.21,4.21v7.179h-2.847v-7.179a7.065,7.065,0,0,1,7.057-7.057h11.511a7.066,7.066,0,0,1,7.057,7.057Z" transform="translate(702.04 -3508.343)" fill="#707070"/>
      <path id="Path_993" data-name="Path 993" d="M-629.5,3246.69a8.542,8.542,0,0,1-8.542-8.542,8.542,8.542,0,0,1,8.542-8.542,8.542,8.542,0,0,1,8.542,8.542A8.55,8.55,0,0,1-629.5,3246.69Zm0-14.236a5.7,5.7,0,0,0-5.695,5.695,5.694,5.694,0,0,0,5.695,5.694,5.694,5.694,0,0,0,5.694-5.694A5.7,5.7,0,0,0-629.5,3232.454Z" transform="translate(642.311 -3229.607)" fill="#707070"/>
    </g>
  </g>
</svg>
