<svg id="Group_1008" data-name="Group 1008" xmlns="http://www.w3.org/2000/svg" width="37" height="32.678" viewBox="0 0 37 32.678">
  <path id="Path_911" data-name="Path 911" d="M-1798.489,4130.234a4.921,4.921,0,0,1,3.051,1.1,4.827,4.827,0,0,1,1.871,3.837q.029,8.891,0,17.783a4.931,4.931,0,0,1-4.818,4.923q-13.676.024-27.351,0a4.93,4.93,0,0,1-4.8-4.9q-.028-10.207,0-20.413a7.409,7.409,0,0,1,7.2-7.332q9.977-.048,19.955,0a4.688,4.688,0,0,1,4.414,2.565,7.171,7.171,0,0,1,.468,1.795A3.163,3.163,0,0,1-1798.489,4130.234Zm2.466,17.6c-.51,0-.96.016-1.408,0a3.743,3.743,0,0,1-3.519-3.633,3.74,3.74,0,0,1,3.653-3.894c.418-.008.837,0,1.241,0a.876.876,0,0,0,.03-.129q0-2.317,0-4.632a2.514,2.514,0,0,0-2.725-2.777h-21.612c-.141,0-.283.006-.424-.006a1.259,1.259,0,0,1-1.121-1.114,1.23,1.23,0,0,1,.861-1.324,2.157,2.157,0,0,1,.607-.066q9.5,0,18.993,0h.447a1.805,1.805,0,0,0-1.036-2.157,3.453,3.453,0,0,0-1.4-.34q-9.881-.033-19.763-.01a4.95,4.95,0,0,0-4.872,4.99q-.016,10.031,0,20.062a2.474,2.474,0,0,0,2.53,2.58q13.5.005,27.006,0a2.475,2.475,0,0,0,2.513-2.557c.009-1.557,0-3.114,0-4.671Zm-.015-5.018c-.452,0-.861-.014-1.27,0a1.246,1.246,0,0,0-1.176,1.136,1.221,1.221,0,0,0,.993,1.336,11.153,11.153,0,0,0,1.453.013Z" transform="translate(1830.551 -4125.212)" fill="#707070"/>
  <path id="Path_912" data-name="Path 912" d="M-1714.579,4245.014a9.993,9.993,0,0,1,6.994,2.838,1.275,1.275,0,0,1,.153,1.848,1.262,1.262,0,0,1-1.879-.024,7.5,7.5,0,0,0-10.541.018,1.255,1.255,0,0,1-1.852.017,1.266,1.266,0,0,1,.131-1.847A10,10,0,0,1-1714.579,4245.014Z" transform="translate(1733.075 -4232.447)" fill="#707070"/>
  <path id="Path_913" data-name="Path 913" d="M-1684.238,4293.5a4.918,4.918,0,0,1,3.387,1.308,1.256,1.256,0,0,1,.158,1.843,1.264,1.264,0,0,1-1.849.013,2.554,2.554,0,0,0-3.488,0,1.263,1.263,0,0,1-1.848-.022,1.26,1.26,0,0,1,.167-1.844A4.981,4.981,0,0,1-1684.238,4293.5Z" transform="translate(1702.784 -4275.852)" fill="#707070"/>
  <path id="Path_914" data-name="Path 914" d="M-1661.515,4343.414a1.265,1.265,0,0,1-1.26-1.24,1.258,1.258,0,0,1,1.268-1.27,1.264,1.264,0,0,1,1.242,1.258A1.264,1.264,0,0,1-1661.515,4343.414Z" transform="translate(1680.022 -4318.279)" fill="#707070"/>
</svg>
