<svg xmlns="http://www.w3.org/2000/svg" width="31.76" height="31.761" viewBox="0 0 31.76 31.761">
  <path id="Path_4156" data-name="Path 4156" d="M1669.915,450.08a2.492,2.492,0,0,1-1.773-.735l-11.6-11.6-11.6,11.6a2.508,2.508,0,1,1-3.547-3.547l11.6-11.6-11.6-11.6a2.508,2.508,0,0,1,1.773-4.281h0a2.492,2.492,0,0,1,1.773.735l11.6,11.6,11.6-11.6a2.491,2.491,0,0,1,1.773-.735h0a2.508,2.508,0,0,1,1.773,4.281l-11.6,11.6,11.6,11.6a2.508,2.508,0,0,1-1.773,4.281Z" transform="translate(-1640.664 -418.319)" fill="#959ca7"/>
</svg>
